999
dxflib 3.12.2.0
  0
SECTION
  2
HEADER
  9
$ACADVER
  1
AC1015
  9
$HANDSEED
  5
FFFF
  9
$ANGBASE
 50
0.0
  9
$ANGDIR
 70
0
  9
$ATTMODE
 70
1
  9
$AUNITS
 70
0
  9
$AUPREC
 70
0
  9
$CECOLOR
 62
178
  9
$CELTSCALE
 40
1.0
  9
$CHAMFERA
 40
0.0
  9
$CHAMFERB
 40
0.0
  9
$CHAMFERC
 40
0.0
  9
$CHAMFERD
 40
0.0
  9
$CMLJUST
 70
0
  9
$CMLSCALE
 40
1.0
  9
$DIMADEC
 70
0
  9
$DIMALT
 70
0
  9
$DIMALTD
 70
2
  9
$DIMALTF
 40
25.3999999999999986
  9
$DIMALTRND
 40
0.0
  9
$DIMALTTD
 70
2
  9
$DIMALTTZ
 70
0
  9
$DIMALTU
 70
2
  9
$DIMALTZ
 70
0
  9
$DIMAPOST
  1

  9
$DIMASZ
 40
2.5
  9
$DIMATFIT
 70
3
  9
$DIMAUNIT
 70
0
  9
$DIMAZIN
 70
2
  9
$DIMBLK
  1

  9
$DIMBLK1
  1

  9
$DIMBLK2
  1

  9
$DIMCEN
 40
0.09
  9
$DIMCLRD
 70
178
  9
$DIMCLRE
 70
178
  9
$DIMCLRT
 70
178
  9
$DIMDEC
 70
4
  9
$DIMDLE
 40
0.0
  9
$DIMDLI
 40
0.38
  9
$DIMDSEP
 70
46
  9
$DIMEXE
 40
1.25
  9
$DIMEXO
 40
0.625
  9
$DIMFRAC
 70
0
  9
$DIMGAP
 40
0.625
  9
$DIMJUST
 70
0
  9
$DIMLDRBLK
  1

  9
$DIMLFAC
 40
1.0
  9
$DIMLIM
 70
0
  9
$DIMLUNIT
 70
2
  9
$DIMLWD
 70
-2
  9
$DIMLWE
 70
-2
  9
$DIMPOST
  1

  9
$DIMRND
 40
0.0
  9
$DIMSAH
 70
0
  9
$DIMSCALE
 40
1.0
  9
$DIMSD1
 70
0
  9
$DIMSD2
 70
0
  9
$DIMSE1
 70
0
  9
$DIMSE2
 70
0
  9
$DIMSOXD
 70
0
  9
$DIMTAD
 70
0
  9
$DIMTDEC
 70
4
  9
$DIMTFAC
 40
1.0
  9
$DIMTIH
 70
1
  9
$DIMTIX
 70
0
  9
$DIMTM
 40
0.0
  9
$DIMTOFL
 70
0
  9
$DIMTOH
 70
1
  9
$DIMTOL
 70
0
  9
$DIMTOLJ
 70
1
  9
$DIMTP
 40
0.0
  9
$DIMTSZ
 40
0.0
  9
$DIMTVP
 40
0.0
  9
$DIMTXSTY
  7
Standard
  9
$DIMTXT
 40
2.5
  9
$DIMTZIN
 70
0
  9
$DIMUPT
 70
0
  9
$DIMZIN
 70
8
  9
$DISPSILH
 70
0
  9
$DWGCODEPAGE
  3
ANSI_1252
  9
$ELEVATION
 40
0.0
  9
$EXTMAX
 10
-100000000000000000000.0
 20
-100000000000000000000.0
 30
-100000000000000000000.0
  9
$EXTMIN
 10
100000000000000000000.0
 20
100000000000000000000.0
 30
100000000000000000000.0
  9
$FILLETRAD
 40
0.5
  9
$FILLMODE
 70
1
  9
$INSBASE
 10
0.0
 20
0.0
 30
0.0
  9
$INSUNITS
 70
4
  9
$LIMCHECK
 70
0
  9
$LIMMAX
 10
12.0
 20
9.0
  9
$LIMMIN
 10
0.0
 20
0.0
  9
$LTSCALE
 40
1.0
  9
$LUNITS
 70
2
  9
$LUPREC
 70
4
  9
$MAXACTVP
 70
2
  9
$MEASUREMENT
 70
1
  9
$MIRRTEXT
 70
1
  9
$ORTHOMODE
 70
0
  9
$PDMODE
 70
0
  9
$PDSIZE
 40
0
  9
$PELEVATION
 40
0.0
  9
$PEXTMAX
 10
-100000000000000000000.0
 20
-100000000000000000000.0
 30
-100000000000000000000.0
  9
$PEXTMIN
 10
100000000000000000000.0
 20
100000000000000000000.0
 30
100000000000000000000.0
  9
$PINSBASE
 10
0.0
 20
0.0
 30
0.0
  9
$PLIMCHECK
 70
0
  9
$PLIMMAX
 10
12.0
 20
9.0
  9
$PLIMMIN
 10
0.0
 20
0.0
  9
$PLINEGEN
 70
0
  9
$PLINEWID
 40
0.0
  9
$PROXYGRAPHICS
 70
1
  9
$PSLTSCALE
 70
1
  9
$PUCSNAME
  2

  9
$PUCSORG
 10
0.0
 20
0.0
 30
0.0
  9
$PUCSXDIR
 10
1.0
 20
0.0
 30
0.0
  9
$PUCSYDIR
 10
0.0
 20
1.0
 30
0.0
  9
$QTEXTMODE
 70
0
  9
$REGENMODE
 70
1
  9
$SHADEDGE
 70
3
  9
$SHADEDIF
 70
70
  9
$SKETCHINC
 40
0.1
  9
$SKPOLY
 70
0
  9
$SPLFRAME
 70
0
  9
$SPLINESEGS
 70
8
  9
$SPLINETYPE
 70
6
  9
$SURFTAB1
 70
6
  9
$SURFTAB2
 70
6
  9
$SURFTYPE
 70
6
  9
$SURFU
 70
6
  9
$SURFV
 70
6
  9
$TEXTSIZE
 40
2.5
  9
$TEXTSTYLE
  7
Standard
  9
$THICKNESS
 40
0.0
  9
$TILEMODE
 70
1
  9
$TRACEWID
 40
0.05
  9
$TREEDEPTH
 70
3020
  9
$UCSNAME
  2

  9
$UCSORG
 10
0.0
 20
0.0
 30
0.0
  9
$UCSXDIR
 10
1.0
 20
0.0
 30
0.0
  9
$UCSYDIR
 10
0.0
 20
1.0
 30
0.0
  9
$UNITMODE
 70
0
  9
$USERI1
 70
0
  9
$USERI2
 70
0
  9
$USERI3
 70
0
  9
$USERI4
 70
0
  9
$USERI5
 70
0
  9
$USERR1
 40
0.0
  9
$USERR2
 40
0.0
  9
$USERR3
 40
0.0
  9
$USERR4
 40
0.0
  9
$USERR5
 40
0.0
  9
$USRTIMER
 70
1
  9
$VISRETAIN
 70
1
  0
ENDSEC
  0
SECTION
  2
TABLES
  0
TABLE
  2
VPORT
  5
8
100
AcDbSymbolTable
 70
1
  0
VPORT
  5
30
100
AcDbSymbolTableRecord
100
AcDbViewportTableRecord
  2
*Active
 70
0
 10
0.0
 20
0.0
 11
1.0
 21
1.0
 12
286.3055555555554861
 22
148.5
 13
0.0
 23
0.0
 14
10.0
 24
10.0
 15
10.0
 25
10.0
 16
0.0
 26
0.0
 36
1.0
 17
0.0
 27
0.0
 37
0.0
 40
297.0
 41
1.92798353909465
 42
50.0
 43
0.0
 44
0.0
 50
0.0
 51
0.0
 71
0
 72
100
 73
1
 74
3
 75
1
 76
1
 77
0
 78
0
281
0
 65
1
110
0.0
120
0.0
130
0.0
111
1.0
121
0.0
131
0.0
112
0.0
122
1.0
132
0.0
 79
0
146
0.0
  0
ENDTAB
  0
TABLE
  2
LTYPE
  5
5
100
AcDbSymbolTable
 70
50
  0
LTYPE
  5
16
100
AcDbSymbolTableRecord
100
AcDbLinetypeTableRecord
  2
Continuous
 70
0
  3
Solid line
 72
65
 73
0
 40
0.0
  0
LTYPE
  5
31
100
AcDbSymbolTableRecord
100
AcDbLinetypeTableRecord
  2
ACAD_ISO15W100
 70
0
  3
ISO double-dash triple-dot __ __ . . . __ __ . .
 72
65
 73
10
 40
39.0000000000000071
 49
12.0
 74
0
 49
-3.0
 74
0
 49
12.0
 74
0
 49
-2.9500000000000002
 74
0
 49
0.1
 74
0
 49
-2.9000000000000004
 74
0
 49
0.1
 74
0
 49
-2.9000000000000004
 74
0
 49
0.1
 74
0
 49
-2.9500000000000002
 74
0
  0
LTYPE
  5
32
100
AcDbSymbolTableRecord
100
AcDbLinetypeTableRecord
  2
HOT_WATER_SUPPLY
 70
0
  3
Hot water supply ---- HW ---- HW ---- HW ----
 72
65
 73
3
 40
22.8599999999999994
 49
12.6999999999999993
 74
0
 49
-5.0800000000000001
 74
0
 49
-5.0800000000000001
 74
0
  0
LTYPE
  5
33
100
AcDbSymbolTableRecord
100
AcDbLinetypeTableRecord
  2
DIVIDE
 70
0
  3
Divide ____ . . ____ . . ____ . . ____ . . ____
 72
65
 73
6
 40
31.7500000000000036
 49
12.6999999999999993
 74
0
 49
-6.2999999999999998
 74
0
 49
0.1
 74
0
 49
-6.25
 74
0
 49
0.1
 74
0
 49
-6.2999999999999998
 74
0
  0
LTYPE
  5
34
100
AcDbSymbolTableRecord
100
AcDbLinetypeTableRecord
  2
ACAD_ISO10W100
 70
0
  3
ISO dash dot __ . __ . __ . __ . __ . __ . __ . 
 72
65
 73
4
 40
18.0
 49
12.0
 74
0
 49
-2.9500000000000002
 74
0
 49
0.1
 74
0
 49
-2.9500000000000002
 74
0
  0
LTYPE
  5
35
100
AcDbSymbolTableRecord
100
AcDbLinetypeTableRecord
  2
GAS_LINE
 70
0
  3
Gas line ----GAS----GAS----GAS----GAS----GAS----GAS--
 72
65
 73
3
 40
24.1300000000000026
 49
12.6999999999999993
 74
0
 49
-5.0800000000000001
 74
0
 49
-6.3499999999999996
 74
0
  0
LTYPE
  5
36
100
AcDbSymbolTableRecord
100
AcDbLinetypeTableRecord
  2
ACAD_ISO04W100
 70
0
  3
ISO long-dash dot ____ . ____ . ____ . ____ . _
 72
65
 73
4
 40
30.0
 49
24.0
 74
0
 49
-2.9500000000000002
 74
0
 49
0.1
 74
0
 49
-2.9500000000000002
 74
0
  0
LTYPE
  5
14
100
AcDbSymbolTableRecord
100
AcDbLinetypeTableRecord
  2
ByBlock
 70
0
  3

 72
65
 73
0
 40
0.0
  0
LTYPE
  5
37
100
AcDbSymbolTableRecord
100
AcDbLinetypeTableRecord
  2
CENTER2
 70
0
  3
Center (.5x) ___ _ ___ _ ___ _ ___ _ ___ _ ___
 72
65
 73
4
 40
28.5750000000000028
 49
19.0500000000000007
 74
0
 49
-3.1749999999999998
 74
0
 49
3.1749999999999998
 74
0
 49
-3.1749999999999998
 74
0
  0
LTYPE
  5
38
100
AcDbSymbolTableRecord
100
AcDbLinetypeTableRecord
  2
ACAD_ISO11W100
 70
0
  3
ISO double-dash dot __ __ . __ __ . __ __ . __ _
 72
65
 73
6
 40
33.0
 49
12.0
 74
0
 49
-3.0
 74
0
 49
12.0
 74
0
 49
-2.9500000000000002
 74
0
 49
0.1
 74
0
 49
-2.9500000000000002
 74
0
  0
LTYPE
  5
39
100
AcDbSymbolTableRecord
100
AcDbLinetypeTableRecord
  2
HIDDEN2
 70
0
  3
Hidden (.5x) _ _ _ _ _ _ _ _ _ _ _ _ _ _ _ _ _ 
 72
65
 73
2
 40
4.7624999999999993
 49
3.1749999999999998
 74
0
 49
-1.5874999999999999
 74
0
  0
LTYPE
  5
3A
100
AcDbSymbolTableRecord
100
AcDbLinetypeTableRecord
  2
BORDERX2
 70
0
  3
Border (2x) ____  ____  .  ____  ____  .  ___
 72
65
 73
6
 40
88.8999999999999773
 49
25.3999999999999986
 74
0
 49
-12.6999999999999993
 74
0
 49
25.3999999999999986
 74
0
 49
-12.6499999999999986
 74
0
 49
0.1
 74
0
 49
-12.6499999999999986
 74
0
  0
LTYPE
  5
3B
100
AcDbSymbolTableRecord
100
AcDbLinetypeTableRecord
  2
ACAD_ISO05W100
 70
0
  3
ISO long-dash double-dot ____ .. ____ .. ____ . 
 72
65
 73
6
 40
33.0000000000000071
 49
24.0
 74
0
 49
-2.9500000000000002
 74
0
 49
0.1
 74
0
 49
-2.9000000000000004
 74
0
 49
0.1
 74
0
 49
-2.9500000000000002
 74
0
  0
LTYPE
  5
3C
100
AcDbSymbolTableRecord
100
AcDbLinetypeTableRecord
  2
DASHDOTX2
 70
0
  3
Dash dot (2x) ____  .  ____  .  ____  .  ___
 72
65
 73
4
 40
50.7999999999999972
 49
25.3999999999999986
 74
0
 49
-12.6499999999999986
 74
0
 49
0.1
 74
0
 49
-12.6499999999999986
 74
0
  0
LTYPE
  5
3D
100
AcDbSymbolTableRecord
100
AcDbLinetypeTableRecord
  2
HIDDENX2
 70
0
  3
Hidden (2x) ____ ____ ____ ____ ____ ____ ____ 
 72
65
 73
2
 40
19.0499999999999972
 49
12.6999999999999993
 74
0
 49
-6.3499999999999996
 74
0
  0
LTYPE
  5
3E
100
AcDbSymbolTableRecord
100
AcDbLinetypeTableRecord
  2
CENTERX2
 70
0
  3
Center (2x) ________  __  ________  __  _____
 72
65
 73
4
 40
101.6000000000000085
 49
63.5
 74
0
 49
-12.6999999999999993
 74
0
 49
12.6999999999999993
 74
0
 49
-12.6999999999999993
 74
0
  0
LTYPE
  5
3F
100
AcDbSymbolTableRecord
100
AcDbLinetypeTableRecord
  2
BORDER2
 70
0
  3
Border (.5x) __.__.__.__.__.__.__.__.__.__.__.
 72
65
 73
6
 40
22.2250000000000014
 49
6.3499999999999996
 74
0
 49
-3.1749999999999998
 74
0
 49
6.3499999999999996
 74
0
 49
-3.125
 74
0
 49
0.1
 74
0
 49
-3.125
 74
0
  0
LTYPE
  5
40
100
AcDbSymbolTableRecord
100
AcDbLinetypeTableRecord
  2
DASHDOT2
 70
0
  3
Dash dot (.5x) _._._._._._._._._._._._._._._.
 72
65
 73
4
 40
12.6999999999999993
 49
6.3499999999999996
 74
0
 49
-3.125
 74
0
 49
0.1
 74
0
 49
-3.125
 74
0
  0
LTYPE
  5
41
100
AcDbSymbolTableRecord
100
AcDbLinetypeTableRecord
  2
ACAD_ISO12W100
 70
0
  3
ISO dash double-dot __ . . __ . . __ . . __ . . 
 72
65
 73
6
 40
21.0
 49
12.0
 74
0
 49
-2.9500000000000002
 74
0
 49
0.1
 74
0
 49
-2.9000000000000004
 74
0
 49
0.1
 74
0
 49
-2.9500000000000002
 74
0
  0
LTYPE
  5
42
100
AcDbSymbolTableRecord
100
AcDbLinetypeTableRecord
  2
ACAD_ISO07W100
 70
0
  3
ISO dot . . . . . . . . . . . . . . . . . . . . 
 72
65
 73
2
 40
3.0
 49
0.1
 74
0
 49
-2.8999999999999999
 74
0
  0
LTYPE
  5
43
100
AcDbSymbolTableRecord
100
AcDbLinetypeTableRecord
  2
ACAD_ISO06W100
 70
0
  3
ISO long-dash triple-dot ____ ... ____ ... ____
 72
65
 73
8
 40
36.0000000000000071
 49
24.0
 74
0
 49
-2.9500000000000002
 74
0
 49
0.1
 74
0
 49
-2.9000000000000004
 74
0
 49
0.1
 74
0
 49
-2.9000000000000004
 74
0
 49
0.1
 74
0
 49
-2.9500000000000002
 74
0
  0
LTYPE
  5
44
100
AcDbSymbolTableRecord
100
AcDbLinetypeTableRecord
  2
CENTER
 70
0
  3
Center ____ _ ____ _ ____ _ ____ _ ____ _ ____
 72
65
 73
4
 40
50.8000000000000043
 49
31.75
 74
0
 49
-6.3499999999999996
 74
0
 49
6.3499999999999996
 74
0
 49
-6.3499999999999996
 74
0
  0
LTYPE
  5
45
100
AcDbSymbolTableRecord
100
AcDbLinetypeTableRecord
  2
HIDDEN
 70
0
  3
Hidden __ __ __ __ __ __ __ __ __ __ __ __ __ __
 72
65
 73
2
 40
9.5249999999999986
 49
6.3499999999999996
 74
0
 49
-3.1749999999999998
 74
0
  0
LTYPE
  5
46
100
AcDbSymbolTableRecord
100
AcDbLinetypeTableRecord
  2
DOTX2
 70
0
  3
Dot (2x) .  .  .  .  .  .  .  .  .  .  .  .  .  .
 72
65
 73
2
 40
12.6999999999999993
 49
0.1
 74
0
 49
-12.5999999999999996
 74
0
  0
LTYPE
  5
47
100
AcDbSymbolTableRecord
100
AcDbLinetypeTableRecord
  2
PHANTOM
 70
0
  3
Phantom ______  __  __  ______  __  __  ______ 
 72
65
 73
6
 40
63.5000000000000071
 49
31.75
 74
0
 49
-6.3499999999999996
 74
0
 49
6.3499999999999996
 74
0
 49
-6.3499999999999996
 74
0
 49
6.3499999999999996
 74
0
 49
-6.3499999999999996
 74
0
  0
LTYPE
  5
48
100
AcDbSymbolTableRecord
100
AcDbLinetypeTableRecord
  2
ACAD_ISO08W100
 70
0
  3
ISO long-dash short-dash ____ __ ____ __ ____ _
 72
65
 73
4
 40
36.0
 49
24.0
 74
0
 49
-3.0
 74
0
 49
6.0
 74
0
 49
-3.0
 74
0
  0
LTYPE
  5
49
100
AcDbSymbolTableRecord
100
AcDbLinetypeTableRecord
  2
DASHEDX2
 70
0
  3
Dashed (2x) ____  ____  ____  ____  ____  ___
 72
65
 73
2
 40
38.0999999999999943
 49
25.3999999999999986
 74
0
 49
-12.6999999999999993
 74
0
  0
LTYPE
  5
4A
100
AcDbSymbolTableRecord
100
AcDbLinetypeTableRecord
  2
DRAINAGE
 70
0
  3
Drainage ---->---->---->----
 72
65
 73
2
 40
10.1600000000000001
 49
5.0800000000000001
 74
0
 49
5.0800000000000001
 74
0
  0
LTYPE
  5
4B
100
AcDbSymbolTableRecord
100
AcDbLinetypeTableRecord
  2
ACAD_ISO02W100
 70
0
  3
ISO dash __ __ __ __ __ __ __ __ __ __ __ __ __
 72
65
 73
2
 40
15.0
 49
12.0
 74
0
 49
-3.0
 74
0
  0
LTYPE
  5
4C
100
AcDbSymbolTableRecord
100
AcDbLinetypeTableRecord
  2
PHANTOM2
 70
0
  3
Phantom (.5x) ___ _ _ ___ _ _ ___ _ _ ___ _ _
 72
65
 73
6
 40
31.7500000000000036
 49
15.875
 74
0
 49
-3.1749999999999998
 74
0
 49
3.1749999999999998
 74
0
 49
-3.1749999999999998
 74
0
 49
3.1749999999999998
 74
0
 49
-3.1749999999999998
 74
0
  0
LTYPE
  5
4D
100
AcDbSymbolTableRecord
100
AcDbLinetypeTableRecord
  2
DASHED2
 70
0
  3
Dashed (.5x) _ _ _ _ _ _ _ _ _ _ _ _ _ _ _ _ _ 
 72
65
 73
2
 40
9.5249999999999986
 49
6.3499999999999996
 74
0
 49
-3.1749999999999998
 74
0
  0
LTYPE
  5
4E
100
AcDbSymbolTableRecord
100
AcDbLinetypeTableRecord
  2
ACAD_ISO09W100
 70
0
  3
ISO long-dash double-short-dash ____ __ __ ____
 72
65
 73
6
 40
45.0
 49
24.0
 74
0
 49
-3.0
 74
0
 49
6.0
 74
0
 49
-3.0
 74
0
 49
6.0
 74
0
 49
-3.0
 74
0
  0
LTYPE
  5
4F
100
AcDbSymbolTableRecord
100
AcDbLinetypeTableRecord
  2
ACAD_ISO13W100
 70
0
  3
ISO double-dash double-dot __ __ . . __ __ . . _
 72
65
 73
8
 40
36.0000000000000071
 49
12.0
 74
0
 49
-3.0
 74
0
 49
12.0
 74
0
 49
-2.9500000000000002
 74
0
 49
0.1
 74
0
 49
-2.9000000000000004
 74
0
 49
0.1
 74
0
 49
-2.9500000000000002
 74
0
  0
LTYPE
  5
50
100
AcDbSymbolTableRecord
100
AcDbLinetypeTableRecord
  2
TRACKS
 70
0
  3
Tracks -|-|-|-|-|-|-|-|-|-|-|-|-|-|-|-|-|-|-|-|-|-|-|-|-
 72
65
 73
2
 40
7.6200000000000001
 49
3.8100000000000001
 74
0
 49
3.8100000000000001
 74
0
  0
LTYPE
  5
51
100
AcDbSymbolTableRecord
100
AcDbLinetypeTableRecord
  2
DRAINAGE2
 70
0
  3
Drainage reversed----<----<----<----
 72
65
 73
2
 40
10.1600000000000001
 49
5.0800000000000001
 74
0
 49
5.0800000000000001
 74
0
  0
LTYPE
  5
52
100
AcDbSymbolTableRecord
100
AcDbLinetypeTableRecord
  2
DOT2
 70
0
  3
Dot (.5x) ........................................
 72
65
 73
2
 40
3.1749999999999998
 49
0.1
 74
0
 49
-3.0749999999999997
 74
0
  0
LTYPE
  5
53
100
AcDbSymbolTableRecord
100
AcDbLinetypeTableRecord
  2
ZIGZAG
 70
0
  3
Zig zag /\/\/\/\/\/\/\/\/\/\/\/\/\/\/\/\/\/\/\/\/\/\/\/
 72
65
 73
4
 40
20.32254
 49
0.00254
 74
0
 49
-5.0800000000000001
 74
0
 49
-10.1600000000000001
 74
0
 49
-5.0800000000000001
 74
0
  0
LTYPE
  5
54
100
AcDbSymbolTableRecord
100
AcDbLinetypeTableRecord
  2
DASHED
 70
0
  3
Dashed __ __ __ __ __ __ __ __ __ __ __ __ __ _
 72
65
 73
2
 40
19.0499999999999972
 49
12.6999999999999993
 74
0
 49
-6.3499999999999996
 74
0
  0
LTYPE
  5
55
100
AcDbSymbolTableRecord
100
AcDbLinetypeTableRecord
  2
ACAD_ISO14W100
 70
0
  3
ISO dash triple-dot __ . . . __ . . . __ . . . _
 72
65
 73
8
 40
24.0000000000000036
 49
12.0
 74
0
 49
-2.9500000000000002
 74
0
 49
0.1
 74
0
 49
-2.9000000000000004
 74
0
 49
0.1
 74
0
 49
-2.9000000000000004
 74
0
 49
0.1
 74
0
 49
-2.9500000000000002
 74
0
  0
LTYPE
  5
56
100
AcDbSymbolTableRecord
100
AcDbLinetypeTableRecord
  2
PHANTOMX2
 70
0
  3
Phantom (2x) ____________    ____    ____   _
 72
65
 73
6
 40
127.0000000000000142
 49
63.5
 74
0
 49
-12.6999999999999993
 74
0
 49
12.6999999999999993
 74
0
 49
-12.6999999999999993
 74
0
 49
12.6999999999999993
 74
0
 49
-12.6999999999999993
 74
0
  0
LTYPE
  5
57
100
AcDbSymbolTableRecord
100
AcDbLinetypeTableRecord
  2
DIVIDEX2
 70
0
  3
Divide (2x) ________  .  .  ________  .  .  _
 72
65
 73
6
 40
63.5
 49
25.3999999999999986
 74
0
 49
-12.6499999999999986
 74
0
 49
0.1
 74
0
 49
-12.5999999999999979
 74
0
 49
0.1
 74
0
 49
-12.6499999999999986
 74
0
  0
LTYPE
  5
58
100
AcDbSymbolTableRecord
100
AcDbLinetypeTableRecord
  2
BORDER
 70
0
  3
Border __ __ . __ __ . __ __ . __ __ . __ __ .
 72
65
 73
6
 40
44.4499999999999957
 49
12.6999999999999993
 74
0
 49
-6.3499999999999996
 74
0
 49
12.6999999999999993
 74
0
 49
-6.2999999999999998
 74
0
 49
0.1
 74
0
 49
-6.2999999999999998
 74
0
  0
LTYPE
  5
59
100
AcDbSymbolTableRecord
100
AcDbLinetypeTableRecord
  2
DIVIDE2
 70
0
  3
Divide (.5x) __..__..__..__..__..__..__..__.._
 72
65
 73
6
 40
15.8749999999999982
 49
6.3499999999999996
 74
0
 49
-3.125
 74
0
 49
0.1
 74
0
 49
-3.0750000000000002
 74
0
 49
0.1
 74
0
 49
-3.125
 74
0
  0
LTYPE
  5
5A
100
AcDbSymbolTableRecord
100
AcDbLinetypeTableRecord
  2
DOT
 70
0
  3
Dot . . . . . . . . . . . . . . . . . . . . . . . .
 72
65
 73
2
 40
6.3499999999999996
 49
0.1
 74
0
 49
-6.25
 74
0
  0
LTYPE
  5
5B
100
AcDbSymbolTableRecord
100
AcDbLinetypeTableRecord
  2
DASHDOT
 70
0
  3
Dash dot __ . __ . __ . __ . __ . __ . __ . __
 72
65
 73
4
 40
25.4000000000000021
 49
12.6999999999999993
 74
0
 49
-6.2999999999999998
 74
0
 49
0.1
 74
0
 49
-6.2999999999999998
 74
0
  0
LTYPE
  5
5C
100
AcDbSymbolTableRecord
100
AcDbLinetypeTableRecord
  2
FENCELINE1
 70
0
  3
Fenceline circle ----0-----0----0-----0----0-----0--
 72
65
 73
4
 40
36.8299999999999983
 49
6.3499999999999996
 74
0
 49
-2.54
 74
0
 49
-2.54
 74
0
 49
25.3999999999999986
 74
0
  0
LTYPE
  5
5D
100
AcDbSymbolTableRecord
100
AcDbLinetypeTableRecord
  2
BATTING
 70
0
  3
Batting SSSSSSSSSSSSSSSSSSSSSSSSSSSSSSSSSSSSSSSSSSSSSSS
 72
65
 73
4
 40
10.1625399999999999
 49
0.00254
 74
0
 49
-2.54
 74
0
 49
-5.0800000000000001
 74
0
 49
-2.54
 74
0
  0
LTYPE
  5
5E
100
AcDbSymbolTableRecord
100
AcDbLinetypeTableRecord
  2
ACAD_ISO03W100
 70
0
  3
ISO dash space __    __    __    __    __    __
 72
65
 73
2
 40
30.0
 49
12.0
 74
0
 49
-18.0
 74
0
  0
LTYPE
  5
15
100
AcDbSymbolTableRecord
100
AcDbLinetypeTableRecord
  2
ByLayer
 70
0
  3

 72
65
 73
0
 40
0.0
  0
LTYPE
  5
5F
100
AcDbSymbolTableRecord
100
AcDbLinetypeTableRecord
  2
FENCELINE2
 70
0
  3
Fenceline square ----[]-----[]----[]-----[]----[]---
 72
65
 73
4
 40
36.8299999999999983
 49
6.3499999999999996
 74
0
 49
-2.54
 74
0
 49
-2.54
 74
0
 49
25.3999999999999986
 74
0
  0
ENDTAB
  0
TABLE
  2
LAYER
  5
2
100
AcDbSymbolTable
 70
4
  0
LAYER
  5
60
100
AcDbSymbolTableRecord
100
AcDbLayerTableRecord
  2
DIMENSIONS
 70
0
 62
1
420
16711680
  6
Continuous
370
0
390
F
  0
LAYER
  5
61
100
AcDbSymbolTableRecord
100
AcDbLayerTableRecord
  2
VISIBLE
 70
0
 62
7
420
16777215
  6
Continuous
370
0
390
F
  0
LAYER
  5
10
100
AcDbSymbolTableRecord
100
AcDbLayerTableRecord
  2
0
 70
0
 62
7
420
16777215
  6
Continuous
370
25
390
F
  0
LAYER
  5
62
100
AcDbSymbolTableRecord
100
AcDbLayerTableRecord
  2
CONTINUOUS
 70
0
 62
7
420
16777215
  6
Continuous
370
0
390
F
  0
ENDTAB
  0
TABLE
  2
STYLE
  5
3
100
AcDbSymbolTable
 70
32
  0
STYLE
  5
63
100
AcDbSymbolTableRecord
100
AcDbTextStyleTableRecord
  2
Standard
 70
0
 40
0.0
 41
1.0
 50
0.0
 71
0
 42
2.5
  3

  4

1001
ACAD
1000
txt
1071
0
  0
STYLE
  5
64
100
AcDbSymbolTableRecord
100
AcDbTextStyleTableRecord
  2
textstyle0
 70
0
 40
0.0
 41
1.0
 50
0.0
 71
0
 42
1.944097664543524
  3

  4

1001
ACAD
1000
Standard
1071
0
  0
STYLE
  5
65
100
AcDbSymbolTableRecord
100
AcDbTextStyleTableRecord
  2
textstyle1
 70
0
 40
0.0
 41
1.0
 50
0.0
 71
0
 42
1.944097664543524
  3

  4

1001
ACAD
1000
Standard
1071
0
  0
STYLE
  5
66
100
AcDbSymbolTableRecord
100
AcDbTextStyleTableRecord
  2
textstyle2
 70
0
 40
0.0
 41
1.0
 50
0.0
 71
0
 42
1.944097664543524
  3

  4

1001
ACAD
1000
Standard
1071
0
  0
STYLE
  5
67
100
AcDbSymbolTableRecord
100
AcDbTextStyleTableRecord
  2
textstyle3
 70
0
 40
0.0
 41
1.0
 50
0.0
 71
0
 42
4.7213800424628447
  3

  4

1001
ACAD
1000
Standard
1071
0
  0
STYLE
  5
68
100
AcDbSymbolTableRecord
100
AcDbTextStyleTableRecord
  2
textstyle4
 70
0
 40
0.0
 41
1.0
 50
0.0
 71
0
 42
1.944097664543524
  3

  4

1001
ACAD
1000
Standard
1071
0
  0
STYLE
  5
69
100
AcDbSymbolTableRecord
100
AcDbTextStyleTableRecord
  2
textstyle5
 70
0
 40
0.0
 41
1.0
 50
0.0
 71
0
 42
1.944097664543524
  3

  4

1001
ACAD
1000
Standard
1071
0
  0
STYLE
  5
6A
100
AcDbSymbolTableRecord
100
AcDbTextStyleTableRecord
  2
textstyle6
 70
0
 40
0.0
 41
1.0
 50
0.0
 71
0
 42
9.8418259023354562
  3

  4

1001
ACAD
1000
Standard
1071
0
  0
STYLE
  5
6B
100
AcDbSymbolTableRecord
100
AcDbTextStyleTableRecord
  2
textstyle7
 70
0
 40
0.0
 41
1.0
 50
0.0
 71
0
 42
27.3384052842651393
  3

  4

1001
ACAD
1000
Standard
1071
0
  0
STYLE
  5
6C
100
AcDbSymbolTableRecord
100
AcDbTextStyleTableRecord
  2
textstyle8
 70
0
 40
0.0
 41
1.0
 50
0.0
 71
0
 42
1.944097664543524
  3

  4

1001
ACAD
1000
Standard
1071
0
  0
STYLE
  5
6D
100
AcDbSymbolTableRecord
100
AcDbTextStyleTableRecord
  2
textstyle9
 70
0
 40
0.0
 41
1.0
 50
0.0
 71
0
 42
1.944097664543524
  3

  4

1001
ACAD
1000
Standard
1071
0
  0
STYLE
  5
6E
100
AcDbSymbolTableRecord
100
AcDbTextStyleTableRecord
  2
textstyle10
 70
0
 40
0.0
 41
1.0
 50
0.0
 71
0
 42
3.3327388535031832
  3

  4

1001
ACAD
1000
Standard
1071
0
  0
STYLE
  5
6F
100
AcDbSymbolTableRecord
100
AcDbTextStyleTableRecord
  2
textstyle11
 70
0
 40
0.0
 41
1.0
 50
0.0
 71
0
 42
1.944097664543524
  3

  4

1001
ACAD
1000
Standard
1071
0
  0
STYLE
  5
70
100
AcDbSymbolTableRecord
100
AcDbTextStyleTableRecord
  2
textstyle12
 70
0
 40
0.0
 41
1.0
 50
0.0
 71
0
 42
2.4995541401273882
  3

  4

1001
ACAD
1000
Standard
1071
0
  0
STYLE
  5
71
100
AcDbSymbolTableRecord
100
AcDbTextStyleTableRecord
  2
textstyle13
 70
0
 40
0.0
 41
1.0
 50
0.0
 71
0
 42
4.7213800424628447
  3

  4

1001
ACAD
1000
Standard
1071
0
  0
STYLE
  5
72
100
AcDbSymbolTableRecord
100
AcDbTextStyleTableRecord
  2
textstyle14
 70
0
 40
0.0
 41
1.0
 50
0.0
 71
0
 42
1.944097664543524
  3

  4

1001
ACAD
1000
Standard
1071
0
  0
STYLE
  5
73
100
AcDbSymbolTableRecord
100
AcDbTextStyleTableRecord
  2
textstyle15
 70
0
 40
0.0
 41
1.0
 50
0.0
 71
0
 42
1.944097664543524
  3

  4

1001
ACAD
1000
Standard
1071
0
  0
STYLE
  5
74
100
AcDbSymbolTableRecord
100
AcDbTextStyleTableRecord
  2
textstyle16
 70
0
 40
0.0
 41
1.0
 50
0.0
 71
0
 42
1.944097664543524
  3

  4

1001
ACAD
1000
Standard
1071
0
  0
STYLE
  5
75
100
AcDbSymbolTableRecord
100
AcDbTextStyleTableRecord
  2
textstyle17
 70
0
 40
0.0
 41
1.0
 50
0.0
 71
0
 42
1.944097664543524
  3

  4

1001
ACAD
1000
Standard
1071
0
  0
STYLE
  5
76
100
AcDbSymbolTableRecord
100
AcDbTextStyleTableRecord
  2
textstyle18
 70
0
 40
0.0
 41
1.0
 50
0.0
 71
0
 42
1.944097664543524
  3

  4

1001
ACAD
1000
Standard
1071
0
  0
STYLE
  5
77
100
AcDbSymbolTableRecord
100
AcDbTextStyleTableRecord
  2
textstyle19
 70
0
 40
0.0
 41
1.0
 50
0.0
 71
0
 42
1.944097664543524
  3

  4

1001
ACAD
1000
Standard
1071
0
  0
STYLE
  5
78
100
AcDbSymbolTableRecord
100
AcDbTextStyleTableRecord
  2
textstyle20
 70
0
 40
0.0
 41
1.0
 50
0.0
 71
0
 42
1.944097664543524
  3

  4

1001
ACAD
1000
Standard
1071
0
  0
STYLE
  5
79
100
AcDbSymbolTableRecord
100
AcDbTextStyleTableRecord
  2
textstyle21
 70
0
 40
0.0
 41
1.0
 50
0.0
 71
0
 42
1.944097664543524
  3

  4

1001
ACAD
1000
Standard
1071
0
  0
STYLE
  5
7A
100
AcDbSymbolTableRecord
100
AcDbTextStyleTableRecord
  2
textstyle22
 70
0
 40
0.0
 41
1.0
 50
0.0
 71
0
 42
1.944097664543524
  3

  4

1001
ACAD
1000
Standard
1071
0
  0
STYLE
  5
7B
100
AcDbSymbolTableRecord
100
AcDbTextStyleTableRecord
  2
textstyle23
 70
0
 40
0.0
 41
1.0
 50
0.0
 71
0
 42
1.944097664543524
  3

  4

1001
ACAD
1000
Standard
1071
0
  0
STYLE
  5
7C
100
AcDbSymbolTableRecord
100
AcDbTextStyleTableRecord
  2
textstyle24
 70
0
 40
0.0
 41
1.0
 50
0.0
 71
0
 42
1.944097664543524
  3

  4

1001
ACAD
1000
Standard
1071
0
  0
STYLE
  5
7D
100
AcDbSymbolTableRecord
100
AcDbTextStyleTableRecord
  2
textstyle25
 70
0
 40
0.0
 41
1.0
 50
0.0
 71
0
 42
1.944097664543524
  3

  4

1001
ACAD
1000
Standard
1071
0
  0
STYLE
  5
7E
100
AcDbSymbolTableRecord
100
AcDbTextStyleTableRecord
  2
textstyle26
 70
0
 40
0.0
 41
1.0
 50
0.0
 71
0
 42
1.944097664543524
  3

  4

1001
ACAD
1000
Standard
1071
0
  0
STYLE
  5
7F
100
AcDbSymbolTableRecord
100
AcDbTextStyleTableRecord
  2
textstyle27
 70
0
 40
0.0
 41
1.0
 50
0.0
 71
0
 42
1.944097664543524
  3

  4

1001
ACAD
1000
Standard
1071
0
  0
STYLE
  5
80
100
AcDbSymbolTableRecord
100
AcDbTextStyleTableRecord
  2
textstyle28
 70
0
 40
0.0
 41
1.0
 50
0.0
 71
0
 42
2.4995541401273882
  3

  4

1001
ACAD
1000
Standard
1071
0
  0
STYLE
  5
81
100
AcDbSymbolTableRecord
100
AcDbTextStyleTableRecord
  2
textstyle29
 70
0
 40
0.0
 41
1.0
 50
0.0
 71
0
 42
1.944097664543524
  3

  4

1001
ACAD
1000
Standard
1071
0
  0
STYLE
  5
82
100
AcDbSymbolTableRecord
100
AcDbTextStyleTableRecord
  2
textstyle30
 70
0
 40
0.0
 41
1.0
 50
0.0
 71
0
 42
1.944097664543524
  3

  4

1001
ACAD
1000
Standard
1071
0
  0
ENDTAB
  0
TABLE
  2
VIEW
  5
6
100
AcDbSymbolTable
 70
0
  0
ENDTAB
  0
TABLE
  2
UCS
  5
7
100
AcDbSymbolTable
 70
0
  0
ENDTAB
  0
TABLE
  2
APPID
  5
9
100
AcDbSymbolTable
 70
1
  0
APPID
  5
12
100
AcDbSymbolTableRecord
100
AcDbRegAppTableRecord
  2
ACAD
 70
0
  0
APPID
  5
83
100
AcDbSymbolTableRecord
100
AcDbRegAppTableRecord
  2
QCAD
 70
0
  0
ENDTAB
  0
TABLE
  2
DIMSTYLE
  5
A
100
AcDbSymbolTable
 70
1
100
AcDbDimStyleTable
 71
0
  0
DIMSTYLE
105
27
100
AcDbSymbolTableRecord
100
AcDbDimStyleTableRecord
  2
Standard
 41
2.5
 42
0.625
 43
3.75
 44
1.25
 70
0
 73
0
 74
0
 77
1
 78
8
140
2.5
141
2.5
143
0.03937007874016
147
0.625
171
3
172
1
271
2
272
2
274
3
278
44
283
0
284
8
340
63
  0
ENDTAB
  0
TABLE
  2
BLOCK_RECORD
  5
1
100
AcDbSymbolTable
 70
1
  0
BLOCK_RECORD
  5
1F
100
AcDbSymbolTableRecord
100
AcDbBlockTableRecord
  2
*Model_Space
340
22
  0
BLOCK_RECORD
  5
1B
100
AcDbSymbolTableRecord
100
AcDbBlockTableRecord
  2
*Paper_Space
340
1E
  0
BLOCK_RECORD
  5
23
100
AcDbSymbolTableRecord
100
AcDbBlockTableRecord
  2
*Paper_Space0
340
26
  0
BLOCK_RECORD
  5
84
100
AcDbSymbolTableRecord
100
AcDbBlockTableRecord
  2
BLOCK4
340
0
  0
ENDTAB
  0
ENDSEC
  0
SECTION
  2
BLOCKS
  0
BLOCK
  5
20
100
AcDbEntity
  8
0
100
AcDbBlockBegin
  2
*Model_Space
 70
0
 10
0.0
 20
0.0
 30
0.0
  3
*Model_Space
  1

  0
ENDBLK
  5
21
100
AcDbEntity
  8
0
100
AcDbBlockEnd
  0
BLOCK
  5
1C
100
AcDbEntity
 67
1
  8
0
100
AcDbBlockBegin
  2
*Paper_Space
 70
0
 10
0.0
 20
0.0
 30
0.0
  3
*Paper_Space
  1

  0
ENDBLK
  5
1D
100
AcDbEntity
 67
1
  8
0
100
AcDbBlockEnd
  0
BLOCK
  5
24
100
AcDbEntity
  8
0
100
AcDbBlockBegin
  2
*Paper_Space0
 70
0
 10
0.0
 20
0.0
 30
0.0
  3
*Paper_Space0
  1

  0
ENDBLK
  5
25
100
AcDbEntity
  8
0
100
AcDbBlockEnd
  0
BLOCK
  5
85
100
AcDbEntity
  8
0
100
AcDbBlockBegin
  2
BLOCK4
 70
0
 10
0.0
 20
0.0
 30
0.0
  3
BLOCK4
  1

  0
LINE
  5
86
100
AcDbEntity
100
AcDbLine
  8
CONTINUOUS
 62
256
370
-1
 48
1.0
  6
ByLayer
 10
0.0
 20
0.0
 30
0.0
 11
825.5
 21
0.0
 31
0.0
  0
LINE
  5
87
100
AcDbEntity
100
AcDbLine
  8
CONTINUOUS
 62
256
370
-1
 48
1.0
  6
ByLayer
 10
825.5
 20
533.3999999999999773
 30
0.0
 11
0.0
 21
533.3999999999999773
 31
0.0
  0
LINE
  5
88
100
AcDbEntity
100
AcDbLine
  8
CONTINUOUS
 62
256
370
-1
 48
1.0
  6
ByLayer
 10
0.0
 20
533.3999999999999773
 30
0.0
 11
0.0
 21
0.0
 31
0.0
  0
LINE
  5
89
100
AcDbEntity
100
AcDbLine
  8
CONTINUOUS
 62
256
370
-1
 48
1.0
  6
ByLayer
 10
825.5
 20
0.0
 30
0.0
 11
825.5
 21
533.3999999999999773
 31
0.0
  0
LINE
  5
8A
100
AcDbEntity
100
AcDbLine
  8
CONTINUOUS
 62
256
370
-1
 48
1.0
  6
ByLayer
 10
825.5
 20
3.1749999999999998
 30
0.0
 11
825.5
 21
12.6999999999999993
 31
0.0
  0
LINE
  5
8B
100
AcDbEntity
100
AcDbLine
  8
CONTINUOUS
 62
256
370
-1
 48
1.0
  6
ByLayer
 10
825.5
 20
520.6999999999999318
 30
0.0
 11
825.5
 21
530.2250000000000227
 31
0.0
  0
LINE
  5
8C
100
AcDbEntity
100
AcDbLine
  8
CONTINUOUS
 62
256
370
-1
 48
1.0
  6
ByLayer
 10
666.75
 20
44.4500000000000028
 30
0.0
 11
825.5
 21
44.4500000000000028
 31
0.0
  0
LINE
  5
8D
100
AcDbEntity
100
AcDbLine
  8
CONTINUOUS
 62
256
370
-1
 48
1.0
  6
ByLayer
 10
717.5499999999999545
 20
6.3499999999999996
 30
0.0
 11
825.5
 21
6.3499999999999996
 31
0.0
  0
LINE
  5
8E
100
AcDbEntity
100
AcDbLine
  8
CONTINUOUS
 62
256
370
-1
 48
1.0
  6
ByLayer
 10
666.75
 20
0.0
 30
0.0
 11
666.75
 21
44.4500000000000028
 31
0.0
  0
LINE
  5
8F
100
AcDbEntity
100
AcDbLine
  8
CONTINUOUS
 62
256
370
-1
 48
1.0
  6
ByLayer
 10
717.5499999999999545
 20
0.0
 30
0.0
 11
717.5499999999999545
 21
44.4500000000000028
 31
0.0
  0
LINE
  5
90
100
AcDbEntity
100
AcDbLine
  8
CONTINUOUS
 62
256
370
-1
 48
1.0
  6
ByLayer
 10
727.2019999999998845
 20
6.3499999999999996
 30
0.0
 11
727.2019999999998845
 21
16.0019999999999989
 31
0.0
  0
LINE
  5
91
100
AcDbEntity
100
AcDbLine
  8
CONTINUOUS
 62
256
370
-1
 48
1.0
  6
ByLayer
 10
742.9499999999999318
 20
0.0
 30
0.0
 11
742.9499999999999318
 21
6.3499999999999996
 31
0.0
  0
LINE
  5
92
100
AcDbEntity
100
AcDbLine
  8
CONTINUOUS
 62
256
370
-1
 48
1.0
  6
ByLayer
 10
755.6499999999999773
 20
6.3499999999999996
 30
0.0
 11
755.6499999999999773
 21
16.0019999999999989
 31
0.0
  0
LINE
  5
93
100
AcDbEntity
100
AcDbLine
  8
CONTINUOUS
 62
256
370
-1
 48
1.0
  6
ByLayer
 10
781.0499999999999545
 20
0.0
 30
0.0
 11
781.0499999999999545
 21
6.3499999999999996
 31
0.0
  0
LINE
  5
94
100
AcDbEntity
100
AcDbLine
  8
CONTINUOUS
 62
256
370
-1
 48
1.0
  6
ByLayer
 10
815.8479999999998427
 20
6.3499999999999996
 30
0.0
 11
815.8479999999998427
 21
16.0019999999999989
 31
0.0
  0
LINE
  5
95
100
AcDbEntity
100
AcDbLine
  8
CONTINUOUS
 62
256
370
-1
 48
1.0
  6
ByLayer
 10
666.75
 20
26.1978141784667997
 30
0.0
 11
717.5499999999999545
 21
26.1978141784667997
 31
0.0
  0
LINE
  5
96
100
AcDbEntity
100
AcDbLine
  8
CONTINUOUS
 62
256
370
-1
 48
1.0
  6
ByLayer
 10
666.75
 20
17.1505310058593992
 30
0.0
 11
717.5499999999999545
 21
17.1505310058593992
 31
0.0
  0
LINE
  5
97
100
AcDbEntity
100
AcDbLine
  8
CONTINUOUS
 62
256
370
-1
 48
1.0
  6
ByLayer
 10
666.75
 20
8.734456253051798
 30
0.0
 11
717.5499999999999545
 21
8.734456253051798
 31
0.0
  0
LINE
  5
98
100
AcDbEntity
100
AcDbLine
  8
CONTINUOUS
 62
256
370
-1
 48
1.0
  6
ByLayer
 10
717.5499999999999545
 20
16.0019999999999989
 30
0.0
 11
825.5
 21
16.0019999999999989
 31
0.0
  0
LINE
  5
99
100
AcDbEntity
100
AcDbLine
  8
CONTINUOUS
 62
256
370
-1
 48
1.0
  6
ByLayer
 10
666.75
 20
35.2450935363769986
 30
0.0
 11
717.5499999999999545
 21
35.2450935363769986
 31
0.0
  0
LINE
  5
9A
100
AcDbEntity
100
AcDbLine
  8
CONTINUOUS
 62
256
370
-1
 48
1.0
  6
ByLayer
 10
692.0571105957029658
 20
44.4500000000000028
 30
0.0
 11
692.0571105957029658
 21
0.0
 31
0.0
  0
LINE
  5
9B
100
AcDbEntity
100
AcDbLine
  8
CONTINUOUS
 62
256
370
-1
 48
1.0
  6
ByLayer
 10
825.5
 20
0.0
 30
0.0
 11
825.5
 21
44.4500000000000028
 31
0.0
  0
MTEXT
  5
9C
100
AcDbEntity
100
AcDbMText
  8
CONTINUOUS
 62
256
370
-1
 48
1.0
  6
ByLayer
 10
729.0287049999999454
 20
14.3529440000035997
 30
0.0
 40
1.944097664543524
 41
0.0
 71
4
 72
1
  1
{\fArial|b0|i0|c0|p0;\C7;FSCM NO.}{\fArial|b0|i0|c0|p0;\C7;}
  7
textstyle0
 50
0.0
 73
1
 44
1.0
  0
MTEXT
  5
9D
100
AcDbEntity
100
AcDbMText
  8
CONTINUOUS
 62
256
370
-1
 48
1.0
  6
ByLayer
 10
719.8593049999999494
 20
14.3529440000023207
 30
0.0
 40
1.944097664543524
 41
0.0
 71
4
 72
1
  1
{\fArial|b0|i0|c0|p0;\C7;SIZE}{\fArial|b0|i0|c0|p0;\C7;}
  7
textstyle1
 50
0.0
 73
1
 44
1.0
  0
MTEXT
  5
9E
100
AcDbEntity
100
AcDbMText
  8
CONTINUOUS
 62
256
370
-1
 48
1.0
  6
ByLayer
 10
782.4677649999999858
 20
3.5985839999858329
 30
0.0
 40
1.944097664543524
 41
0.0
 71
4
 72
1
  1
{\fArial|b0|i0|c0|p0;\C7;SHEET}{\fArial|b0|i0|c0|p0;\C7;}
  7
textstyle2
 50
0.0
 73
1
 44
1.0
  0
MTEXT
  5
9F
100
AcDbEntity
100
AcDbMText
  8
CONTINUOUS
 62
256
370
-1
 48
1.0
  6
ByLayer
 10
720.2830627441398974
 20
10.3825477600099507
 30
0.0
 40
4.7213800424628447
 41
0.0
 71
4
 72
1
  1
{\fArial|b0|i0|c0|p0;\C7;C}{\fArial|b0|i0|c0|p0;\C7;}
  7
textstyle3
 50
0.0
 73
1
 44
1.0
  0
MTEXT
  5
A0
100
AcDbEntity
100
AcDbMText
  8
CONTINUOUS
 62
256
370
-1
 48
1.0
  6
ByLayer
 10
668.4893920898441593
 20
24.4958976745608688
 30
0.0
 40
1.944097664543524
 41
0.0
 71
4
 72
1
  1
{\fArial|b0|i0|c0|p0;\C7;QA}{\fArial|b0|i0|c0|p0;\C7;}
  7
textstyle4
 50
0.0
 73
1
 44
1.0
  0
MTEXT
  5
A1
100
AcDbEntity
100
AcDbMText
  8
CONTINUOUS
 62
256
370
-1
 48
1.0
  6
ByLayer
 10
782.4677649999999858
 20
3.5985839999858329
 30
0.0
 40
1.944097664543524
 41
0.0
 71
4
 72
1
  1
{\fArial|b0|i0|c0|p0;\C7;SHEET}{\fArial|b0|i0|c0|p0;\C7;}
  7
textstyle5
 50
0.0
 73
1
 44
1.0
  0
MTEXT
  5
A2
100
AcDbEntity
100
AcDbMText
  8
CONTINUOUS
 62
256
370
-1
 48
1.0
  6
ByLayer
 10
728.0048156738279204
 20
30.0963489532453288
 30
0.0
 40
9.8418259023354562
 41
0.0
 71
4
 72
1
  1
{\fTimes New Roman|b0|i0|c0|p0;\C7;M}{\fTimes New Roman|b0|i0|c0|p0;\C7;\H0.5555556x;edia}{\fMS Shell Dlg|b0|i0|c0|p0;\C7;\H0.25x;}
  7
textstyle6
 50
0.0
 73
1
 44
1.0
  0
MTEXT
  5
A3
100
AcDbEntity
100
AcDbMText
  8
CONTINUOUS
 62
256
370
-1
 48
1.0
  6
ByLayer
 10
721.2199707031248863
 20
30.9902050018309794
 30
0.0
 40
27.3384052842651393
 41
0.0
 71
4
 72
1
  1
{\fTimes New Roman|b0|i0|c0|p0;\C7;C}{\fTimes New Roman|b0|i0|c0|p0;\C7;\H0.36x;onversions}{\fMS Shell Dlg|b0|i0|c0|p0;\C7;\H0.09x;}
  7
textstyle7
 50
0.0
 73
1
 44
1.0
  0
MTEXT
  5
A4
100
AcDbEntity
100
AcDbMText
  8
CONTINUOUS
 62
256
370
-1
 48
1.0
  6
ByLayer
 10
817.9693450000000894
 20
14.3529440000014201
 30
0.0
 40
1.944097664543524
 41
0.0
 71
4
 72
1
  1
{\fArial|b0|i0|c0|p0;\C7;REV}{\fArial|b0|i0|c0|p0;\C7;}
  7
textstyle8
 50
0.0
 73
1
 44
1.0
  0
MTEXT
  5
A5
100
AcDbEntity
100
AcDbMText
  8
CONTINUOUS
 62
256
370
-1
 48
1.0
  6
ByLayer
 10
668.4535034179690456
 20
33.4288848876956592
 30
0.0
 40
1.944097664543524
 41
0.0
 71
4
 72
1
  1
{\fArial|b0|i0|c0|p0;\C7;CHECKED}{\fArial|b0|i0|c0|p0;\C7;}
  7
textstyle9
 50
0.0
 73
1
 44
1.0
  0
MTEXT
  5
A6
100
AcDbEntity
100
AcDbMText
  8
CONTINUOUS
 62
256
370
-1
 48
1.0
  6
ByLayer
 10
671.4559326171880684
 20
48.7333709716799532
 30
0.0
 40
3.3327388535031832
 41
0.0
 71
4
 72
1
  1
{\fArial|b0|i0|c0|p0;\C1;Copyright Media-Conversions - Released for non-commercial use ONLY!}{\fMS Shell Dlg|b0|i0|c0|p0;\C7;\H0.75x;}
  7
textstyle10
 50
0.0
 73
1
 44
1.0
  0
MTEXT
  5
A7
100
AcDbEntity
100
AcDbMText
  8
CONTINUOUS
 62
256
370
-1
 48
1.0
  6
ByLayer
 10
668.7108276367190456
 20
6.7795242309578496
 30
0.0
 40
1.944097664543524
 41
0.0
 71
4
 72
1
  1
{\fArial|b0|i0|c0|p0;\C7;APPROVED}{\fArial|b0|i0|c0|p0;\C7;}
  7
textstyle11
 50
0.0
 73
1
 44
1.0
  0
MTEXT
  5
A8
100
AcDbEntity
100
AcDbMText
  8
CONTINUOUS
 62
256
370
-1
 48
1.0
  6
ByLayer
 10
694.0596923828129547
 20
39.6550971984868568
 30
0.0
 40
2.4995541401273882
 41
0.0
 71
4
 72
1
  1
{\fArial|b0|i0|c0|p0;\C7;05/06/2011}{\fArial|b0|i0|c0|p0;\C7;}
  7
textstyle12
 50
0.0
 73
1
 44
1.0
  0
MTEXT
  5
A9
100
AcDbEntity
100
AcDbMText
  8
CONTINUOUS
 62
256
370
-1
 48
1.0
  6
ByLayer
 10
720.2830627441398974
 20
10.3825477600099507
 30
0.0
 40
4.7213800424628447
 41
0.0
 71
4
 72
1
  1
{\fArial|b0|i0|c0|p0;\C7;C}{\fArial|b0|i0|c0|p0;\C7;}
  7
textstyle13
 50
0.0
 73
1
 44
1.0
  0
MTEXT
  5
AA
100
AcDbEntity
100
AcDbMText
  8
CONTINUOUS
 62
256
370
-1
 48
1.0
  6
ByLayer
 10
668.6492126464850116
 20
15.2564338684094292
 30
0.0
 40
1.944097664543524
 41
0.0
 71
4
 72
1
  1
{\fArial|b0|i0|c0|p0;\C7;MFG}{\fArial|b0|i0|c0|p0;\C7;}
  7
textstyle14
 50
0.0
 73
1
 44
1.0
  0
MTEXT
  5
AB
100
AcDbEntity
100
AcDbMText
  8
CONTINUOUS
 62
256
370
-1
 48
1.0
  6
ByLayer
 10
693.6689270019528522
 20
42.5747932434082372
 30
0.0
 40
1.944097664543524
 41
0.0
 71
4
 72
1
  1
{\fArial|b0|i0|c0|p0;\C7;DATE}{\fArial|b0|i0|c0|p0;\C7;}
  7
textstyle15
 50
0.0
 73
1
 44
1.0
  0
MTEXT
  5
AC
100
AcDbEntity
100
AcDbMText
  8
CONTINUOUS
 62
256
370
-1
 48
1.0
  6
ByLayer
 10
668.4535034179690456
 20
33.4288848876956592
 30
0.0
 40
1.944097664543524
 41
0.0
 71
4
 72
1
  1
{\fArial|b0|i0|c0|p0;\C7;CHECKED}{\fArial|b0|i0|c0|p0;\C7;}
  7
textstyle16
 50
0.0
 73
1
 44
1.0
  0
MTEXT
  5
AD
100
AcDbEntity
100
AcDbMText
  8
CONTINUOUS
 62
256
370
-1
 48
1.0
  6
ByLayer
 10
718.9550649999999905
 20
3.5985840000087621
 30
0.0
 40
1.944097664543524
 41
0.0
 71
4
 72
1
  1
{\fArial|b0|i0|c0|p0;\C7;SCALE}{\fArial|b0|i0|c0|p0;\C7;}
  7
textstyle17
 50
0.0
 73
1
 44
1.0
  0
MTEXT
  5
AE
100
AcDbEntity
100
AcDbMText
  8
CONTINUOUS
 62
256
370
-1
 48
1.0
  6
ByLayer
 10
718.9550649999999905
 20
3.5985840000087621
 30
0.0
 40
1.944097664543524
 41
0.0
 71
4
 72
1
  1
{\fArial|b0|i0|c0|p0;\C7;SCALE}{\fArial|b0|i0|c0|p0;\C7;}
  7
textstyle18
 50
0.0
 73
1
 44
1.0
  0
MTEXT
  5
AF
100
AcDbEntity
100
AcDbMText
  8
CONTINUOUS
 62
256
370
-1
 48
1.0
  6
ByLayer
 10
757.5300449999999728
 20
14.3529440000002104
 30
0.0
 40
1.944097664543524
 41
0.0
 71
4
 72
1
  1
{\fArial|b0|i0|c0|p0;\C7;DWG NO.}{\fArial|b0|i0|c0|p0;\C7;}
  7
textstyle19
 50
0.0
 73
1
 44
1.0
  0
MTEXT
  5
B0
100
AcDbEntity
100
AcDbMText
  8
CONTINUOUS
 62
256
370
-1
 48
1.0
  6
ByLayer
 10
817.9693450000000894
 20
14.3529440000014201
 30
0.0
 40
1.944097664543524
 41
0.0
 71
4
 72
1
  1
{\fArial|b0|i0|c0|p0;\C7;REV}{\fArial|b0|i0|c0|p0;\C7;}
  7
textstyle20
 50
0.0
 73
1
 44
1.0
  0
MTEXT
  5
B1
100
AcDbEntity
100
AcDbMText
  8
CONTINUOUS
 62
256
370
-1
 48
1.0
  6
ByLayer
 10
668.3093994140631366
 20
42.7303756713866889
 30
0.0
 40
1.944097664543524
 41
0.0
 71
4
 72
1
  1
{\fArial|b0|i0|c0|p0;\C7;DRAWN}{\fArial|b0|i0|c0|p0;\C7;}
  7
textstyle21
 50
0.0
 73
1
 44
1.0
  0
MTEXT
  5
B2
100
AcDbEntity
100
AcDbMText
  8
CONTINUOUS
 62
256
370
-1
 48
1.0
  6
ByLayer
 10
729.0287049999999454
 20
14.3529440000035997
 30
0.0
 40
1.944097664543524
 41
0.0
 71
4
 72
1
  1
{\fArial|b0|i0|c0|p0;\C7;FSCM NO.}{\fArial|b0|i0|c0|p0;\C7;}
  7
textstyle22
 50
0.0
 73
1
 44
1.0
  0
MTEXT
  5
B3
100
AcDbEntity
100
AcDbMText
  8
CONTINUOUS
 62
256
370
-1
 48
1.0
  6
ByLayer
 10
668.6492126464850116
 20
15.2564338684094292
 30
0.0
 40
1.944097664543524
 41
0.0
 71
4
 72
1
  1
{\fArial|b0|i0|c0|p0;\C7;MFG}{\fArial|b0|i0|c0|p0;\C7;}
  7
textstyle23
 50
0.0
 73
1
 44
1.0
  0
MTEXT
  5
B4
100
AcDbEntity
100
AcDbMText
  8
CONTINUOUS
 62
256
370
-1
 48
1.0
  6
ByLayer
 10
668.4893920898441593
 20
24.4958976745608688
 30
0.0
 40
1.944097664543524
 41
0.0
 71
4
 72
1
  1
{\fArial|b0|i0|c0|p0;\C7;QA}{\fArial|b0|i0|c0|p0;\C7;}
  7
textstyle24
 50
0.0
 73
1
 44
1.0
  0
MTEXT
  5
B5
100
AcDbEntity
100
AcDbMText
  8
CONTINUOUS
 62
256
370
-1
 48
1.0
  6
ByLayer
 10
668.7108276367190456
 20
6.7795242309578496
 30
0.0
 40
1.944097664543524
 41
0.0
 71
4
 72
1
  1
{\fArial|b0|i0|c0|p0;\C7;APPROVED}{\fArial|b0|i0|c0|p0;\C7;}
  7
textstyle25
 50
0.0
 73
1
 44
1.0
  0
MTEXT
  5
B6
100
AcDbEntity
100
AcDbMText
  8
CONTINUOUS
 62
256
370
-1
 48
1.0
  6
ByLayer
 10
668.3093994140631366
 20
42.7303756713866889
 30
0.0
 40
1.944097664543524
 41
0.0
 71
4
 72
1
  1
{\fArial|b0|i0|c0|p0;\C7;DRAWN}{\fArial|b0|i0|c0|p0;\C7;}
  7
textstyle26
 50
0.0
 73
1
 44
1.0
  0
MTEXT
  5
B7
100
AcDbEntity
100
AcDbMText
  8
CONTINUOUS
 62
256
370
-1
 48
1.0
  6
ByLayer
 10
757.5300449999999728
 20
14.3529440000002104
 30
0.0
 40
1.944097664543524
 41
0.0
 71
4
 72
1
  1
{\fArial|b0|i0|c0|p0;\C7;DWG NO.}{\fArial|b0|i0|c0|p0;\C7;}
  7
textstyle27
 50
0.0
 73
1
 44
1.0
  0
MTEXT
  5
B8
100
AcDbEntity
100
AcDbMText
  8
CONTINUOUS
 62
256
370
-1
 48
1.0
  6
ByLayer
 10
759.1194458007810226
 20
10.4063245773327093
 30
0.0
 40
2.4995541401273882
 41
0.0
 71
4
 72
1
  1
{\fArial|b0|i0|c0|p0;\C7;ring 2, rib c, rib c-left}{\fArial|b0|i0|c0|p0;\C7;}
  7
textstyle28
 50
0.0
 73
1
 44
1.0
  0
MTEXT
  5
B9
100
AcDbEntity
100
AcDbMText
  8
CONTINUOUS
 62
256
370
-1
 48
1.0
  6
ByLayer
 10
719.8593049999999494
 20
14.3529440000023207
 30
0.0
 40
1.944097664543524
 41
0.0
 71
4
 72
1
  1
{\fArial|b0|i0|c0|p0;\C7;SIZE}{\fArial|b0|i0|c0|p0;\C7;}
  7
textstyle29
 50
0.0
 73
1
 44
1.0
  0
MTEXT
  5
BA
100
AcDbEntity
100
AcDbMText
  8
CONTINUOUS
 62
256
370
-1
 48
1.0
  6
ByLayer
 10
693.6689270019528522
 20
42.5747932434082372
 30
0.0
 40
1.944097664543524
 41
0.0
 71
4
 72
1
  1
{\fArial|b0|i0|c0|p0;\C7;DATE}{\fArial|b0|i0|c0|p0;\C7;}
  7
textstyle30
 50
0.0
 73
1
 44
1.0
  0
ENDBLK
  5
BB
100
AcDbEntity
  8
0
100
AcDbBlockEnd
  0
ENDSEC
  0
SECTION
  2
ENTITIES
  0
ARC
  5
BC
100
AcDbEntity
  8
VISIBLE
 62
256
370
-1
 48
1.0
  6
ByLayer
100
AcDbCircle
 10
-43.9182658323969264
 20
-194.2483006354943029
 30
0.0
 40
1.5
100
AcDbArc
 50
347.262359786722584
 51
167.2599999851267114
  0
ARC
  5
BD
100
AcDbEntity
  8
VISIBLE
 62
256
370
-1
 48
1.0
  6
ByLayer
100
AcDbCircle
 10
-129.4704875711307182
 20
151.3228643323687095
 30
0.0
 40
1.5
100
AcDbArc
 50
220.5453332238978987
 51
40.5499999955382577
  0
ARC
  5
BE
100
AcDbEntity
  8
VISIBLE
 62
256
370
-1
 48
1.0
  6
ByLayer
100
AcDbCircle
 10
-122.3506274518933878
 20
157.0544191473468914
 30
0.0
 40
1.5
100
AcDbArc
 50
220.5453332238978987
 51
40.5499999955382577
  0
ARC
  5
BF
100
AcDbEntity
  8
VISIBLE
 62
256
370
-1
 48
1.0
  6
ByLayer
100
AcDbCircle
 10
129.4704874952038836
 20
151.3228643323687095
 30
0.0
 40
1.5
100
AcDbArc
 50
139.450000021186213
 51
319.4451334584123856
  0
ARC
  5
C0
100
AcDbEntity
  8
VISIBLE
 62
256
370
-1
 48
1.0
  6
ByLayer
100
AcDbCircle
 10
122.350627386948787
 20
157.0544191733482933
 30
0.0
 40
1.5
100
AcDbArc
 50
139.450000021186213
 51
319.4451334584123856
  0
ARC
  5
C1
100
AcDbEntity
  8
VISIBLE
 62
256
370
-1
 48
1.0
  6
ByLayer
100
AcDbCircle
 10
190.3371407579231231
 20
-58.5917163094704279
 30
0.0
 40
1.5
100
AcDbArc
 50
72.8855054201738852
 51
252.8900000121654159
  0
ARC
  5
C2
100
AcDbEntity
  8
VISIBLE
 62
256
370
-1
 48
1.0
  6
ByLayer
100
AcDbCircle
 10
43.9182657564702055
 20
-194.2483006354943029
 30
0.0
 40
1.5
100
AcDbArc
 50
12.7399999934050197
 51
192.7382421509142034
  0
ARC
  5
C3
100
AcDbEntity
  8
VISIBLE
 62
256
370
-1
 48
1.0
  6
ByLayer
100
AcDbCircle
 10
131.8053366525721799
 20
-149.2935684994916983
 30
0.0
 40
1.5
100
AcDbArc
 50
41.4405468426676791
 51
221.4400000033429876
  0
ARC
  5
C4
100
AcDbEntity
  8
VISIBLE
 62
256
370
-1
 48
1.0
  6
ByLayer
100
AcDbCircle
 10
-0.0000000379265366
 20
0.0000000606048332
 30
0.0
 40
228.8006599999999935
100
AcDbArc
 50
78.8056295343242255
 51
101.1943704686290033
  0
ARC
  5
C5
100
AcDbEntity
  8
VISIBLE
 62
256
370
-1
 48
1.0
  6
ByLayer
100
AcDbCircle
 10
-190.3371408338499009
 20
58.5917164305637428
 30
0.0
 40
1.5
100
AcDbArc
 50
252.885175249138058
 51
72.8899999850923592
  0
ARC
  5
C6
100
AcDbEntity
  8
VISIBLE
 62
256
370
-1
 48
1.0
  6
ByLayer
100
AcDbCircle
 10
-181.5213935560009872
 20
81.9219146424433688
 30
0.0
 40
1.5
100
AcDbArc
 50
245.7088558290249409
 51
65.7100000000361462
  0
ARC
  5
C7
100
AcDbEntity
  8
VISIBLE
 62
256
370
-1
 48
1.0
  6
ByLayer
100
AcDbCircle
 10
39.9427662628264741
 20
195.1045664186358124
 30
0.0
 40
1.5
100
AcDbArc
 50
168.4300000142804095
 51
348.4287162676350249
  0
ARC
  5
C8
100
AcDbEntity
  8
VISIBLE
 62
256
370
-1
 48
1.0
  6
ByLayer
100
AcDbCircle
 10
-131.8053367284989577
 20
-149.2935684994916983
 30
0.0
 40
1.5
100
AcDbArc
 50
318.5612549337183168
 51
138.5599999801567606
  0
ARC
  5
C9
100
AcDbEntity
  8
VISIBLE
 62
256
370
-1
 48
1.0
  6
ByLayer
100
AcDbCircle
 10
181.5213934800742663
 20
81.9219146424433688
 30
0.0
 40
1.5
100
AcDbArc
 50
114.2899999999659002
 51
294.2884662685730177
  0
ARC
  5
CA
100
AcDbEntity
  8
VISIBLE
 62
256
370
-1
 48
1.0
  6
ByLayer
100
AcDbCircle
 10
-181.5213935560009872
 20
-81.9219145213501179
 30
0.0
 40
1.5
100
AcDbArc
 50
294.2915358961030279
 51
114.2899999999637117
  0
ARC
  5
CB
100
AcDbEntity
  8
VISIBLE
 62
256
370
-1
 48
1.0
  6
ByLayer
100
AcDbCircle
 10
181.5213934800742663
 20
-81.9219145213501179
 30
0.0
 40
1.5
100
AcDbArc
 50
65.710000000038022
 51
245.7088471730072854
  0
ARC
  5
CC
100
AcDbEntity
  8
VISIBLE
 62
256
370
-1
 48
1.0
  6
ByLayer
100
AcDbCircle
 10
-190.3371408338499009
 20
-58.5917163094704279
 30
0.0
 40
1.5
100
AcDbArc
 50
287.1099999813584986
 51
107.1144079872446895
  0
ARC
  5
CD
100
AcDbEntity
  8
VISIBLE
 62
256
370
-1
 48
1.0
  6
ByLayer
100
AcDbCircle
 10
-39.9427663387531666
 20
195.1045664186358124
 30
0.0
 40
1.5
100
AcDbArc
 50
191.570000007283511
 51
11.5690813461521191
  0
ARC
  5
CE
100
AcDbEntity
  8
VISIBLE
 62
256
370
-1
 48
1.0
  6
ByLayer
100
AcDbCircle
 10
190.3371407579230663
 20
58.5917164305637428
 30
0.0
 40
1.5
100
AcDbArc
 50
107.1100000213824899
 51
287.1050974069854078
  0
LINE
  5
CF
100
AcDbEntity
100
AcDbLine
  8
VISIBLE
 62
256
370
-1
 48
1.0
  6
ByLayer
 10
-38.4732409160864677
 20
195.4053903407958046
 30
0.0
 11
-44.4188951682809048
 21
224.4475524460879114
 31
0.0
  0
LINE
  5
D0
100
AcDbEntity
100
AcDbLine
  8
VISIBLE
 62
256
370
-1
 48
1.0
  6
ByLayer
 10
-41.4122869381060426
 20
194.8037189346036087
 30
0.0
 11
-47.3579363666795459
 21
223.8458574784210953
 31
0.0
  0
LINE
  5
D1
100
AcDbEntity
100
AcDbLine
  8
VISIBLE
 62
256
370
-1
 48
1.0
  6
ByLayer
 10
38.4732456631802009
 20
195.4054139021517074
 30
0.0
 11
44.4188950808589098
 21
224.4475524483773086
 31
0.0
  0
LINE
  5
D2
100
AcDbEntity
100
AcDbLine
  8
VISIBLE
 62
256
370
-1
 48
1.0
  6
ByLayer
 10
41.4122801210694362
 20
194.8036860097707859
 30
0.0
 11
47.3579362792885945
 21
223.8458574808622075
 31
0.0
  0
LINE
  5
D3
100
AcDbEntity
100
AcDbLine
  8
VISIBLE
 62
256
370
-1
 48
1.0
  6
ByLayer
 10
130.6101630518444949
 20
150.3476004575186948
 30
0.0
 11
149.8824746386537754
 21
172.8727445903882938
 31
0.0
  0
LINE
  5
D4
100
AcDbEntity
100
AcDbLine
  8
VISIBLE
 62
256
370
-1
 48
1.0
  6
ByLayer
 10
128.3307291020408911
 20
152.2980314059797138
 30
0.0
 11
147.6029578611361899
 21
174.8230787312512859
 31
0.0
  0
LINE
  5
D5
100
AcDbEntity
100
AcDbLine
  8
VISIBLE
 62
256
370
-1
 48
1.0
  6
ByLayer
 10
180.9043605556776129
 20
83.2891272710498072
 30
0.0
 11
207.9245864631723748
 21
95.4835501872236847
 31
0.0
  0
LINE
  5
D6
100
AcDbEntity
100
AcDbLine
  8
VISIBLE
 62
256
370
-1
 48
1.0
  6
ByLayer
 10
182.13838980508649
 20
80.5546854974485029
 30
0.0
 11
209.1586523106773825
 21
92.7491249306072802
 31
0.0
  0
LINE
  5
D7
100
AcDbEntity
100
AcDbLine
  8
VISIBLE
 62
256
370
-1
 48
1.0
  6
ByLayer
 10
190.7783287944158701
 20
57.1580661536614798
 30
0.0
 11
219.1109385790092574
 21
65.8797283147567185
 31
0.0
  0
LINE
  5
D8
100
AcDbEntity
100
AcDbLine
  8
VISIBLE
 62
256
370
-1
 48
1.0
  6
ByLayer
 10
189.8958300486175972
 20
60.0253289564296821
 30
0.0
 11
218.2283171644936601
 21
68.7469533562626083
 31
0.0
  0
LINE
  5
D9
100
AcDbEntity
100
AcDbLine
  8
VISIBLE
 62
256
370
-1
 48
1.0
  6
ByLayer
 10
189.8958300497154141
 20
-60.0253288347553067
 30
0.0
 11
218.2283171699398849
 21
-68.7469532177647835
 31
0.0
  0
LINE
  5
DA
100
AcDbEntity
100
AcDbLine
  8
VISIBLE
 62
256
370
-1
 48
1.0
  6
ByLayer
 10
190.7785639237665123
 20
-57.1581384118066822
 30
0.0
 11
219.1109385842282791
 21
-65.8797281761889622
 31
0.0
  0
LINE
  5
DB
100
AcDbEntity
100
AcDbLine
  8
VISIBLE
 62
256
370
-1
 48
1.0
  6
ByLayer
 10
180.9043330473356832
 20
-83.2891147343243716
 30
0.0
 11
207.9245864703862026
 21
-95.4835500503051264
 31
0.0
  0
LINE
  5
DC
100
AcDbEntity
100
AcDbLine
  8
VISIBLE
 62
256
370
-1
 48
1.0
  6
ByLayer
 10
182.1384264036103673
 20
-80.5547018926142187
 30
0.0
 11
209.1586523176848118
 21
-92.749124793595513
 31
0.0
  0
LINE
  5
DD
100
AcDbEntity
100
AcDbLine
  8
VISIBLE
 62
256
370
-1
 48
1.0
  6
ByLayer
 10
130.6808628464403341
 20
-150.2863215702618902
 30
0.0
 11
150.3006437708985459
 21
-172.5092996512898083
 31
0.0
  0
LINE
  5
DE
100
AcDbEntity
100
AcDbLine
  8
VISIBLE
 62
256
370
-1
 48
1.0
  6
ByLayer
 10
132.9298009836230108
 20
-148.3008046966670008
 30
0.0
 11
152.549591383163488
 21
-170.5237935099526112
 31
0.0
  0
LINE
  5
DF
100
AcDbEntity
100
AcDbLine
  8
VISIBLE
 62
256
370
-1
 48
1.0
  6
ByLayer
 10
45.3813369941296045
 20
-193.9175098320380073
 30
0.0
 11
51.9187563019415705
 21
-222.8321896170918137
 31
0.0
  0
LINE
  5
E0
100
AcDbEntity
100
AcDbLine
  8
VISIBLE
 62
256
370
-1
 48
1.0
  6
ByLayer
 10
42.4551843714798025
 20
-194.5790465514101015
 30
0.0
 11
48.992613828068194
 21
-223.49377122399531
 31
0.0
  0
LINE
  5
E1
100
AcDbEntity
100
AcDbLine
  8
VISIBLE
 62
256
370
-1
 48
1.0
  6
ByLayer
 10
-42.4551809727348584
 20
-194.5790311805616
 30
0.0
 11
-48.9926139153905069
 21
-223.4937712214812109
 31
0.0
  0
LINE
  5
E2
100
AcDbEntity
100
AcDbLine
  8
VISIBLE
 62
256
370
-1
 48
1.0
  6
ByLayer
 10
-45.3813370704807326
 20
-193.9175098313658907
 30
0.0
 11
-51.9187563892301753
 21
-222.8321896144275058
 31
0.0
  0
LINE
  5
E3
100
AcDbEntity
100
AcDbLine
  8
VISIBLE
 62
256
370
-1
 48
1.0
  6
ByLayer
 10
-130.6808411786350916
 20
-150.2862969408695903
 30
0.0
 11
-150.3006438535556981
 21
-172.5092996453618071
 31
0.0
  0
LINE
  5
E4
100
AcDbEntity
100
AcDbLine
  8
VISIBLE
 62
256
370
-1
 48
1.0
  6
ByLayer
 10
-132.929810534568503
 20
-148.3008154282001954
 30
0.0
 11
-152.5495914657424805
 21
-170.5237935039359911
 31
0.0
  0
LINE
  5
E5
100
AcDbEntity
100
AcDbLine
  8
VISIBLE
 62
256
370
-1
 48
1.0
  6
ByLayer
 10
-182.1384264794185128
 20
-80.5547018923006704
 30
0.0
 11
-209.1586523955454027
 21
-92.7491247890688868
 31
0.0
  0
LINE
  5
E6
100
AcDbEntity
100
AcDbLine
  8
VISIBLE
 62
256
370
-1
 48
1.0
  6
ByLayer
 10
-180.9043239824260922
 20
-83.2891106087389943
 30
0.0
 11
-207.924586548306138
 21
-95.4835500458052309
 31
0.0
  0
LINE
  5
E7
100
AcDbEntity
100
AcDbLine
  8
VISIBLE
 62
256
370
-1
 48
1.0
  6
ByLayer
 10
-189.8958301258541042
 20
-60.025328834643183
 30
0.0
 11
-218.2283172468573866
 21
-68.7469532143868776
 31
0.0
  0
LINE
  5
E8
100
AcDbEntity
100
AcDbLine
  8
VISIBLE
 62
256
370
-1
 48
1.0
  6
ByLayer
 10
-190.7785618330879061
 20
-57.1581377446804666
 30
0.0
 11
-219.1109386611014997
 21
-65.8797281727973996
 31
0.0
  0
LINE
  5
E9
100
AcDbEntity
100
AcDbLine
  8
VISIBLE
 62
256
370
-1
 48
1.0
  6
ByLayer
 10
-190.778572260779697
 20
57.1581410766620266
 30
0.0
 11
-219.1109386558825349
 21
65.8797283113651417
 31
0.0
  0
LINE
  5
EA
100
AcDbEntity
100
AcDbLine
  8
VISIBLE
 62
256
370
-1
 48
1.0
  6
ByLayer
 10
-189.8958301247562304
 20
60.025328956317523
 30
0.0
 11
-218.2283172414113324
 21
68.7469533528847023
 31
0.0
  0
LINE
  5
EB
100
AcDbEntity
100
AcDbLine
  8
VISIBLE
 62
256
370
-1
 48
1.0
  6
ByLayer
 10
-182.138453782187014
 20
80.5547143362493188
 30
0.0
 11
-209.1586523885380871
 21
92.7491249260807109
 31
0.0
  0
LINE
  5
EC
100
AcDbEntity
100
AcDbLine
  8
VISIBLE
 62
256
370
-1
 48
1.0
  6
ByLayer
 10
-180.9043606319178252
 20
83.2891272709312744
 30
0.0
 11
-207.9245865410923102
 21
95.4835501827238176
 31
0.0
  0
LINE
  5
ED
100
AcDbEntity
100
AcDbLine
  8
VISIBLE
 62
256
370
-1
 48
1.0
  6
ByLayer
 10
-149.8824747214181343
 20
172.8727445843964858
 30
0.0
 11
-130.6103253839900162
 21
150.3477900991044862
 31
0.0
  0
LINE
  5
EE
100
AcDbEntity
100
AcDbLine
  8
VISIBLE
 62
256
370
-1
 48
1.0
  6
ByLayer
 10
-147.6029579439784243
 20
174.8230787253505127
 30
0.0
 11
-128.3307291785849884
 21
152.2980314060278033
 31
0.0
  0
LINE
  5
EF
100
AcDbEntity
100
AcDbLine
  8
CONTINUOUS
 62
256
370
-1
 48
1.0
  6
ByLayer
 10
141.7959094587271807
 20
179.5714679472997091
 30
0.0
 11
123.4903029435916011
 21
156.0791552984964028
 31
0.0
  0
LINE
  5
F0
100
AcDbEntity
100
AcDbLine
  8
CONTINUOUS
 62
256
370
-1
 48
1.0
  6
ByLayer
 10
139.4293081520146984
 20
181.4151594223210964
 30
0.0
 11
121.210868997899297
 21
158.0295862434400078
 31
0.0
  0
LINE
  5
F1
100
AcDbEntity
100
AcDbLine
  8
CONTINUOUS
 62
256
370
-1
 48
1.0
  6
ByLayer
 10
-139.4293082251385272
 20
181.4151593905021116
 30
0.0
 11
-121.2108690631285128
 21
158.0295862177713104
 31
0.0
  0
LINE
  5
F2
100
AcDbEntity
100
AcDbLine
  8
CONTINUOUS
 62
256
370
-1
 48
1.0
  6
ByLayer
 10
-141.7959095312286308
 20
179.57146791468179
 30
0.0
 11
-123.4904652647528138
 21
156.0793449140826965
 31
0.0
  0
ENDSEC
  0
SECTION
  2
OBJECTS
  0
DICTIONARY
  5
C
100
AcDbDictionary
280
0
281
1
  3
ACAD_GROUP
350
D
  3
ACAD_LAYOUT
350
1A
  3
ACAD_MLINESTYLE
350
17
  3
ACAD_PLOTSETTINGS
350
19
  3
ACAD_PLOTSTYLENAME
350
E
  3
AcDbVariableDictionary
350
F3
  3
QCAD_OBJECTS
350
F4
  0
DICTIONARY
  5
D
100
AcDbDictionary
280
0
281
1
  0
ACDBDICTIONARYWDFLT
  5
E
100
AcDbDictionary
281
1
  3
Normal
350
F
100
AcDbDictionaryWithDefault
340
F
  0
ACDBPLACEHOLDER
  5
F
  0
DICTIONARY
  5
17
100
AcDbDictionary
280
0
281
1
  3
Standard
350
18
  0
MLINESTYLE
  5
18
100
AcDbMlineStyle
  2
STANDARD
 70
0
  3

 62
256
 51
90.0
 52
90.0
 71
2
 49
0.5
 62
256
  6
BYLAYER
 49
-0.5
 62
256
  6
BYLAYER
  0
DICTIONARY
  5
19
100
AcDbDictionary
280
0
281
1
  0
DICTIONARY
  5
1A
100
AcDbDictionary
281
1
  3
Layout1
350
1E
  3
Layout2
350
26
  3
Model
350
22
  0
LAYOUT
  5
1E
100
AcDbPlotSettings
  1

  2
none_device
  4

  6

 40
0.0
 41
0.0
 42
0.0
 43
0.0
 44
0.0
 45
0.0
 46
0.0
 47
0.0
 48
0.0
 49
0.0
140
0.0
141
0.0
142
1.0
143
1.0
 70
688
 72
0
 73
0
 74
5
  7

 75
16
147
1.0
148
0.0
149
0.0
100
AcDbLayout
  1
Layout1
 70
1
 71
1
 10
0.0
 20
0.0
 11
420.0
 21
297.0
 12
0.0
 22
0.0
 32
0.0
 14
100000000000000000000.0
 24
100000000000000000000.0
 34
100000000000000000000.0
 15
-100000000000000000000.0
 25
-100000000000000000000.0
 35
-100000000000000000000.0
146
0.0
 13
0.0
 23
0.0
 33
0.0
 16
1.0
 26
0.0
 36
0.0
 17
0.0
 27
1.0
 37
0.0
 76
0
330
1B
  0
LAYOUT
  5
22
100
AcDbPlotSettings
  1

  2
none_device
  4

  6

 40
0.0
 41
0.0
 42
0.0
 43
0.0
 44
0.0
 45
0.0
 46
0.0
 47
0.0
 48
0.0
 49
0.0
140
0.0
141
0.0
142
1.0
143
1.0
 70
1712
 72
0
 73
0
 74
0
  7

 75
0
147
1.0
148
0.0
149
0.0
100
AcDbLayout
  1
Model
 70
1
 71
0
 10
0.0
 20
0.0
 11
12.0
 21
9.0
 12
0.0
 22
0.0
 32
0.0
 14
0.0
 24
0.0
 34
0.0
 15
0.0
 25
0.0
 35
0.0
146
0.0
 13
0.0
 23
0.0
 33
0.0
 16
1.0
 26
0.0
 36
0.0
 17
0.0
 27
1.0
 37
0.0
 76
0
330
1F
  0
LAYOUT
  5
26
100
AcDbPlotSettings
  1

  2
none_device
  4

  6

 40
0.0
 41
0.0
 42
0.0
 43
0.0
 44
0.0
 45
0.0
 46
0.0
 47
0.0
 48
0.0
 49
0.0
140
0.0
141
0.0
142
1.0
143
1.0
 70
688
 72
0
 73
0
 74
5
  7

 75
16
147
1.0
148
0.0
149
0.0
100
AcDbLayout
  1
Layout2
 70
1
 71
2
 10
0.0
 20
0.0
 11
12.0
 21
9.0
 12
0.0
 22
0.0
 32
0.0
 14
0.0
 24
0.0
 34
0.0
 15
0.0
 25
0.0
 35
0.0
146
0.0
 13
0.0
 23
0.0
 33
0.0
 16
1.0
 26
0.0
 36
0.0
 17
0.0
 27
1.0
 37
0.0
 76
0
330
23
  0
DICTIONARY
  5
F3
100
AcDbDictionary
281
1
  3
DIMASSOC
350
F6
  3
HIDETEXT
350
F5
  0
DICTIONARYVAR
  5
F5
100
DictionaryVariables
280
0
  1
2
  0
DICTIONARYVAR
  5
F6
100
DictionaryVariables
280
0
  1
1
  0
DICTIONARY
  5
F4
100
AcDbDictionary
281
1
  3
ColorSettings/BackgroundColor
350
F7
  3
ColorSettings/ColorMode
350
F8
  3
Grid/DisplayGrid00
350
F9
  3
Grid/DisplayGrid01
350
FA
  3
Grid/DisplayGrid02
350
FB
  3
Grid/DisplayGrid03
350
FC
  3
Grid/GridSpacingX00
350
FD
  3
Grid/GridSpacingX01
350
FE
  3
Grid/GridSpacingX02
350
FF
  3
Grid/GridSpacingX03
350
100
  3
Grid/GridSpacingY00
350
101
  3
Grid/GridSpacingY01
350
102
  3
Grid/GridSpacingY02
350
103
  3
Grid/GridSpacingY03
350
104
  3
Grid/IsometricGrid00
350
105
  3
Grid/IsometricGrid01
350
106
  3
Grid/IsometricGrid02
350
107
  3
Grid/IsometricGrid03
350
108
  3
Grid/IsometricProjection00
350
109
  3
Grid/IsometricProjection01
350
10A
  3
Grid/IsometricProjection02
350
10B
  3
Grid/IsometricProjection03
350
10C
  3
Grid/MetaGridSpacingX00
350
10D
  3
Grid/MetaGridSpacingX01
350
10E
  3
Grid/MetaGridSpacingX02
350
10F
  3
Grid/MetaGridSpacingX03
350
110
  3
Grid/MetaGridSpacingY00
350
111
  3
Grid/MetaGridSpacingY01
350
112
  3
Grid/MetaGridSpacingY02
350
113
  3
Grid/MetaGridSpacingY03
350
114
  3
MultiPageSettings/Columns
350
115
  3
MultiPageSettings/GlueMarginsBottom
350
116
  3
MultiPageSettings/GlueMarginsLeft
350
117
  3
MultiPageSettings/GlueMarginsRight
350
118
  3
MultiPageSettings/GlueMarginsTop
350
119
  3
MultiPageSettings/PrintCropMarks
350
11A
  3
MultiPageSettings/Rows
350
11B
  3
PageSettings/OffsetX
350
11C
  3
PageSettings/OffsetY
350
11D
  3
PageSettings/PageOrientation
350
11E
  3
PageSettings/PaperHeight
350
11F
  3
PageSettings/PaperWidth
350
120
  3
PageSettings/Scale
350
121
  3
PageSettings/ShowPaperBorders
350
122
  3
QCADVersion
350
123
  3
UnitSettings/PaperUnit
350
124
  0
XRECORD
  5
F7
330
F4
100
AcDbXrecord
280
1
1000
Weiss
  0
XRECORD
  5
F8
330
F4
100
AcDbXrecord
280
1
1000
FullColor
  0
XRECORD
  5
F9
330
F4
100
AcDbXrecord
280
1
290
1
  0
XRECORD
  5
FA
330
F4
100
AcDbXrecord
280
1
290
1
  0
XRECORD
  5
FB
330
F4
100
AcDbXrecord
280
1
290
1
  0
XRECORD
  5
FC
330
F4
100
AcDbXrecord
280
1
290
1
  0
XRECORD
  5
FD
330
F4
100
AcDbXrecord
280
1
1000
auto
  0
XRECORD
  5
FE
330
F4
100
AcDbXrecord
280
1
1000
auto
  0
XRECORD
  5
FF
330
F4
100
AcDbXrecord
280
1
1000
auto
  0
XRECORD
  5
100
330
F4
100
AcDbXrecord
280
1
1000
auto
  0
XRECORD
  5
101
330
F4
100
AcDbXrecord
280
1
1000
auto
  0
XRECORD
  5
102
330
F4
100
AcDbXrecord
280
1
1000
auto
  0
XRECORD
  5
103
330
F4
100
AcDbXrecord
280
1
1000
auto
  0
XRECORD
  5
104
330
F4
100
AcDbXrecord
280
1
1000
auto
  0
XRECORD
  5
105
330
F4
100
AcDbXrecord
280
1
290
0
  0
XRECORD
  5
106
330
F4
100
AcDbXrecord
280
1
290
0
  0
XRECORD
  5
107
330
F4
100
AcDbXrecord
280
1
290
0
  0
XRECORD
  5
108
330
F4
100
AcDbXrecord
280
1
290
0
  0
XRECORD
  5
109
330
F4
100
AcDbXrecord
280
1
 90
0
  0
XRECORD
  5
10A
330
F4
100
AcDbXrecord
280
1
 90
0
  0
XRECORD
  5
10B
330
F4
100
AcDbXrecord
280
1
 90
0
  0
XRECORD
  5
10C
330
F4
100
AcDbXrecord
280
1
 90
0
  0
XRECORD
  5
10D
330
F4
100
AcDbXrecord
280
1
1000
auto
  0
XRECORD
  5
10E
330
F4
100
AcDbXrecord
280
1
1000
auto
  0
XRECORD
  5
10F
330
F4
100
AcDbXrecord
280
1
1000
auto
  0
XRECORD
  5
110
330
F4
100
AcDbXrecord
280
1
1000
auto
  0
XRECORD
  5
111
330
F4
100
AcDbXrecord
280
1
1000
auto
  0
XRECORD
  5
112
330
F4
100
AcDbXrecord
280
1
1000
auto
  0
XRECORD
  5
113
330
F4
100
AcDbXrecord
280
1
1000
auto
  0
XRECORD
  5
114
330
F4
100
AcDbXrecord
280
1
1000
auto
  0
XRECORD
  5
115
330
F4
100
AcDbXrecord
280
1
 90
1
  0
XRECORD
  5
116
330
F4
100
AcDbXrecord
280
1
 40
10.0
  0
XRECORD
  5
117
330
F4
100
AcDbXrecord
280
1
 40
10.0
  0
XRECORD
  5
118
330
F4
100
AcDbXrecord
280
1
 40
10.0
  0
XRECORD
  5
119
330
F4
100
AcDbXrecord
280
1
 40
10.0
  0
XRECORD
  5
11A
330
F4
100
AcDbXrecord
280
1
290
0
  0
XRECORD
  5
11B
330
F4
100
AcDbXrecord
280
1
 90
1
  0
XRECORD
  5
11C
330
F4
100
AcDbXrecord
280
1
 40
0.0
  0
XRECORD
  5
11D
330
F4
100
AcDbXrecord
280
1
 40
0.0
  0
XRECORD
  5
11E
330
F4
100
AcDbXrecord
280
1
1000
Portrait
  0
XRECORD
  5
11F
330
F4
100
AcDbXrecord
280
1
 40
297.0
  0
XRECORD
  5
120
330
F4
100
AcDbXrecord
280
1
 40
210.0
  0
XRECORD
  5
121
330
F4
100
AcDbXrecord
280
1
1000
1:1
  0
XRECORD
  5
122
330
F4
100
AcDbXrecord
280
1
290
1
  0
XRECORD
  5
123
330
F4
100
AcDbXrecord
280
1
1000
3.12.5
  0
XRECORD
  5
124
330
F4
100
AcDbXrecord
280
1
 90
4
  0
ENDSEC
  0
EOF
