999
dxflib 3.12.2.0
  0
SECTION
  2
HEADER
  9
$ACADVER
  1
AC1015
  9
$HANDSEED
  5
FFFF
  9
$ANGBASE
 50
0.0
  9
$ATTMODE
 70
1
  9
$AUNITS
 70
0
  9
$AUPREC
 70
0
  9
$CELTSCALE
 40
1.0
  9
$CHAMFERA
 40
0.0
  9
$CHAMFERB
 40
0.0
  9
$CHAMFERC
 40
0.0
  9
$CHAMFERD
 40
0.0
  9
$CMLJUST
 70
0
  9
$CMLSCALE
 40
1.0
  9
$DIMADEC
 70
0
  9
$DIMALTD
 70
2
  9
$DIMALTF
 40
25.3999999999999986
  9
$DIMALTRND
 40
0.0
  9
$DIMALTTD
 70
2
  9
$DIMALTTZ
 70
0
  9
$DIMALTU
 70
2
  9
$DIMALTZ
 70
0
  9
$DIMAPOST
  1

  9
$DIMASZ
 40
2.5
  9
$DIMATFIT
 70
3
  9
$DIMAUNIT
 70
0
  9
$DIMAZIN
 70
2
  9
$DIMCEN
 40
0.09
  9
$DIMDEC
 70
4
  9
$DIMDLE
 40
0.0
  9
$DIMDLI
 40
0.38
  9
$DIMDSEP
 70
46
  9
$DIMEXE
 40
1.25
  9
$DIMEXO
 40
0.625
  9
$DIMFRAC
 70
0
  9
$DIMGAP
 40
0.625
  9
$DIMJUST
 70
0
  9
$DIMLFAC
 40
1.0
  9
$DIMLUNIT
 70
2
  9
$DIMLWD
 70
-2
  9
$DIMLWE
 70
-2
  9
$DIMPOST
  1

  9
$DIMRND
 40
0.0
  9
$DIMSCALE
 40
1.0
  9
$DIMTAD
 70
0
  9
$DIMTDEC
 70
4
  9
$DIMTFAC
 40
1.0
  9
$DIMTM
 40
0.0
  9
$DIMTOLJ
 70
1
  9
$DIMTP
 40
0.0
  9
$DIMTSZ
 40
0.0
  9
$DIMTVP
 40
0.0
  9
$DIMTXT
 40
2.5
  9
$DIMTZIN
 70
0
  9
$DIMZIN
 70
8
  9
$DWGCODEPAGE
  3
ANSI_1252
  9
$ELEVATION
 40
0.0
  9
$EXTMAX
 10
-100000000000000000000.0
 20
-100000000000000000000.0
 30
-100000000000000000000.0
  9
$EXTMIN
 10
100000000000000000000.0
 20
100000000000000000000.0
 30
100000000000000000000.0
  9
$FILLETRAD
 40
0.5
  9
$INSBASE
 10
0.0
 20
0.0
 30
0.0
  9
$INSUNITS
 70
4
  9
$LIMMAX
 10
12.0
 20
9.0
  9
$LIMMIN
 10
0.0
 20
0.0
  9
$LTSCALE
 40
1.0
  9
$LUNITS
 70
2
  9
$LUPREC
 70
4
  9
$MAXACTVP
 70
2
  9
$MEASUREMENT
 70
1
  9
$PDMODE
 70
0
  9
$PDSIZE
 40
0.0
  9
$PELEVATION
 40
0.0
  9
$PEXTMAX
 10
-100000000000000000000.0
 20
-100000000000000000000.0
 30
-100000000000000000000.0
  9
$PEXTMIN
 10
100000000000000000000.0
 20
100000000000000000000.0
 30
100000000000000000000.0
  9
$PINSBASE
 10
0.0
 20
0.0
 30
0.0
  9
$PLIMMAX
 10
12.0
 20
9.0
  9
$PLIMMIN
 10
0.0
 20
0.0
  9
$PLINEWID
 40
0.0
  9
$PROXYGRAPHICS
 70
1
  9
$PUCSORG
 10
0.0
 20
0.0
 30
0.0
  9
$PUCSXDIR
 10
1.0
 20
0.0
 30
0.0
  9
$PUCSYDIR
 10
0.0
 20
1.0
 30
0.0
  9
$SHADEDGE
 70
3
  9
$SHADEDIF
 70
70
  9
$SKETCHINC
 40
0.1
  9
$SPLINESEGS
 70
8
  9
$SPLINETYPE
 70
6
  9
$SURFTAB1
 70
6
  9
$SURFTAB2
 70
6
  9
$SURFTYPE
 70
6
  9
$SURFU
 70
6
  9
$SURFV
 70
6
  9
$TEXTSIZE
 40
2.5
  9
$THICKNESS
 40
0.0
  9
$TRACEWID
 40
0.05
  9
$TREEDEPTH
 70
3020
  9
$UCSORG
 10
0.0
 20
0.0
 30
0.0
  9
$UCSXDIR
 10
1.0
 20
0.0
 30
0.0
  9
$UCSYDIR
 10
0.0
 20
1.0
 30
0.0
  9
$UNITMODE
 70
0
  9
$USERI1
 70
0
  9
$USERI2
 70
0
  9
$USERI3
 70
0
  9
$USERI4
 70
0
  9
$USERI5
 70
0
  9
$USERR1
 40
0.0
  9
$USERR2
 40
0.0
  9
$USERR3
 40
0.0
  9
$USERR4
 40
0.0
  9
$USERR5
 40
0.0
  0
ENDSEC
  0
SECTION
  2
TABLES
  0
TABLE
  2
VPORT
  5
8
100
AcDbSymbolTable
 70
1
  0
VPORT
  5
30
100
AcDbSymbolTableRecord
100
AcDbViewportTableRecord
  2
*Active
 70
0
 10
0.0
 20
0.0
 11
1.0
 21
1.0
 12
286.3055555555554861
 22
148.5
 13
0.0
 23
0.0
 14
10.0
 24
10.0
 15
10.0
 25
10.0
 16
0.0
 26
0.0
 36
1.0
 17
0.0
 27
0.0
 37
0.0
 40
297.0
 41
1.92798353909465
 42
50.0
 43
0.0
 44
0.0
 50
0.0
 51
0.0
 71
0
 72
100
 73
1
 74
3
 75
1
 76
1
 77
0
 78
0
281
0
 65
1
110
0.0
120
0.0
130
0.0
111
1.0
121
0.0
131
0.0
112
0.0
122
1.0
132
0.0
 79
0
146
0.0
  0
ENDTAB
  0
TABLE
  2
LTYPE
  5
5
100
AcDbSymbolTable
 70
50
  0
LTYPE
  5
16
100
AcDbSymbolTableRecord
100
AcDbLinetypeTableRecord
  2
Continuous
 70
0
  3
Solid line
 72
65
 73
0
 40
0.0
  0
LTYPE
  5
31
100
AcDbSymbolTableRecord
100
AcDbLinetypeTableRecord
  2
ACAD_ISO15W100
 70
0
  3
ISO double-dash triple-dot __ __ . . . __ __ . .
 72
65
 73
10
 40
39.0000000000000071
 49
12.0
 74
0
 49
-3.0
 74
0
 49
12.0
 74
0
 49
-2.9500000000000002
 74
0
 49
0.1
 74
0
 49
-2.9000000000000004
 74
0
 49
0.1
 74
0
 49
-2.9000000000000004
 74
0
 49
0.1
 74
0
 49
-2.9500000000000002
 74
0
  0
LTYPE
  5
32
100
AcDbSymbolTableRecord
100
AcDbLinetypeTableRecord
  2
HOT_WATER_SUPPLY
 70
0
  3
Hot water supply ---- HW ---- HW ---- HW ----
 72
65
 73
3
 40
22.8599999999999994
 49
12.6999999999999993
 74
0
 49
-5.0800000000000001
 74
0
 49
-5.0800000000000001
 74
0
  0
LTYPE
  5
33
100
AcDbSymbolTableRecord
100
AcDbLinetypeTableRecord
  2
DIVIDE
 70
0
  3
Divide ____ . . ____ . . ____ . . ____ . . ____
 72
65
 73
6
 40
31.7500000000000036
 49
12.6999999999999993
 74
0
 49
-6.2999999999999998
 74
0
 49
0.1
 74
0
 49
-6.25
 74
0
 49
0.1
 74
0
 49
-6.2999999999999998
 74
0
  0
LTYPE
  5
34
100
AcDbSymbolTableRecord
100
AcDbLinetypeTableRecord
  2
ACAD_ISO10W100
 70
0
  3
ISO dash dot __ . __ . __ . __ . __ . __ . __ . 
 72
65
 73
4
 40
18.0
 49
12.0
 74
0
 49
-2.9500000000000002
 74
0
 49
0.1
 74
0
 49
-2.9500000000000002
 74
0
  0
LTYPE
  5
35
100
AcDbSymbolTableRecord
100
AcDbLinetypeTableRecord
  2
GAS_LINE
 70
0
  3
Gas line ----GAS----GAS----GAS----GAS----GAS----GAS--
 72
65
 73
3
 40
24.1300000000000026
 49
12.6999999999999993
 74
0
 49
-5.0800000000000001
 74
0
 49
-6.3499999999999996
 74
0
  0
LTYPE
  5
36
100
AcDbSymbolTableRecord
100
AcDbLinetypeTableRecord
  2
ACAD_ISO04W100
 70
0
  3
ISO long-dash dot ____ . ____ . ____ . ____ . _
 72
65
 73
4
 40
30.0
 49
24.0
 74
0
 49
-2.9500000000000002
 74
0
 49
0.1
 74
0
 49
-2.9500000000000002
 74
0
  0
LTYPE
  5
37
100
AcDbSymbolTableRecord
100
AcDbLinetypeTableRecord
  2
CENTER2
 70
0
  3
Center (.5x) ___ _ ___ _ ___ _ ___ _ ___ _ ___
 72
65
 73
4
 40
28.5750000000000028
 49
19.0500000000000007
 74
0
 49
-3.1749999999999998
 74
0
 49
3.1749999999999998
 74
0
 49
-3.1749999999999998
 74
0
  0
LTYPE
  5
38
100
AcDbSymbolTableRecord
100
AcDbLinetypeTableRecord
  2
ACAD_ISO11W100
 70
0
  3
ISO double-dash dot __ __ . __ __ . __ __ . __ _
 72
65
 73
6
 40
33.0
 49
12.0
 74
0
 49
-3.0
 74
0
 49
12.0
 74
0
 49
-2.9500000000000002
 74
0
 49
0.1
 74
0
 49
-2.9500000000000002
 74
0
  0
LTYPE
  5
39
100
AcDbSymbolTableRecord
100
AcDbLinetypeTableRecord
  2
HIDDEN2
 70
0
  3
Hidden (.5x) _ _ _ _ _ _ _ _ _ _ _ _ _ _ _ _ _ 
 72
65
 73
2
 40
4.7624999999999993
 49
3.1749999999999998
 74
0
 49
-1.5874999999999999
 74
0
  0
LTYPE
  5
3A
100
AcDbSymbolTableRecord
100
AcDbLinetypeTableRecord
  2
BORDERX2
 70
0
  3
Border (2x) ____  ____  .  ____  ____  .  ___
 72
65
 73
6
 40
88.8999999999999773
 49
25.3999999999999986
 74
0
 49
-12.6999999999999993
 74
0
 49
25.3999999999999986
 74
0
 49
-12.6499999999999986
 74
0
 49
0.1
 74
0
 49
-12.6499999999999986
 74
0
  0
LTYPE
  5
3B
100
AcDbSymbolTableRecord
100
AcDbLinetypeTableRecord
  2
ACAD_ISO05W100
 70
0
  3
ISO long-dash double-dot ____ .. ____ .. ____ . 
 72
65
 73
6
 40
33.0000000000000071
 49
24.0
 74
0
 49
-2.9500000000000002
 74
0
 49
0.1
 74
0
 49
-2.9000000000000004
 74
0
 49
0.1
 74
0
 49
-2.9500000000000002
 74
0
  0
LTYPE
  5
3C
100
AcDbSymbolTableRecord
100
AcDbLinetypeTableRecord
  2
DASHDOTX2
 70
0
  3
Dash dot (2x) ____  .  ____  .  ____  .  ___
 72
65
 73
4
 40
50.7999999999999972
 49
25.3999999999999986
 74
0
 49
-12.6499999999999986
 74
0
 49
0.1
 74
0
 49
-12.6499999999999986
 74
0
  0
LTYPE
  5
3D
100
AcDbSymbolTableRecord
100
AcDbLinetypeTableRecord
  2
HIDDENX2
 70
0
  3
Hidden (2x) ____ ____ ____ ____ ____ ____ ____ 
 72
65
 73
2
 40
19.0499999999999972
 49
12.6999999999999993
 74
0
 49
-6.3499999999999996
 74
0
  0
LTYPE
  5
3E
100
AcDbSymbolTableRecord
100
AcDbLinetypeTableRecord
  2
CENTERX2
 70
0
  3
Center (2x) ________  __  ________  __  _____
 72
65
 73
4
 40
101.6000000000000085
 49
63.5
 74
0
 49
-12.6999999999999993
 74
0
 49
12.6999999999999993
 74
0
 49
-12.6999999999999993
 74
0
  0
LTYPE
  5
3F
100
AcDbSymbolTableRecord
100
AcDbLinetypeTableRecord
  2
BORDER2
 70
0
  3
Border (.5x) __.__.__.__.__.__.__.__.__.__.__.
 72
65
 73
6
 40
22.2250000000000014
 49
6.3499999999999996
 74
0
 49
-3.1749999999999998
 74
0
 49
6.3499999999999996
 74
0
 49
-3.125
 74
0
 49
0.1
 74
0
 49
-3.125
 74
0
  0
LTYPE
  5
40
100
AcDbSymbolTableRecord
100
AcDbLinetypeTableRecord
  2
DASHDOT2
 70
0
  3
Dash dot (.5x) _._._._._._._._._._._._._._._.
 72
65
 73
4
 40
12.6999999999999993
 49
6.3499999999999996
 74
0
 49
-3.125
 74
0
 49
0.1
 74
0
 49
-3.125
 74
0
  0
LTYPE
  5
41
100
AcDbSymbolTableRecord
100
AcDbLinetypeTableRecord
  2
ACAD_ISO12W100
 70
0
  3
ISO dash double-dot __ . . __ . . __ . . __ . . 
 72
65
 73
6
 40
21.0
 49
12.0
 74
0
 49
-2.9500000000000002
 74
0
 49
0.1
 74
0
 49
-2.9000000000000004
 74
0
 49
0.1
 74
0
 49
-2.9500000000000002
 74
0
  0
LTYPE
  5
42
100
AcDbSymbolTableRecord
100
AcDbLinetypeTableRecord
  2
ACAD_ISO07W100
 70
0
  3
ISO dot . . . . . . . . . . . . . . . . . . . . 
 72
65
 73
2
 40
3.0
 49
0.1
 74
0
 49
-2.8999999999999999
 74
0
  0
LTYPE
  5
43
100
AcDbSymbolTableRecord
100
AcDbLinetypeTableRecord
  2
ACAD_ISO06W100
 70
0
  3
ISO long-dash triple-dot ____ ... ____ ... ____
 72
65
 73
8
 40
36.0000000000000071
 49
24.0
 74
0
 49
-2.9500000000000002
 74
0
 49
0.1
 74
0
 49
-2.9000000000000004
 74
0
 49
0.1
 74
0
 49
-2.9000000000000004
 74
0
 49
0.1
 74
0
 49
-2.9500000000000002
 74
0
  0
LTYPE
  5
44
100
AcDbSymbolTableRecord
100
AcDbLinetypeTableRecord
  2
CENTER
 70
0
  3
Center ____ _ ____ _ ____ _ ____ _ ____ _ ____
 72
65
 73
4
 40
50.8000000000000043
 49
31.75
 74
0
 49
-6.3499999999999996
 74
0
 49
6.3499999999999996
 74
0
 49
-6.3499999999999996
 74
0
  0
LTYPE
  5
45
100
AcDbSymbolTableRecord
100
AcDbLinetypeTableRecord
  2
HIDDEN
 70
0
  3
Hidden __ __ __ __ __ __ __ __ __ __ __ __ __ __
 72
65
 73
2
 40
9.5249999999999986
 49
6.3499999999999996
 74
0
 49
-3.1749999999999998
 74
0
  0
LTYPE
  5
46
100
AcDbSymbolTableRecord
100
AcDbLinetypeTableRecord
  2
DOTX2
 70
0
  3
Dot (2x) .  .  .  .  .  .  .  .  .  .  .  .  .  .
 72
65
 73
2
 40
12.6999999999999993
 49
0.1
 74
0
 49
-12.5999999999999996
 74
0
  0
LTYPE
  5
47
100
AcDbSymbolTableRecord
100
AcDbLinetypeTableRecord
  2
PHANTOM
 70
0
  3
Phantom ______  __  __  ______  __  __  ______ 
 72
65
 73
6
 40
63.5000000000000071
 49
31.75
 74
0
 49
-6.3499999999999996
 74
0
 49
6.3499999999999996
 74
0
 49
-6.3499999999999996
 74
0
 49
6.3499999999999996
 74
0
 49
-6.3499999999999996
 74
0
  0
LTYPE
  5
48
100
AcDbSymbolTableRecord
100
AcDbLinetypeTableRecord
  2
ACAD_ISO08W100
 70
0
  3
ISO long-dash short-dash ____ __ ____ __ ____ _
 72
65
 73
4
 40
36.0
 49
24.0
 74
0
 49
-3.0
 74
0
 49
6.0
 74
0
 49
-3.0
 74
0
  0
LTYPE
  5
49
100
AcDbSymbolTableRecord
100
AcDbLinetypeTableRecord
  2
DASHEDX2
 70
0
  3
Dashed (2x) ____  ____  ____  ____  ____  ___
 72
65
 73
2
 40
38.0999999999999943
 49
25.3999999999999986
 74
0
 49
-12.6999999999999993
 74
0
  0
LTYPE
  5
4A
100
AcDbSymbolTableRecord
100
AcDbLinetypeTableRecord
  2
DRAINAGE
 70
0
  3
Drainage ---->---->---->----
 72
65
 73
2
 40
10.1600000000000001
 49
5.0800000000000001
 74
0
 49
5.0800000000000001
 74
0
  0
LTYPE
  5
4B
100
AcDbSymbolTableRecord
100
AcDbLinetypeTableRecord
  2
ACAD_ISO02W100
 70
0
  3
ISO dash __ __ __ __ __ __ __ __ __ __ __ __ __
 72
65
 73
2
 40
15.0
 49
12.0
 74
0
 49
-3.0
 74
0
  0
LTYPE
  5
4C
100
AcDbSymbolTableRecord
100
AcDbLinetypeTableRecord
  2
PHANTOM2
 70
0
  3
Phantom (.5x) ___ _ _ ___ _ _ ___ _ _ ___ _ _
 72
65
 73
6
 40
31.7500000000000036
 49
15.875
 74
0
 49
-3.1749999999999998
 74
0
 49
3.1749999999999998
 74
0
 49
-3.1749999999999998
 74
0
 49
3.1749999999999998
 74
0
 49
-3.1749999999999998
 74
0
  0
LTYPE
  5
4D
100
AcDbSymbolTableRecord
100
AcDbLinetypeTableRecord
  2
DASHED2
 70
0
  3
Dashed (.5x) _ _ _ _ _ _ _ _ _ _ _ _ _ _ _ _ _ 
 72
65
 73
2
 40
9.5249999999999986
 49
6.3499999999999996
 74
0
 49
-3.1749999999999998
 74
0
  0
LTYPE
  5
4E
100
AcDbSymbolTableRecord
100
AcDbLinetypeTableRecord
  2
ACAD_ISO09W100
 70
0
  3
ISO long-dash double-short-dash ____ __ __ ____
 72
65
 73
6
 40
45.0
 49
24.0
 74
0
 49
-3.0
 74
0
 49
6.0
 74
0
 49
-3.0
 74
0
 49
6.0
 74
0
 49
-3.0
 74
0
  0
LTYPE
  5
4F
100
AcDbSymbolTableRecord
100
AcDbLinetypeTableRecord
  2
ACAD_ISO13W100
 70
0
  3
ISO double-dash double-dot __ __ . . __ __ . . _
 72
65
 73
8
 40
36.0000000000000071
 49
12.0
 74
0
 49
-3.0
 74
0
 49
12.0
 74
0
 49
-2.9500000000000002
 74
0
 49
0.1
 74
0
 49
-2.9000000000000004
 74
0
 49
0.1
 74
0
 49
-2.9500000000000002
 74
0
  0
LTYPE
  5
50
100
AcDbSymbolTableRecord
100
AcDbLinetypeTableRecord
  2
TRACKS
 70
0
  3
Tracks -|-|-|-|-|-|-|-|-|-|-|-|-|-|-|-|-|-|-|-|-|-|-|-|-
 72
65
 73
2
 40
7.6200000000000001
 49
3.8100000000000001
 74
0
 49
3.8100000000000001
 74
0
  0
LTYPE
  5
51
100
AcDbSymbolTableRecord
100
AcDbLinetypeTableRecord
  2
DRAINAGE2
 70
0
  3
Drainage reversed----<----<----<----
 72
65
 73
2
 40
10.1600000000000001
 49
5.0800000000000001
 74
0
 49
5.0800000000000001
 74
0
  0
LTYPE
  5
52
100
AcDbSymbolTableRecord
100
AcDbLinetypeTableRecord
  2
DOT2
 70
0
  3
Dot (.5x) ........................................
 72
65
 73
2
 40
3.1749999999999998
 49
0.1
 74
0
 49
-3.0749999999999997
 74
0
  0
LTYPE
  5
53
100
AcDbSymbolTableRecord
100
AcDbLinetypeTableRecord
  2
ZIGZAG
 70
0
  3
Zig zag /\/\/\/\/\/\/\/\/\/\/\/\/\/\/\/\/\/\/\/\/\/\/\/
 72
65
 73
4
 40
20.32254
 49
0.00254
 74
0
 49
-5.0800000000000001
 74
0
 49
-10.1600000000000001
 74
0
 49
-5.0800000000000001
 74
0
  0
LTYPE
  5
54
100
AcDbSymbolTableRecord
100
AcDbLinetypeTableRecord
  2
DASHED
 70
0
  3
Dashed __ __ __ __ __ __ __ __ __ __ __ __ __ _
 72
65
 73
2
 40
19.0499999999999972
 49
12.6999999999999993
 74
0
 49
-6.3499999999999996
 74
0
  0
LTYPE
  5
55
100
AcDbSymbolTableRecord
100
AcDbLinetypeTableRecord
  2
ACAD_ISO14W100
 70
0
  3
ISO dash triple-dot __ . . . __ . . . __ . . . _
 72
65
 73
8
 40
24.0000000000000036
 49
12.0
 74
0
 49
-2.9500000000000002
 74
0
 49
0.1
 74
0
 49
-2.9000000000000004
 74
0
 49
0.1
 74
0
 49
-2.9000000000000004
 74
0
 49
0.1
 74
0
 49
-2.9500000000000002
 74
0
  0
LTYPE
  5
15
100
AcDbSymbolTableRecord
100
AcDbLinetypeTableRecord
  2
BYLAYER
 70
0
  3

 72
65
 73
0
 40
0.0
  0
LTYPE
  5
56
100
AcDbSymbolTableRecord
100
AcDbLinetypeTableRecord
  2
PHANTOMX2
 70
0
  3
Phantom (2x) ____________    ____    ____   _
 72
65
 73
6
 40
127.0000000000000142
 49
63.5
 74
0
 49
-12.6999999999999993
 74
0
 49
12.6999999999999993
 74
0
 49
-12.6999999999999993
 74
0
 49
12.6999999999999993
 74
0
 49
-12.6999999999999993
 74
0
  0
LTYPE
  5
14
100
AcDbSymbolTableRecord
100
AcDbLinetypeTableRecord
  2
BYBLOCK
 70
0
  3

 72
65
 73
0
 40
0.0
  0
LTYPE
  5
57
100
AcDbSymbolTableRecord
100
AcDbLinetypeTableRecord
  2
DIVIDEX2
 70
0
  3
Divide (2x) ________  .  .  ________  .  .  _
 72
65
 73
6
 40
63.5
 49
25.3999999999999986
 74
0
 49
-12.6499999999999986
 74
0
 49
0.1
 74
0
 49
-12.5999999999999979
 74
0
 49
0.1
 74
0
 49
-12.6499999999999986
 74
0
  0
LTYPE
  5
58
100
AcDbSymbolTableRecord
100
AcDbLinetypeTableRecord
  2
BORDER
 70
0
  3
Border __ __ . __ __ . __ __ . __ __ . __ __ .
 72
65
 73
6
 40
44.4499999999999957
 49
12.6999999999999993
 74
0
 49
-6.3499999999999996
 74
0
 49
12.6999999999999993
 74
0
 49
-6.2999999999999998
 74
0
 49
0.1
 74
0
 49
-6.2999999999999998
 74
0
  0
LTYPE
  5
59
100
AcDbSymbolTableRecord
100
AcDbLinetypeTableRecord
  2
DIVIDE2
 70
0
  3
Divide (.5x) __..__..__..__..__..__..__..__.._
 72
65
 73
6
 40
15.8749999999999982
 49
6.3499999999999996
 74
0
 49
-3.125
 74
0
 49
0.1
 74
0
 49
-3.0750000000000002
 74
0
 49
0.1
 74
0
 49
-3.125
 74
0
  0
LTYPE
  5
5A
100
AcDbSymbolTableRecord
100
AcDbLinetypeTableRecord
  2
DOT
 70
0
  3
Dot . . . . . . . . . . . . . . . . . . . . . . . .
 72
65
 73
2
 40
6.3499999999999996
 49
0.1
 74
0
 49
-6.25
 74
0
  0
LTYPE
  5
5B
100
AcDbSymbolTableRecord
100
AcDbLinetypeTableRecord
  2
DASHDOT
 70
0
  3
Dash dot __ . __ . __ . __ . __ . __ . __ . __
 72
65
 73
4
 40
25.4000000000000021
 49
12.6999999999999993
 74
0
 49
-6.2999999999999998
 74
0
 49
0.1
 74
0
 49
-6.2999999999999998
 74
0
  0
LTYPE
  5
5C
100
AcDbSymbolTableRecord
100
AcDbLinetypeTableRecord
  2
FENCELINE1
 70
0
  3
Fenceline circle ----0-----0----0-----0----0-----0--
 72
65
 73
4
 40
36.8299999999999983
 49
6.3499999999999996
 74
0
 49
-2.54
 74
0
 49
-2.54
 74
0
 49
25.3999999999999986
 74
0
  0
LTYPE
  5
5D
100
AcDbSymbolTableRecord
100
AcDbLinetypeTableRecord
  2
BATTING
 70
0
  3
Batting SSSSSSSSSSSSSSSSSSSSSSSSSSSSSSSSSSSSSSSSSSSSSSS
 72
65
 73
4
 40
10.1625399999999999
 49
0.00254
 74
0
 49
-2.54
 74
0
 49
-5.0800000000000001
 74
0
 49
-2.54
 74
0
  0
LTYPE
  5
5E
100
AcDbSymbolTableRecord
100
AcDbLinetypeTableRecord
  2
ACAD_ISO03W100
 70
0
  3
ISO dash space __    __    __    __    __    __
 72
65
 73
2
 40
30.0
 49
12.0
 74
0
 49
-18.0
 74
0
  0
LTYPE
  5
5F
100
AcDbSymbolTableRecord
100
AcDbLinetypeTableRecord
  2
FENCELINE2
 70
0
  3
Fenceline square ----[]-----[]----[]-----[]----[]---
 72
65
 73
4
 40
36.8299999999999983
 49
6.3499999999999996
 74
0
 49
-2.54
 74
0
 49
-2.54
 74
0
 49
25.3999999999999986
 74
0
  0
ENDTAB
  0
TABLE
  2
LAYER
  5
2
100
AcDbSymbolTable
 70
4
  0
LAYER
  5
60
100
AcDbSymbolTableRecord
100
AcDbLayerTableRecord
  2
DIMENSIONS
 70
0
 62
1
420
16711680
  6
Continuous
370
0
390
F
  0
LAYER
  5
61
100
AcDbSymbolTableRecord
100
AcDbLayerTableRecord
  2
VISIBLE
 70
0
 62
7
420
16777215
  6
Continuous
370
0
390
F
  0
LAYER
  5
10
100
AcDbSymbolTableRecord
100
AcDbLayerTableRecord
  2
0
 70
0
 62
7
420
16777215
  6
Continuous
370
25
390
F
  0
LAYER
  5
62
100
AcDbSymbolTableRecord
100
AcDbLayerTableRecord
  2
CONTINUOUS
 70
0
 62
7
420
16777215
  6
Continuous
370
0
390
F
  0
ENDTAB
  0
TABLE
  2
STYLE
  5
3
100
AcDbSymbolTable
 70
32
  0
STYLE
  5
63
100
AcDbSymbolTableRecord
100
AcDbTextStyleTableRecord
  2
Standard
 70
0
 40
0.0
 41
1.0
 50
0.0
 71
0
 42
2.5
  3

  4

1001
ACAD
1000
txt
1071
0
  0
STYLE
  5
64
100
AcDbSymbolTableRecord
100
AcDbTextStyleTableRecord
  2
textstyle0
 70
0
 40
0.0
 41
1.0
 50
0.0
 71
0
 42
2.4995541401273882
  3

  4

1001
ACAD
1000
standard
1071
0
  0
STYLE
  5
65
100
AcDbSymbolTableRecord
100
AcDbTextStyleTableRecord
  2
textstyle1
 70
0
 40
0.0
 41
1.0
 50
0.0
 71
0
 42
1.944097664543524
  3

  4

1001
ACAD
1000
standard
1071
0
  0
STYLE
  5
66
100
AcDbSymbolTableRecord
100
AcDbTextStyleTableRecord
  2
textstyle2
 70
0
 40
0.0
 41
1.0
 50
0.0
 71
0
 42
1.944097664543524
  3

  4

1001
ACAD
1000
standard
1071
0
  0
STYLE
  5
67
100
AcDbSymbolTableRecord
100
AcDbTextStyleTableRecord
  2
textstyle3
 70
0
 40
0.0
 41
1.0
 50
0.0
 71
0
 42
1.944097664543524
  3

  4

1001
ACAD
1000
standard
1071
0
  0
STYLE
  5
68
100
AcDbSymbolTableRecord
100
AcDbTextStyleTableRecord
  2
textstyle4
 70
0
 40
0.0
 41
1.0
 50
0.0
 71
0
 42
1.944097664543524
  3

  4

1001
ACAD
1000
standard
1071
0
  0
STYLE
  5
69
100
AcDbSymbolTableRecord
100
AcDbTextStyleTableRecord
  2
textstyle5
 70
0
 40
0.0
 41
1.0
 50
0.0
 71
0
 42
1.944097664543524
  3

  4

1001
ACAD
1000
standard
1071
0
  0
STYLE
  5
6A
100
AcDbSymbolTableRecord
100
AcDbTextStyleTableRecord
  2
textstyle6
 70
0
 40
0.0
 41
1.0
 50
0.0
 71
0
 42
1.944097664543524
  3

  4

1001
ACAD
1000
standard
1071
0
  0
STYLE
  5
6B
100
AcDbSymbolTableRecord
100
AcDbTextStyleTableRecord
  2
textstyle7
 70
0
 40
0.0
 41
1.0
 50
0.0
 71
0
 42
9.8418259023354562
  3

  4

1001
ACAD
1000
standard
1071
0
  0
STYLE
  5
6C
100
AcDbSymbolTableRecord
100
AcDbTextStyleTableRecord
  2
textstyle8
 70
0
 40
0.0
 41
1.0
 50
0.0
 71
0
 42
1.944097664543524
  3

  4

1001
ACAD
1000
standard
1071
0
  0
STYLE
  5
6D
100
AcDbSymbolTableRecord
100
AcDbTextStyleTableRecord
  2
textstyle9
 70
0
 40
0.0
 41
1.0
 50
0.0
 71
0
 42
1.944097664543524
  3

  4

1001
ACAD
1000
standard
1071
0
  0
STYLE
  5
6E
100
AcDbSymbolTableRecord
100
AcDbTextStyleTableRecord
  2
textstyle10
 70
0
 40
0.0
 41
1.0
 50
0.0
 71
0
 42
1.944097664543524
  3

  4

1001
ACAD
1000
standard
1071
0
  0
STYLE
  5
6F
100
AcDbSymbolTableRecord
100
AcDbTextStyleTableRecord
  2
textstyle11
 70
0
 40
0.0
 41
1.0
 50
0.0
 71
0
 42
1.944097664543524
  3

  4

1001
ACAD
1000
standard
1071
0
  0
STYLE
  5
70
100
AcDbSymbolTableRecord
100
AcDbTextStyleTableRecord
  2
textstyle12
 70
0
 40
0.0
 41
1.0
 50
0.0
 71
0
 42
1.944097664543524
  3

  4

1001
ACAD
1000
standard
1071
0
  0
STYLE
  5
71
100
AcDbSymbolTableRecord
100
AcDbTextStyleTableRecord
  2
textstyle13
 70
0
 40
0.0
 41
1.0
 50
0.0
 71
0
 42
1.944097664543524
  3

  4

1001
ACAD
1000
standard
1071
0
  0
STYLE
  5
72
100
AcDbSymbolTableRecord
100
AcDbTextStyleTableRecord
  2
textstyle14
 70
0
 40
0.0
 41
1.0
 50
0.0
 71
0
 42
1.944097664543524
  3

  4

1001
ACAD
1000
standard
1071
0
  0
STYLE
  5
73
100
AcDbSymbolTableRecord
100
AcDbTextStyleTableRecord
  2
textstyle15
 70
0
 40
0.0
 41
1.0
 50
0.0
 71
0
 42
1.944097664543524
  3

  4

1001
ACAD
1000
standard
1071
0
  0
STYLE
  5
74
100
AcDbSymbolTableRecord
100
AcDbTextStyleTableRecord
  2
textstyle16
 70
0
 40
0.0
 41
1.0
 50
0.0
 71
0
 42
1.944097664543524
  3

  4

1001
ACAD
1000
standard
1071
0
  0
STYLE
  5
75
100
AcDbSymbolTableRecord
100
AcDbTextStyleTableRecord
  2
textstyle17
 70
0
 40
0.0
 41
1.0
 50
0.0
 71
0
 42
4.7213800424628447
  3

  4

1001
ACAD
1000
standard
1071
0
  0
STYLE
  5
76
100
AcDbSymbolTableRecord
100
AcDbTextStyleTableRecord
  2
textstyle18
 70
0
 40
0.0
 41
1.0
 50
0.0
 71
0
 42
1.944097664543524
  3

  4

1001
ACAD
1000
standard
1071
0
  0
STYLE
  5
77
100
AcDbSymbolTableRecord
100
AcDbTextStyleTableRecord
  2
textstyle19
 70
0
 40
0.0
 41
1.0
 50
0.0
 71
0
 42
27.3384052842651393
  3

  4

1001
ACAD
1000
standard
1071
0
  0
STYLE
  5
78
100
AcDbSymbolTableRecord
100
AcDbTextStyleTableRecord
  2
textstyle20
 70
0
 40
0.0
 41
1.0
 50
0.0
 71
0
 42
1.944097664543524
  3

  4

1001
ACAD
1000
standard
1071
0
  0
STYLE
  5
79
100
AcDbSymbolTableRecord
100
AcDbTextStyleTableRecord
  2
textstyle21
 70
0
 40
0.0
 41
1.0
 50
0.0
 71
0
 42
3.3327388535031832
  3

  4

1001
ACAD
1000
standard
1071
0
  0
STYLE
  5
7A
100
AcDbSymbolTableRecord
100
AcDbTextStyleTableRecord
  2
textstyle22
 70
0
 40
0.0
 41
1.0
 50
0.0
 71
0
 42
1.944097664543524
  3

  4

1001
ACAD
1000
standard
1071
0
  0
STYLE
  5
7B
100
AcDbSymbolTableRecord
100
AcDbTextStyleTableRecord
  2
textstyle23
 70
0
 40
0.0
 41
1.0
 50
0.0
 71
0
 42
4.7213800424628447
  3

  4

1001
ACAD
1000
standard
1071
0
  0
STYLE
  5
7C
100
AcDbSymbolTableRecord
100
AcDbTextStyleTableRecord
  2
textstyle24
 70
0
 40
0.0
 41
1.0
 50
0.0
 71
0
 42
1.944097664543524
  3

  4

1001
ACAD
1000
standard
1071
0
  0
STYLE
  5
7D
100
AcDbSymbolTableRecord
100
AcDbTextStyleTableRecord
  2
textstyle25
 70
0
 40
0.0
 41
1.0
 50
0.0
 71
0
 42
1.944097664543524
  3

  4

1001
ACAD
1000
standard
1071
0
  0
STYLE
  5
7E
100
AcDbSymbolTableRecord
100
AcDbTextStyleTableRecord
  2
textstyle26
 70
0
 40
0.0
 41
1.0
 50
0.0
 71
0
 42
1.944097664543524
  3

  4

1001
ACAD
1000
standard
1071
0
  0
STYLE
  5
7F
100
AcDbSymbolTableRecord
100
AcDbTextStyleTableRecord
  2
textstyle27
 70
0
 40
0.0
 41
1.0
 50
0.0
 71
0
 42
1.944097664543524
  3

  4

1001
ACAD
1000
standard
1071
0
  0
STYLE
  5
80
100
AcDbSymbolTableRecord
100
AcDbTextStyleTableRecord
  2
textstyle28
 70
0
 40
0.0
 41
1.0
 50
0.0
 71
0
 42
1.944097664543524
  3

  4

1001
ACAD
1000
standard
1071
0
  0
STYLE
  5
81
100
AcDbSymbolTableRecord
100
AcDbTextStyleTableRecord
  2
textstyle29
 70
0
 40
0.0
 41
1.0
 50
0.0
 71
0
 42
2.4995541401273882
  3

  4

1001
ACAD
1000
standard
1071
0
  0
STYLE
  5
82
100
AcDbSymbolTableRecord
100
AcDbTextStyleTableRecord
  2
textstyle30
 70
0
 40
0.0
 41
1.0
 50
0.0
 71
0
 42
1.944097664543524
  3

  4

1001
ACAD
1000
standard
1071
0
  0
ENDTAB
  0
TABLE
  2
VIEW
  5
6
100
AcDbSymbolTable
 70
0
  0
ENDTAB
  0
TABLE
  2
UCS
  5
7
100
AcDbSymbolTable
 70
0
  0
ENDTAB
  0
TABLE
  2
APPID
  5
9
100
AcDbSymbolTable
 70
1
  0
APPID
  5
12
100
AcDbSymbolTableRecord
100
AcDbRegAppTableRecord
  2
ACAD
 70
0
  0
APPID
  5
83
100
AcDbSymbolTableRecord
100
AcDbRegAppTableRecord
  2
QCAD
 70
0
  0
ENDTAB
  0
TABLE
  2
DIMSTYLE
  5
A
100
AcDbSymbolTable
 70
1
100
AcDbDimStyleTable
 71
0
  0
DIMSTYLE
105
27
100
AcDbSymbolTableRecord
100
AcDbDimStyleTableRecord
  2
Standard
 41
2.5
 42
0.625
 43
3.75
 44
1.25
 70
0
 73
0
 74
0
 77
1
 78
8
140
2.5
141
2.5
143
0.03937007874016
147
0.625
171
3
172
1
271
2
272
2
274
3
278
44
283
0
284
8
340
63
  0
ENDTAB
  0
TABLE
  2
BLOCK_RECORD
  5
1
100
AcDbSymbolTable
 70
1
  0
BLOCK_RECORD
  5
1F
100
AcDbSymbolTableRecord
100
AcDbBlockTableRecord
  2
*Model_Space
340
22
  0
BLOCK_RECORD
  5
1B
100
AcDbSymbolTableRecord
100
AcDbBlockTableRecord
  2
*Paper_Space
340
1E
  0
BLOCK_RECORD
  5
23
100
AcDbSymbolTableRecord
100
AcDbBlockTableRecord
  2
*Paper_Space0
340
26
  0
BLOCK_RECORD
  5
84
100
AcDbSymbolTableRecord
100
AcDbBlockTableRecord
  2
BLOCK5
340
0
  0
ENDTAB
  0
ENDSEC
  0
SECTION
  2
BLOCKS
  0
BLOCK
  5
20
100
AcDbEntity
  8
0
100
AcDbBlockBegin
  2
*Model_Space
 70
0
 10
0.0
 20
0.0
 30
0.0
  3
*Model_Space
  1

  0
ENDBLK
  5
21
100
AcDbEntity
  8
0
100
AcDbBlockEnd
  0
BLOCK
  5
1C
100
AcDbEntity
 67
1
  8
0
100
AcDbBlockBegin
  2
*Paper_Space
 70
0
 10
0.0
 20
0.0
 30
0.0
  3
*Paper_Space
  1

  0
ENDBLK
  5
1D
100
AcDbEntity
 67
1
  8
0
100
AcDbBlockEnd
  0
BLOCK
  5
24
100
AcDbEntity
  8
0
100
AcDbBlockBegin
  2
*Paper_Space0
 70
0
 10
0.0
 20
0.0
 30
0.0
  3
*Paper_Space0
  1

  0
ENDBLK
  5
25
100
AcDbEntity
  8
0
100
AcDbBlockEnd
  0
BLOCK
  5
85
100
AcDbEntity
  8
0
100
AcDbBlockBegin
  2
BLOCK5
 70
0
 10
0.0
 20
0.0
 30
0.0
  3
BLOCK5
  1

  0
LINE
  5
86
100
AcDbEntity
100
AcDbLine
  8
CONTINUOUS
 62
256
370
-1
 48
1.0
  6
BYLAYER
 10
0.0
 20
0.0
 30
0.0
 11
825.5
 21
0.0
 31
0.0
  0
LINE
  5
87
100
AcDbEntity
100
AcDbLine
  8
CONTINUOUS
 62
256
370
-1
 48
1.0
  6
BYLAYER
 10
825.5
 20
533.3999999999999773
 30
0.0
 11
0.0
 21
533.3999999999999773
 31
0.0
  0
LINE
  5
88
100
AcDbEntity
100
AcDbLine
  8
CONTINUOUS
 62
256
370
-1
 48
1.0
  6
BYLAYER
 10
0.0
 20
533.3999999999999773
 30
0.0
 11
0.0
 21
0.0
 31
0.0
  0
LINE
  5
89
100
AcDbEntity
100
AcDbLine
  8
CONTINUOUS
 62
256
370
-1
 48
1.0
  6
BYLAYER
 10
825.5
 20
0.0
 30
0.0
 11
825.5
 21
533.3999999999999773
 31
0.0
  0
LINE
  5
8A
100
AcDbEntity
100
AcDbLine
  8
CONTINUOUS
 62
256
370
-1
 48
1.0
  6
BYLAYER
 10
825.5
 20
3.1749999999999998
 30
0.0
 11
825.5
 21
12.6999999999999957
 31
0.0
  0
LINE
  5
8B
100
AcDbEntity
100
AcDbLine
  8
CONTINUOUS
 62
256
370
-1
 48
1.0
  6
BYLAYER
 10
825.5
 20
520.6999999999999318
 30
0.0
 11
825.5
 21
530.2250000000000227
 31
0.0
  0
LINE
  5
8C
100
AcDbEntity
100
AcDbLine
  8
CONTINUOUS
 62
256
370
-1
 48
1.0
  6
BYLAYER
 10
666.75
 20
44.4499999999999957
 30
0.0
 11
825.5
 21
44.4499999999999957
 31
0.0
  0
LINE
  5
8D
100
AcDbEntity
100
AcDbLine
  8
CONTINUOUS
 62
256
370
-1
 48
1.0
  6
BYLAYER
 10
717.5499999999999545
 20
6.3499999999999996
 30
0.0
 11
825.5
 21
6.3499999999999996
 31
0.0
  0
LINE
  5
8E
100
AcDbEntity
100
AcDbLine
  8
CONTINUOUS
 62
256
370
-1
 48
1.0
  6
BYLAYER
 10
666.75
 20
0.0
 30
0.0
 11
666.75
 21
44.4499999999999957
 31
0.0
  0
LINE
  5
8F
100
AcDbEntity
100
AcDbLine
  8
CONTINUOUS
 62
256
370
-1
 48
1.0
  6
BYLAYER
 10
717.5499999999999545
 20
0.0
 30
0.0
 11
717.5499999999999545
 21
44.4499999999999957
 31
0.0
  0
LINE
  5
90
100
AcDbEntity
100
AcDbLine
  8
CONTINUOUS
 62
256
370
-1
 48
1.0
  6
BYLAYER
 10
727.2019999999998845
 20
6.3499999999999996
 30
0.0
 11
727.2019999999998845
 21
16.0019999999999953
 31
0.0
  0
LINE
  5
91
100
AcDbEntity
100
AcDbLine
  8
CONTINUOUS
 62
256
370
-1
 48
1.0
  6
BYLAYER
 10
742.9499999999999318
 20
0.0
 30
0.0
 11
742.9499999999999318
 21
6.3499999999999996
 31
0.0
  0
LINE
  5
92
100
AcDbEntity
100
AcDbLine
  8
CONTINUOUS
 62
256
370
-1
 48
1.0
  6
BYLAYER
 10
755.6499999999999773
 20
6.3499999999999996
 30
0.0
 11
755.6499999999999773
 21
16.0019999999999953
 31
0.0
  0
LINE
  5
93
100
AcDbEntity
100
AcDbLine
  8
CONTINUOUS
 62
256
370
-1
 48
1.0
  6
BYLAYER
 10
781.0499999999999545
 20
0.0
 30
0.0
 11
781.0499999999999545
 21
6.3499999999999996
 31
0.0
  0
LINE
  5
94
100
AcDbEntity
100
AcDbLine
  8
CONTINUOUS
 62
256
370
-1
 48
1.0
  6
BYLAYER
 10
815.8479999999998427
 20
6.3499999999999996
 30
0.0
 11
815.8479999999998427
 21
16.0019999999999953
 31
0.0
  0
LINE
  5
95
100
AcDbEntity
100
AcDbLine
  8
CONTINUOUS
 62
256
370
-1
 48
1.0
  6
BYLAYER
 10
666.75
 20
26.1978141784667997
 30
0.0
 11
717.5499999999999545
 21
26.1978141784667997
 31
0.0
  0
LINE
  5
96
100
AcDbEntity
100
AcDbLine
  8
CONTINUOUS
 62
256
370
-1
 48
1.0
  6
BYLAYER
 10
666.75
 20
17.1505310058593992
 30
0.0
 11
717.5499999999999545
 21
17.1505310058593992
 31
0.0
  0
LINE
  5
97
100
AcDbEntity
100
AcDbLine
  8
CONTINUOUS
 62
256
370
-1
 48
1.0
  6
BYLAYER
 10
666.75
 20
8.734456253051798
 30
0.0
 11
717.5499999999999545
 21
8.734456253051798
 31
0.0
  0
LINE
  5
98
100
AcDbEntity
100
AcDbLine
  8
CONTINUOUS
 62
256
370
-1
 48
1.0
  6
BYLAYER
 10
717.5499999999999545
 20
16.0019999999999953
 30
0.0
 11
825.5
 21
16.0019999999999953
 31
0.0
  0
LINE
  5
99
100
AcDbEntity
100
AcDbLine
  8
CONTINUOUS
 62
256
370
-1
 48
1.0
  6
BYLAYER
 10
666.75
 20
35.2450935363769986
 30
0.0
 11
717.5499999999999545
 21
35.2450935363769986
 31
0.0
  0
LINE
  5
9A
100
AcDbEntity
100
AcDbLine
  8
CONTINUOUS
 62
256
370
-1
 48
1.0
  6
BYLAYER
 10
692.0571105957029658
 20
44.4499999999999957
 30
0.0
 11
692.0571105957029658
 21
0.0
 31
0.0
  0
LINE
  5
9B
100
AcDbEntity
100
AcDbLine
  8
CONTINUOUS
 62
256
370
-1
 48
1.0
  6
BYLAYER
 10
825.5
 20
0.0
 30
0.0
 11
825.5
 21
44.4499999999999957
 31
0.0
  0
MTEXT
  5
9C
100
AcDbEntity
100
AcDbMText
  8
CONTINUOUS
 62
256
370
-1
 48
1.0
  6
BYLAYER
 10
759.1194458007810226
 20
10.4063245773327093
 30
0.0
 40
2.4995541401273882
 41
0.0
 71
4
 72
1
  1
{\fArial|b0|i0|c0|p0;\C7;ring 3a, 3b, 3c, 3d}{\fArial|b0|i0|c0|p0;\C7;}
  7
textstyle0
 50
0.0
 73
1
 44
1.0
  0
MTEXT
  5
9D
100
AcDbEntity
100
AcDbMText
  8
CONTINUOUS
 62
256
370
-1
 48
1.0
  6
BYLAYER
 10
757.5300449999999728
 20
14.3529440000002086
 30
0.0
 40
1.944097664543524
 41
0.0
 71
4
 72
1
  1
{\fArial|b0|i0|c0|p0;\C7;DWG NO.}{\fArial|b0|i0|c0|p0;\C7;}
  7
textstyle1
 50
0.0
 73
1
 44
1.0
  0
MTEXT
  5
9E
100
AcDbEntity
100
AcDbMText
  8
CONTINUOUS
 62
256
370
-1
 48
1.0
  6
BYLAYER
 10
668.6492126464850116
 20
15.2564338684094274
 30
0.0
 40
1.944097664543524
 41
0.0
 71
4
 72
1
  1
{\fArial|b0|i0|c0|p0;\C7;MFG}{\fArial|b0|i0|c0|p0;\C7;}
  7
textstyle2
 50
0.0
 73
1
 44
1.0
  0
MTEXT
  5
9F
100
AcDbEntity
100
AcDbMText
  8
CONTINUOUS
 62
256
370
-1
 48
1.0
  6
BYLAYER
 10
729.0287049999999454
 20
14.3529440000036033
 30
0.0
 40
1.944097664543524
 41
0.0
 71
4
 72
1
  1
{\fArial|b0|i0|c0|p0;\C7;FSCM NO.}{\fArial|b0|i0|c0|p0;\C7;}
  7
textstyle3
 50
0.0
 73
1
 44
1.0
  0
MTEXT
  5
A0
100
AcDbEntity
100
AcDbMText
  8
CONTINUOUS
 62
256
370
-1
 48
1.0
  6
BYLAYER
 10
729.0287049999999454
 20
14.3529440000036033
 30
0.0
 40
1.944097664543524
 41
0.0
 71
4
 72
1
  1
{\fArial|b0|i0|c0|p0;\C7;FSCM NO.}{\fArial|b0|i0|c0|p0;\C7;}
  7
textstyle4
 50
0.0
 73
1
 44
1.0
  0
MTEXT
  5
A1
100
AcDbEntity
100
AcDbMText
  8
CONTINUOUS
 62
256
370
-1
 48
1.0
  6
BYLAYER
 10
718.9550649999999905
 20
3.5985840000087621
 30
0.0
 40
1.944097664543524
 41
0.0
 71
4
 72
1
  1
{\fArial|b0|i0|c0|p0;\C7;SCALE}{\fArial|b0|i0|c0|p0;\C7;}
  7
textstyle5
 50
0.0
 73
1
 44
1.0
  0
MTEXT
  5
A2
100
AcDbEntity
100
AcDbMText
  8
CONTINUOUS
 62
256
370
-1
 48
1.0
  6
BYLAYER
 10
693.6689270019528522
 20
42.5747932434082372
 30
0.0
 40
1.944097664543524
 41
0.0
 71
4
 72
1
  1
{\fArial|b0|i0|c0|p0;\C7;DATE}{\fArial|b0|i0|c0|p0;\C7;}
  7
textstyle6
 50
0.0
 73
1
 44
1.0
  0
MTEXT
  5
A3
100
AcDbEntity
100
AcDbMText
  8
CONTINUOUS
 62
256
370
-1
 48
1.0
  6
BYLAYER
 10
728.0048156738279204
 20
30.0963489532453252
 30
0.0
 40
9.8418259023354562
 41
0.0
 71
4
 72
1
  1
{\fTimes New Roman|b0|i0|c0|p0;\C7;M}{\fTimes New Roman|b0|i0|c0|p0;\C7;\H0.5555556x;edia}{\fMS Shell Dlg|b0|i0|c0|p0;\C7;\H0.25x;}
  7
textstyle7
 50
0.0
 73
1
 44
1.0
  0
MTEXT
  5
A4
100
AcDbEntity
100
AcDbMText
  8
CONTINUOUS
 62
256
370
-1
 48
1.0
  6
BYLAYER
 10
757.5300449999999728
 20
14.3529440000002086
 30
0.0
 40
1.944097664543524
 41
0.0
 71
4
 72
1
  1
{\fArial|b0|i0|c0|p0;\C7;DWG NO.}{\fArial|b0|i0|c0|p0;\C7;}
  7
textstyle8
 50
0.0
 73
1
 44
1.0
  0
MTEXT
  5
A5
100
AcDbEntity
100
AcDbMText
  8
CONTINUOUS
 62
256
370
-1
 48
1.0
  6
BYLAYER
 10
668.3093994140631366
 20
42.7303756713866889
 30
0.0
 40
1.944097664543524
 41
0.0
 71
4
 72
1
  1
{\fArial|b0|i0|c0|p0;\C7;DRAWN}{\fArial|b0|i0|c0|p0;\C7;}
  7
textstyle9
 50
0.0
 73
1
 44
1.0
  0
MTEXT
  5
A6
100
AcDbEntity
100
AcDbMText
  8
CONTINUOUS
 62
256
370
-1
 48
1.0
  6
BYLAYER
 10
668.6492126464850116
 20
15.2564338684094274
 30
0.0
 40
1.944097664543524
 41
0.0
 71
4
 72
1
  1
{\fArial|b0|i0|c0|p0;\C7;MFG}{\fArial|b0|i0|c0|p0;\C7;}
  7
textstyle10
 50
0.0
 73
1
 44
1.0
  0
MTEXT
  5
A7
100
AcDbEntity
100
AcDbMText
  8
CONTINUOUS
 62
256
370
-1
 48
1.0
  6
BYLAYER
 10
817.9693450000000894
 20
14.3529440000014183
 30
0.0
 40
1.944097664543524
 41
0.0
 71
4
 72
1
  1
{\fArial|b0|i0|c0|p0;\C7;REV}{\fArial|b0|i0|c0|p0;\C7;}
  7
textstyle11
 50
0.0
 73
1
 44
1.0
  0
MTEXT
  5
A8
100
AcDbEntity
100
AcDbMText
  8
CONTINUOUS
 62
256
370
-1
 48
1.0
  6
BYLAYER
 10
668.4535034179690456
 20
33.4288848876956592
 30
0.0
 40
1.944097664543524
 41
0.0
 71
4
 72
1
  1
{\fArial|b0|i0|c0|p0;\C7;CHECKED}{\fArial|b0|i0|c0|p0;\C7;}
  7
textstyle12
 50
0.0
 73
1
 44
1.0
  0
MTEXT
  5
A9
100
AcDbEntity
100
AcDbMText
  8
CONTINUOUS
 62
256
370
-1
 48
1.0
  6
BYLAYER
 10
668.7108276367190456
 20
6.7795242309578496
 30
0.0
 40
1.944097664543524
 41
0.0
 71
4
 72
1
  1
{\fArial|b0|i0|c0|p0;\C7;APPROVED}{\fArial|b0|i0|c0|p0;\C7;}
  7
textstyle13
 50
0.0
 73
1
 44
1.0
  0
MTEXT
  5
AA
100
AcDbEntity
100
AcDbMText
  8
CONTINUOUS
 62
256
370
-1
 48
1.0
  6
BYLAYER
 10
817.9693450000000894
 20
14.3529440000014183
 30
0.0
 40
1.944097664543524
 41
0.0
 71
4
 72
1
  1
{\fArial|b0|i0|c0|p0;\C7;REV}{\fArial|b0|i0|c0|p0;\C7;}
  7
textstyle14
 50
0.0
 73
1
 44
1.0
  0
MTEXT
  5
AB
100
AcDbEntity
100
AcDbMText
  8
CONTINUOUS
 62
256
370
-1
 48
1.0
  6
BYLAYER
 10
668.4535034179690456
 20
33.4288848876956592
 30
0.0
 40
1.944097664543524
 41
0.0
 71
4
 72
1
  1
{\fArial|b0|i0|c0|p0;\C7;CHECKED}{\fArial|b0|i0|c0|p0;\C7;}
  7
textstyle15
 50
0.0
 73
1
 44
1.0
  0
MTEXT
  5
AC
100
AcDbEntity
100
AcDbMText
  8
CONTINUOUS
 62
256
370
-1
 48
1.0
  6
BYLAYER
 10
782.4677649999999858
 20
3.5985839999858333
 30
0.0
 40
1.944097664543524
 41
0.0
 71
4
 72
1
  1
{\fArial|b0|i0|c0|p0;\C7;SHEET}{\fArial|b0|i0|c0|p0;\C7;}
  7
textstyle16
 50
0.0
 73
1
 44
1.0
  0
MTEXT
  5
AD
100
AcDbEntity
100
AcDbMText
  8
CONTINUOUS
 62
256
370
-1
 48
1.0
  6
BYLAYER
 10
720.2830627441398974
 20
10.3825477600099507
 30
0.0
 40
4.7213800424628447
 41
0.0
 71
4
 72
1
  1
{\fArial|b0|i0|c0|p0;\C7;C}{\fArial|b0|i0|c0|p0;\C7;}
  7
textstyle17
 50
0.0
 73
1
 44
1.0
  0
MTEXT
  5
AE
100
AcDbEntity
100
AcDbMText
  8
CONTINUOUS
 62
256
370
-1
 48
1.0
  6
BYLAYER
 10
668.4893920898441593
 20
24.4958976745608652
 30
0.0
 40
1.944097664543524
 41
0.0
 71
4
 72
1
  1
{\fArial|b0|i0|c0|p0;\C7;QA}{\fArial|b0|i0|c0|p0;\C7;}
  7
textstyle18
 50
0.0
 73
1
 44
1.0
  0
MTEXT
  5
AF
100
AcDbEntity
100
AcDbMText
  8
CONTINUOUS
 62
256
370
-1
 48
1.0
  6
BYLAYER
 10
721.2199707031248863
 20
30.9902050018309758
 30
0.0
 40
27.3384052842651393
 41
0.0
 71
4
 72
1
  1
{\fTimes New Roman|b0|i0|c0|p0;\C7;C}{\fTimes New Roman|b0|i0|c0|p0;\C7;\H0.36x;onversions}{\fMS Shell Dlg|b0|i0|c0|p0;\C7;\H0.09x;}
  7
textstyle19
 50
0.0
 73
1
 44
1.0
  0
MTEXT
  5
B0
100
AcDbEntity
100
AcDbMText
  8
CONTINUOUS
 62
256
370
-1
 48
1.0
  6
BYLAYER
 10
719.8593049999999494
 20
14.3529440000023172
 30
0.0
 40
1.944097664543524
 41
0.0
 71
4
 72
1
  1
{\fArial|b0|i0|c0|p0;\C7;SIZE}{\fArial|b0|i0|c0|p0;\C7;}
  7
textstyle20
 50
0.0
 73
1
 44
1.0
  0
MTEXT
  5
B1
100
AcDbEntity
100
AcDbMText
  8
CONTINUOUS
 62
256
370
-1
 48
1.0
  6
BYLAYER
 10
671.4559326171880684
 20
48.7333709716799461
 30
0.0
 40
3.3327388535031832
 41
0.0
 71
4
 72
1
  1
{\fArial|b0|i0|c0|p0;\C1;Copyright Media-Conversions - Released for non-commercial use ONLY!}{\fMS Shell Dlg|b0|i0|c0|p0;\C7;\H0.75x;}
  7
textstyle21
 50
0.0
 73
1
 44
1.0
  0
MTEXT
  5
B2
100
AcDbEntity
100
AcDbMText
  8
CONTINUOUS
 62
256
370
-1
 48
1.0
  6
BYLAYER
 10
668.4893920898441593
 20
24.4958976745608652
 30
0.0
 40
1.944097664543524
 41
0.0
 71
4
 72
1
  1
{\fArial|b0|i0|c0|p0;\C7;QA}{\fArial|b0|i0|c0|p0;\C7;}
  7
textstyle22
 50
0.0
 73
1
 44
1.0
  0
MTEXT
  5
B3
100
AcDbEntity
100
AcDbMText
  8
CONTINUOUS
 62
256
370
-1
 48
1.0
  6
BYLAYER
 10
720.2830627441398974
 20
10.3825477600099507
 30
0.0
 40
4.7213800424628447
 41
0.0
 71
4
 72
1
  1
{\fArial|b0|i0|c0|p0;\C7;C}{\fArial|b0|i0|c0|p0;\C7;}
  7
textstyle23
 50
0.0
 73
1
 44
1.0
  0
MTEXT
  5
B4
100
AcDbEntity
100
AcDbMText
  8
CONTINUOUS
 62
256
370
-1
 48
1.0
  6
BYLAYER
 10
782.4677649999999858
 20
3.5985839999858333
 30
0.0
 40
1.944097664543524
 41
0.0
 71
4
 72
1
  1
{\fArial|b0|i0|c0|p0;\C7;SHEET}{\fArial|b0|i0|c0|p0;\C7;}
  7
textstyle24
 50
0.0
 73
1
 44
1.0
  0
MTEXT
  5
B5
100
AcDbEntity
100
AcDbMText
  8
CONTINUOUS
 62
256
370
-1
 48
1.0
  6
BYLAYER
 10
668.3093994140631366
 20
42.7303756713866889
 30
0.0
 40
1.944097664543524
 41
0.0
 71
4
 72
1
  1
{\fArial|b0|i0|c0|p0;\C7;DRAWN}{\fArial|b0|i0|c0|p0;\C7;}
  7
textstyle25
 50
0.0
 73
1
 44
1.0
  0
MTEXT
  5
B6
100
AcDbEntity
100
AcDbMText
  8
CONTINUOUS
 62
256
370
-1
 48
1.0
  6
BYLAYER
 10
718.9550649999999905
 20
3.5985840000087621
 30
0.0
 40
1.944097664543524
 41
0.0
 71
4
 72
1
  1
{\fArial|b0|i0|c0|p0;\C7;SCALE}{\fArial|b0|i0|c0|p0;\C7;}
  7
textstyle26
 50
0.0
 73
1
 44
1.0
  0
MTEXT
  5
B7
100
AcDbEntity
100
AcDbMText
  8
CONTINUOUS
 62
256
370
-1
 48
1.0
  6
BYLAYER
 10
719.8593049999999494
 20
14.3529440000023172
 30
0.0
 40
1.944097664543524
 41
0.0
 71
4
 72
1
  1
{\fArial|b0|i0|c0|p0;\C7;SIZE}{\fArial|b0|i0|c0|p0;\C7;}
  7
textstyle27
 50
0.0
 73
1
 44
1.0
  0
MTEXT
  5
B8
100
AcDbEntity
100
AcDbMText
  8
CONTINUOUS
 62
256
370
-1
 48
1.0
  6
BYLAYER
 10
693.6689270019528522
 20
42.5747932434082372
 30
0.0
 40
1.944097664543524
 41
0.0
 71
4
 72
1
  1
{\fArial|b0|i0|c0|p0;\C7;DATE}{\fArial|b0|i0|c0|p0;\C7;}
  7
textstyle28
 50
0.0
 73
1
 44
1.0
  0
MTEXT
  5
B9
100
AcDbEntity
100
AcDbMText
  8
CONTINUOUS
 62
256
370
-1
 48
1.0
  6
BYLAYER
 10
694.0596923828129547
 20
39.6550971984868568
 30
0.0
 40
2.4995541401273882
 41
0.0
 71
4
 72
1
  1
{\fArial|b0|i0|c0|p0;\C7;05/06/2011}{\fArial|b0|i0|c0|p0;\C7;}
  7
textstyle29
 50
0.0
 73
1
 44
1.0
  0
MTEXT
  5
BA
100
AcDbEntity
100
AcDbMText
  8
CONTINUOUS
 62
256
370
-1
 48
1.0
  6
BYLAYER
 10
668.7108276367190456
 20
6.7795242309578496
 30
0.0
 40
1.944097664543524
 41
0.0
 71
4
 72
1
  1
{\fArial|b0|i0|c0|p0;\C7;APPROVED}{\fArial|b0|i0|c0|p0;\C7;}
  7
textstyle30
 50
0.0
 73
1
 44
1.0
  0
ENDBLK
  5
BB
100
AcDbEntity
  8
0
100
AcDbBlockEnd
  0
ENDSEC
  0
SECTION
  2
ENTITIES
  0
ARC
  5
BC
100
AcDbEntity
  8
VISIBLE
 62
256
370
-1
 48
1.0
  6
BYLAYER
100
AcDbCircle
 10
-44.9256515723631935
 20
0.7545300025425519
 30
0.0
 40
1.5
100
AcDbArc
 50
192.7400000148732602
 51
12.7376402132773645
  0
ARC
  5
BD
100
AcDbEntity
  8
VISIBLE
 62
256
370
-1
 48
1.0
  6
BYLAYER
100
AcDbCircle
 10
-129.4704875326950742
 20
151.322865319967832
 30
0.0
 40
1.5
100
AcDbArc
 50
220.5453332238978703
 51
40.5499999955382577
  0
ARC
  5
BE
100
AcDbEntity
  8
VISIBLE
 62
256
370
-1
 48
1.0
  6
BYLAYER
100
AcDbCircle
 10
129.4704875336394707
 20
151.322865319967832
 30
0.0
 40
1.5
100
AcDbArc
 50
139.450000021186213
 51
319.4451334584123856
  0
ARC
  5
BF
100
AcDbEntity
  8
VISIBLE
 62
256
370
-1
 48
1.0
  6
BYLAYER
100
AcDbCircle
 10
42.9108800165039384
 20
0.7545300025425803
 30
0.0
 40
1.5
100
AcDbArc
 50
167.2617578490858534
 51
347.2600000065949075
  0
ARC
  5
C0
100
AcDbEntity
  8
VISIBLE
 62
256
370
-1
 48
1.0
  6
BYLAYER
100
AcDbCircle
 10
-181.5213935175653432
 20
81.9219156300424913
 30
0.0
 40
1.5
100
AcDbArc
 50
245.7088558290249409
 51
65.7100000000361462
  0
ARC
  5
C1
100
AcDbEntity
  8
VISIBLE
 62
256
370
-1
 48
1.0
  6
BYLAYER
100
AcDbCircle
 10
181.5213935185098535
 20
81.9219156300424913
 30
0.0
 40
1.5
100
AcDbArc
 50
114.2899999999659002
 51
294.2884662685730177
  0
LINE
  5
C2
100
AcDbEntity
100
AcDbLine
  8
VISIBLE
 62
256
370
-1
 48
1.0
  6
BYLAYER
 10
130.6101630902801389
 20
150.3476014451177889
 30
0.0
 11
149.8824743613686223
 21
172.872745208978472
 31
0.0
  0
LINE
  5
C3
100
AcDbEntity
100
AcDbLine
  8
VISIBLE
 62
256
370
-1
 48
1.0
  6
BYLAYER
 10
128.3307291404764783
 20
152.2980323935788078
 30
0.0
 11
147.6029575802948557
 21
174.8230793456849597
 31
0.0
  0
LINE
  5
C4
100
AcDbEntity
100
AcDbLine
  8
VISIBLE
 62
256
370
-1
 48
1.0
  6
BYLAYER
 10
180.9043605941132
 20
83.2891282586489297
 30
0.0
 11
207.9245862568636767
 21
95.4835510643679299
 31
0.0
  0
LINE
  5
C5
100
AcDbEntity
100
AcDbLine
  8
VISIBLE
 62
256
370
-1
 48
1.0
  6
BYLAYER
 10
182.1383898435220772
 20
80.5546864850476254
 30
0.0
 11
209.1586521113636081
 21
92.7491258109083674
 31
0.0
  0
CIRCLE
  5
C6
100
AcDbEntity
100
AcDbCircle
  8
VISIBLE
 62
256
370
-1
 48
1.0
  6
BYLAYER
 10
-68.9926139046137337
 20
86.4685118928200609
 30
0.0
 40
1.5874999999999999
  0
ARC
  5
C7
100
AcDbEntity
  8
VISIBLE
 62
256
370
-1
 48
1.0
  6
BYLAYER
100
AcDbCircle
 10
-68.9926139045768991
 20
283.4937718928767367
 30
0.0
 40
169.4992799999984356
100
AcDbArc
 50
257.7670511801316025
 51
282.2329490574254578
  0
LINE
  5
C8
100
AcDbEntity
100
AcDbLine
  8
VISIBLE
 62
256
370
-1
 48
1.0
  6
BYLAYER
 10
153.8712883021602238
 20
-71.0889055974362378
 30
0.0
 11
180.9043608351390731
 21
-83.2891262702151352
 31
0.0
  0
ARC
  5
C9
100
AcDbEntity
  8
VISIBLE
 62
256
370
-1
 48
1.0
  6
BYLAYER
100
AcDbCircle
 10
-68.9926139045759896
 20
283.4937718928825916
 30
0.0
 40
228.8006600000047115
100
AcDbArc
 50
257.6356296109735808
 51
282.3643705594446374
  0
LINE
  5
CA
100
AcDbEntity
100
AcDbLine
  8
VISIBLE
 62
256
370
-1
 48
1.0
  6
BYLAYER
 10
185.0301604902438157
 20
-81.8597613442960039
 30
0.0
 11
209.1586525930219977
 21
-92.7491239129117702
 31
0.0
  0
LINE
  5
CB
100
AcDbEntity
100
AcDbLine
  8
VISIBLE
 62
256
370
-1
 48
1.0
  6
BYLAYER
 10
131.7690202379829998
 20
-40.8338645023589351
 30
0.0
 11
149.2932581370992011
 21
-20.9844708614087239
 31
0.0
  0
LINE
  5
CC
100
AcDbEntity
100
AcDbLine
  8
VISIBLE
 62
256
370
-1
 48
1.0
  6
BYLAYER
 10
112.2933157787786058
 20
-67.4264989628695872
 30
0.0
 11
131.9182372319213528
 21
-45.1976982961197251
 31
0.0
  0
ARC
  5
CD
100
AcDbEntity
  8
VISIBLE
 62
256
370
-1
 48
1.0
  6
BYLAYER
100
AcDbCircle
 10
141.9187571753408292
 20
272.832190245509139
 30
0.0
 40
228.8006599999953607
100
AcDbArc
 50
228.9356293924237775
 51
256.8843703363332338
  0
LINE
  5
CE
100
AcDbEntity
100
AcDbLine
  8
VISIBLE
 62
256
370
-1
 48
1.0
  6
BYLAYER
 10
44.373951254163444
 20
0.4237391990862847
 30
0.0
 11
50.9113705939679448
 21
29.338419125641451
 31
0.0
  0
LINE
  5
CF
100
AcDbEntity
100
AcDbLine
  8
VISIBLE
 62
256
370
-1
 48
1.0
  6
BYLAYER
 10
11.3076667364208561
 20
122.4927095764660407
 30
0.0
 11
11.3076330542867254
 21
122.4926720327968042
 31
0.0
  0
LINE
  5
D0
100
AcDbEntity
100
AcDbLine
  8
VISIBLE
 62
256
370
-1
 48
1.0
  6
BYLAYER
 10
-33.0779464750057173
 20
117.8431075901303302
 30
0.0
 11
-19.9999996777077627
 21
60.0000006873856364
 31
0.0
  0
LINE
  5
D1
100
AcDbEntity
100
AcDbLine
  8
VISIBLE
 62
256
370
-1
 48
1.0
  6
BYLAYER
 10
41.4477986315135922
 20
1.0852759184584073
 30
0.0
 11
47.9852281198925539
 21
30.0000007316525625
 31
0.0
  0
LINE
  5
D2
100
AcDbEntity
100
AcDbLine
  8
VISIBLE
 62
256
370
-1
 48
1.0
  6
BYLAYER
 10
8.9931338468578588
 20
124.5361183162092402
 30
0.0
 11
11.3076667364208561
 21
122.4927095764658134
 31
0.0
  0
LINE
  5
D3
100
AcDbEntity
100
AcDbLine
  8
VISIBLE
 62
256
370
-1
 48
1.0
  6
BYLAYER
 10
106.0040896135769799
 20
107.1815259714271065
 30
0.0
 11
99.4649574428821097
 21
78.2592703295895262
 31
0.0
  0
LINE
  5
D4
100
AcDbEntity
100
AcDbLine
  8
VISIBLE
 62
256
370
-1
 48
1.0
  6
BYLAYER
 10
-104.9072806473349146
 20
117.843107441222628
 30
0.0
 11
-117.9852274666934022
 21
60.0000005416640079
 31
0.0
  0
LINE
  5
D5
100
AcDbEntity
100
AcDbLine
  8
VISIBLE
 62
256
370
-1
 48
1.0
  6
BYLAYER
 10
-43.4625667127011468
 20
1.0852605476098773
 30
0.0
 11
-49.9999996777074784
 21
30.0000006873856364
 31
0.0
  0
LINE
  5
D6
100
AcDbEntity
100
AcDbLine
  8
VISIBLE
 62
256
370
-1
 48
1.0
  6
BYLAYER
 10
95.8393383386977575
 20
75.8271016666939204
 30
0.0
 11
90.0000003222922942
 21
50.0000006873856364
 31
0.0
  0
LINE
  5
D7
100
AcDbEntity
100
AcDbLine
  8
VISIBLE
 62
256
370
-1
 48
1.0
  6
BYLAYER
 10
-46.38872281044695
 20
0.4237391984141681
 30
0.0
 11
-52.9261421511849619
 21
29.3384190787302259
 31
0.0
  0
LINE
  5
D8
100
AcDbEntity
100
AcDbLine
  8
VISIBLE
 62
256
370
-1
 48
1.0
  6
BYLAYER
 10
9.1419221197776892
 20
120.1717989191305946
 30
0.0
 11
-8.3818870536472332
 21
100.3228908996923678
 31
0.0
  0
LINE
  5
D9
100
AcDbEntity
100
AcDbLine
  8
VISIBLE
 62
256
370
-1
 48
1.0
  6
BYLAYER
 10
-133.7842204531223445
 20
-40.8333789696210232
 30
0.0
 11
-151.308029612774277
 21
-20.984470965783558
 31
0.0
  0
LINE
  5
DA
100
AcDbEntity
100
AcDbLine
  8
VISIBLE
 62
256
370
-1
 48
1.0
  6
BYLAYER
 10
96.4534819525420062
 20
78.9401451734629518
 30
0.0
 11
99.4649574428821097
 21
78.2592703295895262
 31
0.0
  0
LINE
  5
DB
100
AcDbEntity
100
AcDbLine
  8
VISIBLE
 62
256
370
-1
 48
1.0
  6
BYLAYER
 10
28.6180553229731913
 20
146.7649189960776539
 30
0.0
 11
8.9931338468578588
 21
124.5361183162092402
 31
0.0
  0
LINE
  5
DC
100
AcDbEntity
100
AcDbLine
  8
VISIBLE
 62
256
370
-1
 48
1.0
  6
BYLAYER
 10
-114.3080872401322381
 20
-67.4264990576621841
 30
0.0
 11
-133.9330087005327243
 21
-45.1976983955937186
 31
0.0
  0
ARC
  5
DD
100
AcDbEntity
  8
VISIBLE
 62
256
370
-1
 48
1.0
  6
BYLAYER
100
AcDbCircle
 10
96.0910517833610811
 20
77.3945188389156442
 30
0.0
 40
1.5874999999999746
100
AcDbArc
 50
73.6433030239617636
 51
260.8766969462911902
  0
ARC
  5
DE
100
AcDbEntity
  8
VISIBLE
 62
256
370
-1
 48
1.0
  6
BYLAYER
100
AcDbCircle
 10
10.2475164197429649
 20
121.3110168499429733
 30
0.0
 40
1.5875000000000532
100
AcDbArc
 50
225.8581332825482946
 51
48.103275297719378
  0
LINE
  5
DF
100
AcDbEntity
100
AcDbLine
  8
VISIBLE
 62
256
370
-1
 48
1.0
  6
BYLAYER
 10
-185.0301604904293526
 20
-81.8597613439959559
 30
0.0
 11
-209.1586525948600581
 21
-92.7491239087681834
 31
0.0
  0
LINE
  5
E0
100
AcDbEntity
100
AcDbLine
  8
VISIBLE
 62
256
370
-1
 48
1.0
  6
BYLAYER
 10
96.4534704377600747
 20
78.9400960673140162
 30
0.0
 11
96.4534819525420062
 21
78.9401451734636339
 31
0.0
  0
LINE
  5
E1
100
AcDbEntity
100
AcDbLine
  8
VISIBLE
 62
256
370
-1
 48
1.0
  6
BYLAYER
 10
-153.871288300132619
 20
-71.088905601829282
 30
0.0
 11
-180.9043608351088324
 21
-83.2891262703677597
 31
0.0
  0
ARC
  5
E2
100
AcDbEntity
  8
VISIBLE
 62
256
370
-1
 48
1.0
  6
BYLAYER
100
AcDbCircle
 10
141.9187571753403745
 20
272.8321902455104464
 30
0.0
 40
169.4992799999960198
100
AcDbArc
 50
228.052948749149067
 51
257.7670508968512877
  0
LINE
  5
E3
100
AcDbEntity
100
AcDbLine
  8
VISIBLE
 62
256
370
-1
 48
1.0
  6
BYLAYER
 10
-182.13845374375137
 20
80.554715323848427
 30
0.0
 11
-209.1586521132007874
 21
92.7491258067644253
 31
0.0
  0
ARC
  5
E4
100
AcDbEntity
  8
VISIBLE
 62
256
370
-1
 48
1.0
  6
BYLAYER
100
AcDbCircle
 10
0.0000000000046043
 20
0.0000004059147471
 30
0.0
 40
228.8006599999879711
100
AcDbArc
 50
49.825629640965424
 51
51.7041365920551215
  0
LINE
  5
E5
100
AcDbEntity
100
AcDbLine
  8
VISIBLE
 62
256
370
-1
 48
1.0
  6
BYLAYER
 10
-180.9043605934821812
 20
83.2891282585304111
 30
0.0
 11
-207.9245862587559941
 21
95.4835510602488284
 31
0.0
  0
LINE
  5
E6
100
AcDbEntity
100
AcDbLine
  8
VISIBLE
 62
256
370
-1
 48
1.0
  6
BYLAYER
 10
201.167999999962376
 20
-12.6999995941544199
 30
0.0
 11
201.167999999962376
 21
-38.099999594154454
 31
0.0
  0
LINE
  5
E7
100
AcDbEntity
100
AcDbLine
  8
VISIBLE
 62
256
370
-1
 48
1.0
  6
BYLAYER
 10
-149.8824743676958064
 20
172.8727452034939915
 30
0.0
 11
-130.6103253455543722
 21
150.3477910867035803
 31
0.0
  0
LINE
  5
E8
100
AcDbEntity
100
AcDbLine
  8
VISIBLE
 62
256
370
-1
 48
1.0
  6
BYLAYER
 10
-147.6029575866931225
 20
174.8230793402836412
 30
0.0
 11
-128.3307291401493444
 21
152.2980323936268974
 31
0.0
  0
LINE
  5
E9
100
AcDbEntity
100
AcDbLine
  8
VISIBLE
 62
256
370
-1
 48
1.0
  6
BYLAYER
 10
141.795909497163791
 20
179.5714675289949014
 30
0.0
 11
123.4903029820281972
 21
156.0791548801916235
 31
0.0
  0
ARC
  5
EA
100
AcDbEntity
  8
VISIBLE
 62
256
370
-1
 48
1.0
  6
BYLAYER
100
AcDbCircle
 10
-199.5805000000356131
 20
-12.6999995941544199
 30
0.0
 40
1.5874999999999999
100
AcDbArc
 50
90.0
 51
180.0
  0
LINE
  5
EB
100
AcDbEntity
100
AcDbLine
  8
VISIBLE
 62
256
370
-1
 48
1.0
  6
BYLAYER
 10
121.1263943741558649
 20
157.9211523650862432
 30
0.0
 11
102.9807465651900884
 21
134.6290156938217706
 31
0.0
  0
ARC
  5
EC
100
AcDbEntity
  8
VISIBLE
 62
256
370
-1
 48
1.0
  6
BYLAYER
100
AcDbCircle
 10
-199.5805000000356131
 20
-38.099999594154454
 30
0.0
 40
1.587499999999977
100
AcDbArc
 50
180.0
 51
270.0
  0
LINE
  5
ED
100
AcDbEntity
100
AcDbLine
  8
VISIBLE
 62
256
370
-1
 48
1.0
  6
BYLAYER
 10
-121.1265468793476145
 20
157.9213481133237167
 30
0.0
 11
-102.9807465624706566
 21
134.6290156959033766
 31
0.0
  0
ARC
  5
EE
100
AcDbEntity
  8
VISIBLE
 62
256
370
-1
 48
1.0
  6
BYLAYER
100
AcDbCircle
 10
196.7554999999623533
 20
38.1000004058455488
 30
0.0
 40
1.5874999999999999
100
AcDbArc
 50
90.0
 51
180.0
  0
LINE
  5
EF
100
AcDbEntity
100
AcDbLine
  8
VISIBLE
 62
256
370
-1
 48
1.0
  6
BYLAYER
 10
-141.7959094927920205
 20
179.5714674963770108
 30
0.0
 11
-123.4904652263162461
 21
156.0793444957779172
 31
0.0
  0
LINE
  5
F0
100
AcDbEntity
100
AcDbLine
  8
VISIBLE
 62
256
370
-1
 48
1.0
  6
BYLAYER
 10
-201.1680000000355903
 20
-38.099999594154454
 30
0.0
 11
-201.1680000000355903
 21
-12.6999995941544199
 31
0.0
  0
LINE
  5
F1
100
AcDbEntity
100
AcDbLine
  8
VISIBLE
 62
256
370
-1
 48
1.0
  6
BYLAYER
 10
201.167999999962376
 20
38.1000004058455488
 30
0.0
 11
201.167999999962376
 21
12.700000405845671
 31
0.0
  0
ARC
  5
F2
100
AcDbEntity
  8
VISIBLE
 62
256
370
-1
 48
1.0
  6
BYLAYER
100
AcDbCircle
 10
-196.7555000000355676
 20
12.700000405845671
 30
0.0
 40
1.5874999999999999
100
AcDbArc
 50
270.0
 51
0.0
  0
ARC
  5
F3
100
AcDbEntity
  8
VISIBLE
 62
256
370
-1
 48
1.0
  6
BYLAYER
100
AcDbCircle
 10
199.5804999999623988
 20
12.700000405845671
 30
0.0
 40
1.5874999999999999
100
AcDbArc
 50
270.0
 51
0.0
  0
ARC
  5
F4
100
AcDbEntity
  8
VISIBLE
 62
256
370
-1
 48
1.0
  6
BYLAYER
100
AcDbCircle
 10
-196.7555000000355392
 20
-12.6999995941544199
 30
0.0
 40
1.587499999999977
100
AcDbArc
 50
0.0
 51
90.0
  0
LINE
  5
F5
100
AcDbEntity
100
AcDbLine
  8
VISIBLE
 62
256
370
-1
 48
1.0
  6
BYLAYER
 10
-196.7555000000355676
 20
11.1125004058455801
 30
0.0
 11
-199.5805000000356131
 21
11.1125004058455801
 31
0.0
  0
ARC
  5
F6
100
AcDbEntity
  8
VISIBLE
 62
256
370
-1
 48
1.0
  6
BYLAYER
100
AcDbCircle
 10
196.7554999999623533
 20
-38.0999995941544398
 30
0.0
 40
1.5874999999999999
100
AcDbArc
 50
180.0
 51
270.0
  0
LINE
  5
F7
100
AcDbEntity
100
AcDbLine
  8
VISIBLE
 62
256
370
-1
 48
1.0
  6
BYLAYER
 10
-182.1744200288045477
 20
-80.47494747747335
 30
0.0
 11
-180.9043608351088324
 21
-83.2891262703677597
 31
0.0
  0
ARC
  5
F8
100
AcDbEntity
  8
VISIBLE
 62
256
370
-1
 48
1.0
  6
BYLAYER
100
AcDbCircle
 10
199.5804999999623988
 20
-12.6999995941544199
 30
0.0
 40
1.5874999999999999
100
AcDbArc
 50
0.0
 51
90.0
  0
LINE
  5
F9
100
AcDbEntity
100
AcDbLine
  8
VISIBLE
 62
256
370
-1
 48
1.0
  6
BYLAYER
 10
180.9043608351391867
 20
-83.2891262702151494
 30
0.0
 11
182.1744200286814248
 21
-80.4749474776610469
 31
0.0
  0
LINE
  5
FA
100
AcDbEntity
100
AcDbLine
  8
VISIBLE
 62
256
370
-1
 48
1.0
  6
BYLAYER
 10
196.7554999999623533
 20
-11.112499594154329
 30
0.0
 11
199.5804999999623988
 21
-11.112499594154329
 31
0.0
  0
LINE
  5
FB
100
AcDbEntity
100
AcDbLine
  8
VISIBLE
 62
256
370
-1
 48
1.0
  6
BYLAYER
 10
-196.7555002688256991
 20
-39.6874995941544313
 30
0.0
 11
-199.5805000000356131
 21
-39.6874995941544313
 31
0.0
  0
LINE
  5
FC
100
AcDbEntity
100
AcDbLine
  8
VISIBLE
 62
256
370
-1
 48
1.0
  6
BYLAYER
 10
-199.5805000000356131
 20
-11.112499594154329
 30
0.0
 11
-196.7555000000355392
 21
-11.112499594154329
 31
0.0
  0
ARC
  5
FD
100
AcDbEntity
  8
VISIBLE
 62
256
370
-1
 48
1.0
  6
BYLAYER
100
AcDbCircle
 10
199.5804999999623988
 20
38.1000004058455488
 30
0.0
 40
1.5874999999999999
100
AcDbArc
 50
0.0
 51
90.0
  0
ARC
  5
FE
100
AcDbEntity
  8
VISIBLE
 62
256
370
-1
 48
1.0
  6
BYLAYER
100
AcDbCircle
 10
196.7554999999623533
 20
12.700000405845671
 30
0.0
 40
1.5874999999999999
100
AcDbArc
 50
180.0
 51
270.0
  0
LINE
  5
FF
100
AcDbEntity
100
AcDbLine
  8
VISIBLE
 62
256
370
-1
 48
1.0
  6
BYLAYER
 10
-199.5805000000356131
 20
39.6875004058456398
 30
0.0
 11
-196.7555000000355392
 21
39.6875004058456398
 31
0.0
  0
ARC
  5
100
100
AcDbEntity
  8
VISIBLE
 62
256
370
-1
 48
1.0
  6
BYLAYER
100
AcDbCircle
 10
-199.5805000000356131
 20
38.1000004058455488
 30
0.0
 40
1.5874999999999999
100
AcDbArc
 50
90.0
 51
180.0
  0
ARC
  5
101
100
AcDbEntity
  8
VISIBLE
 62
256
370
-1
 48
1.0
  6
BYLAYER
100
AcDbCircle
 10
196.7554999999623533
 20
-12.6999995941544199
 30
0.0
 40
1.5874999999999999
100
AcDbArc
 50
90.0
 51
180.0
  0
LINE
  5
102
100
AcDbEntity
100
AcDbLine
  8
VISIBLE
 62
256
370
-1
 48
1.0
  6
BYLAYER
 10
199.5804999999623988
 20
-39.6874995941544313
 30
0.0
 11
196.7554998363021923
 21
-39.6874995941544313
 31
0.0
  0
ARC
  5
103
100
AcDbEntity
  8
VISIBLE
 62
256
370
-1
 48
1.0
  6
BYLAYER
100
AcDbCircle
 10
-199.5805000000356131
 20
12.700000405845671
 30
0.0
 40
1.587499999999977
100
AcDbArc
 50
180.0
 51
270.0
  0
LINE
  5
104
100
AcDbEntity
100
AcDbLine
  8
VISIBLE
 62
256
370
-1
 48
1.0
  6
BYLAYER
 10
199.5804999999623988
 20
11.1125004058455801
 30
0.0
 11
196.7554999999623533
 21
11.1125004058455801
 31
0.0
  0
ARC
  5
105
100
AcDbEntity
  8
VISIBLE
 62
256
370
-1
 48
1.0
  6
BYLAYER
100
AcDbCircle
 10
0.0000000000023306
 20
0.0000004059029237
 30
0.0
 40
228.8006600000023241
100
AcDbArc
 50
156.0856293842435321
 51
203.9143703182114109
  0
ARC
  5
106
100
AcDbEntity
  8
VISIBLE
 62
256
370
-1
 48
1.0
  6
BYLAYER
100
AcDbCircle
 10
-196.7555000000355392
 20
38.1000004058455488
 30
0.0
 40
1.587499999999977
100
AcDbArc
 50
0.0
 51
90.0
  0
ARC
  5
107
100
AcDbEntity
  8
VISIBLE
 62
256
370
-1
 48
1.0
  6
BYLAYER
100
AcDbCircle
 10
183.6213867270039373
 20
-81.1279739885629425
 30
0.0
 40
1.58750000000127
100
AcDbArc
 50
332.5503849015343576
 51
155.710000000007426
  0
ARC
  5
108
100
AcDbEntity
  8
VISIBLE
 62
256
370
-1
 48
1.0
  6
BYLAYER
100
AcDbCircle
 10
-0.0000000000009663
 20
0.0000004059038332
 30
0.0
 40
169.4992800000004252
100
AcDbArc
 50
127.4131829834300049
 51
204.7970508743860307
  0
ARC
  5
109
100
AcDbEntity
  8
VISIBLE
 62
256
370
-1
 48
1.0
  6
BYLAYER
100
AcDbCircle
 10
-0.0000000000009663
 20
0.0000004059038332
 30
0.0
 40
169.4992800000004252
100
AcDbArc
 50
335.2029491272496671
 51
52.586817015411853
  0
ARC
  5
10A
100
AcDbEntity
  8
VISIBLE
 62
256
370
-1
 48
1.0
  6
BYLAYER
100
AcDbCircle
 10
-183.6213867271295612
 20
-81.1279739883774056
 30
0.0
 40
1.5875000000015924
100
AcDbArc
 50
24.2900000000330891
 51
207.4496150938021799
  0
ARC
  5
10B
100
AcDbEntity
  8
VISIBLE
 62
256
370
-1
 48
1.0
  6
BYLAYER
100
AcDbCircle
 10
0.0000000000056275
 20
0.0000004058997405
 30
0.0
 40
228.8006600000070989
100
AcDbArc
 50
130.9256294259159006
 51
155.3343703194581451
  0
ARC
  5
10C
100
AcDbEntity
  8
VISIBLE
 62
256
370
-1
 48
1.0
  6
BYLAYER
100
AcDbCircle
 10
0.0000000000002842
 20
0.0000004059058796
 30
0.0
 40
228.8006599999984303
100
AcDbArc
 50
128.295863412573425
 51
130.1743703611309115
  0
LINE
  5
10D
100
AcDbEntity
100
AcDbLine
  8
VISIBLE
 62
256
370
-1
 48
1.0
  6
BYLAYER
 10
196.7554999999623533
 20
39.6875004058456398
 30
0.0
 11
199.5804999999623988
 21
39.6875004058456398
 31
0.0
  0
ARC
  5
10E
100
AcDbEntity
  8
VISIBLE
 62
256
370
-1
 48
1.0
  6
BYLAYER
100
AcDbCircle
 10
-196.7555000000355676
 20
-38.099999594154454
 30
0.0
 40
1.5874999999999999
100
AcDbArc
 50
270.0
 51
0.0
  0
ARC
  5
10F
100
AcDbEntity
  8
VISIBLE
 62
256
370
-1
 48
1.0
  6
BYLAYER
100
AcDbCircle
 10
0.0000000000002842
 20
0.0000004059040606
 30
0.0
 40
228.8006599999997945
100
AcDbArc
 50
336.0856296806529144
 51
23.9143706168916133
  0
LINE
  5
110
100
AcDbEntity
100
AcDbLine
  8
VISIBLE
 62
256
370
-1
 48
1.0
  6
BYLAYER
 10
-201.1680000000355903
 20
12.700000405845671
 30
0.0
 11
-201.1680000000355903
 21
38.1000004058455488
 31
0.0
  0
ARC
  5
111
100
AcDbEntity
  8
VISIBLE
 62
256
370
-1
 48
1.0
  6
BYLAYER
100
AcDbCircle
 10
0.0000000000068781
 20
0.0000004059081533
 30
0.0
 40
228.8006599999915238
100
AcDbArc
 50
24.6656296816763714
 51
49.07437057618192
  0
ARC
  5
112
100
AcDbEntity
  8
VISIBLE
 62
256
370
-1
 48
1.0
  6
BYLAYER
100
AcDbCircle
 10
199.5804999999623988
 20
-38.099999594154454
 30
0.0
 40
1.5874999999999999
100
AcDbArc
 50
270.0
 51
0.0
  0
ARC
  5
113
100
AcDbEntity
  8
VISIBLE
 62
256
370
-1
 48
1.0
  6
BYLAYER
100
AcDbCircle
 10
-1.0073856779442565
 20
-193.4937705678801763
 30
0.0
 40
228.800659999989108
100
AcDbArc
 50
103.1156295660090194
 51
131.0643705098784437
  0
ARC
  5
114
100
AcDbEntity
  8
VISIBLE
 62
256
370
-1
 48
1.0
  6
BYLAYER
100
AcDbCircle
 10
-1.0073856779399364
 20
-193.4937705678905786
 30
0.0
 40
169.4992800000006241
100
AcDbArc
 50
48.0529489289670764
 51
131.9470511189692843
  0
ARC
  5
115
100
AcDbEntity
  8
VISIBLE
 62
256
370
-1
 48
1.0
  6
BYLAYER
100
AcDbCircle
 10
130.6543684275241048
 20
-41.9642217872213763
 30
0.0
 40
1.5875000000003048
100
AcDbArc
 50
45.400819186497948
 51
228.5599999932227604
  0
LINE
  5
116
100
AcDbEntity
100
AcDbLine
  8
VISIBLE
 62
256
370
-1
 48
1.0
  6
BYLAYER
 10
-133.9330087005327243
 20
-45.1976983955937186
 30
0.0
 11
-131.6184761167389468
 21
-43.1542898988294468
 31
0.0
  0
ARC
  5
117
100
AcDbEntity
  8
VISIBLE
 62
256
370
-1
 48
1.0
  6
BYLAYER
100
AcDbCircle
 10
-1.0073856779394248
 20
-193.4937705678921134
 30
0.0
 40
228.8006600000024093
100
AcDbArc
 50
77.6356295505447207
 51
102.3643705012244993
  0
CIRCLE
  5
118
100
AcDbEntity
100
AcDbCircle
  8
VISIBLE
 62
256
370
-1
 48
1.0
  6
BYLAYER
 10
-1.0073856779767141
 20
3.5314894321678167
 30
0.0
 40
1.5874999999999999
  0
LINE
  5
119
100
AcDbEntity
100
AcDbLine
  8
VISIBLE
 62
256
370
-1
 48
1.0
  6
BYLAYER
 10
-131.6184761167397426
 20
-43.1542898988290489
 30
0.0
 11
-131.6185097988183941
 21
-43.1542523552215727
 31
0.0
  0
LINE
  5
11A
100
AcDbEntity
100
AcDbLine
  8
VISIBLE
 62
256
370
-1
 48
1.0
  6
BYLAYER
 10
129.6037047609343063
 20
-43.1542898985952803
 30
0.0
 11
131.9182372319213528
 21
-45.1976982961197251
 31
0.0
  0
ARC
  5
11B
100
AcDbEntity
  8
VISIBLE
 62
256
370
-1
 48
1.0
  6
BYLAYER
100
AcDbCircle
 10
-132.6786264333676115
 20
-41.9725971723721756
 30
0.0
 40
1.5874999999990373
100
AcDbArc
 50
311.8967247025352094
 51
134.1418526245900011
  0
ARC
  5
11C
100
AcDbEntity
  8
VISIBLE
 62
256
370
-1
 48
1.0
  6
BYLAYER
100
AcDbCircle
 10
-1.0073856779455355
 20
-193.4937705679020041
 30
0.0
 40
228.8006600000133233
100
AcDbArc
 50
48.9356295299113597
 51
76.884370485758879
  0
LINE
  5
11D
100
AcDbEntity
100
AcDbLine
  8
VISIBLE
 62
256
370
-1
 48
1.0
  6
BYLAYER
 10
195.167999999962376
 20
12.700000405845671
 30
0.0
 11
195.167999999962376
 21
38.1000004058455488
 31
0.0
  0
LINE
  5
11E
100
AcDbEntity
100
AcDbLine
  8
VISIBLE
 62
256
370
-1
 48
1.0
  6
BYLAYER
 10
195.167999999962376
 20
-38.099999594154454
 30
0.0
 11
195.167999999962376
 21
-12.6999995941544199
 31
0.0
  0
LINE
  5
11F
100
AcDbEntity
100
AcDbLine
  8
VISIBLE
 62
256
370
-1
 48
1.0
  6
BYLAYER
 10
-195.1680000000355619
 20
38.1000004058455488
 30
0.0
 11
-195.1680000000355619
 21
12.700000405845671
 31
0.0
  0
LINE
  5
120
100
AcDbEntity
100
AcDbLine
  8
VISIBLE
 62
256
370
-1
 48
1.0
  6
BYLAYER
 10
-195.1680000000355619
 20
-12.6999995941544199
 30
0.0
 11
-195.1680000000355619
 21
-38.099999594154454
 31
0.0
  0
LINE
  5
121
100
AcDbEntity
100
AcDbLine
  8
0
 62
256
370
-1
 48
1.0
  6
BYLAYER
 10
-123.4904652263162461
 20
156.0793444957779172
 30
0.0
 11
-121.1265468793476003
 21
157.9213481133237167
 31
0.0
  0
LINE
  5
122
100
AcDbEntity
100
AcDbLine
  8
0
 62
256
370
-1
 48
1.0
  6
BYLAYER
 10
121.1263943741558364
 20
157.9211523650862148
 30
0.0
 11
123.4903029820281972
 21
156.0791548801916235
 31
0.0
  0
ENDSEC
  0
SECTION
  2
OBJECTS
  0
DICTIONARY
  5
C
100
AcDbDictionary
280
0
281
1
  3
ACAD_GROUP
350
D
  3
ACAD_LAYOUT
350
1A
  3
ACAD_MLINESTYLE
350
17
  3
ACAD_PLOTSETTINGS
350
19
  3
ACAD_PLOTSTYLENAME
350
E
  3
AcDbVariableDictionary
350
123
  3
QCAD_OBJECTS
350
124
  0
DICTIONARY
  5
D
100
AcDbDictionary
280
0
281
1
  0
ACDBDICTIONARYWDFLT
  5
E
100
AcDbDictionary
281
1
  3
Normal
350
F
100
AcDbDictionaryWithDefault
340
F
  0
ACDBPLACEHOLDER
  5
F
  0
DICTIONARY
  5
17
100
AcDbDictionary
280
0
281
1
  3
Standard
350
18
  0
MLINESTYLE
  5
18
100
AcDbMlineStyle
  2
STANDARD
 70
0
  3

 62
256
 51
90.0
 52
90.0
 71
2
 49
0.5
 62
256
  6
BYLAYER
 49
-0.5
 62
256
  6
BYLAYER
  0
DICTIONARY
  5
19
100
AcDbDictionary
280
0
281
1
  0
DICTIONARY
  5
1A
100
AcDbDictionary
281
1
  3
Layout1
350
1E
  3
Layout2
350
26
  3
Model
350
22
  0
LAYOUT
  5
1E
100
AcDbPlotSettings
  1

  2
none_device
  4

  6

 40
0.0
 41
0.0
 42
0.0
 43
0.0
 44
0.0
 45
0.0
 46
0.0
 47
0.0
 48
0.0
 49
0.0
140
0.0
141
0.0
142
1.0
143
1.0
 70
688
 72
0
 73
0
 74
5
  7

 75
16
147
1.0
148
0.0
149
0.0
100
AcDbLayout
  1
Layout1
 70
1
 71
1
 10
0.0
 20
0.0
 11
420.0
 21
297.0
 12
0.0
 22
0.0
 32
0.0
 14
100000000000000000000.0
 24
100000000000000000000.0
 34
100000000000000000000.0
 15
-100000000000000000000.0
 25
-100000000000000000000.0
 35
-100000000000000000000.0
146
0.0
 13
0.0
 23
0.0
 33
0.0
 16
1.0
 26
0.0
 36
0.0
 17
0.0
 27
1.0
 37
0.0
 76
0
330
1B
  0
LAYOUT
  5
22
100
AcDbPlotSettings
  1

  2
none_device
  4

  6

 40
0.0
 41
0.0
 42
0.0
 43
0.0
 44
0.0
 45
0.0
 46
0.0
 47
0.0
 48
0.0
 49
0.0
140
0.0
141
0.0
142
1.0
143
1.0
 70
1712
 72
0
 73
0
 74
0
  7

 75
0
147
1.0
148
0.0
149
0.0
100
AcDbLayout
  1
Model
 70
1
 71
0
 10
0.0
 20
0.0
 11
12.0
 21
9.0
 12
0.0
 22
0.0
 32
0.0
 14
0.0
 24
0.0
 34
0.0
 15
0.0
 25
0.0
 35
0.0
146
0.0
 13
0.0
 23
0.0
 33
0.0
 16
1.0
 26
0.0
 36
0.0
 17
0.0
 27
1.0
 37
0.0
 76
0
330
1F
  0
LAYOUT
  5
26
100
AcDbPlotSettings
  1

  2
none_device
  4

  6

 40
0.0
 41
0.0
 42
0.0
 43
0.0
 44
0.0
 45
0.0
 46
0.0
 47
0.0
 48
0.0
 49
0.0
140
0.0
141
0.0
142
1.0
143
1.0
 70
688
 72
0
 73
0
 74
5
  7

 75
16
147
1.0
148
0.0
149
0.0
100
AcDbLayout
  1
Layout2
 70
1
 71
2
 10
0.0
 20
0.0
 11
12.0
 21
9.0
 12
0.0
 22
0.0
 32
0.0
 14
0.0
 24
0.0
 34
0.0
 15
0.0
 25
0.0
 35
0.0
146
0.0
 13
0.0
 23
0.0
 33
0.0
 16
1.0
 26
0.0
 36
0.0
 17
0.0
 27
1.0
 37
0.0
 76
0
330
23
  0
DICTIONARY
  5
123
100
AcDbDictionary
281
1
  3
DIMASSOC
350
126
  3
HIDETEXT
350
125
  0
DICTIONARYVAR
  5
125
100
DictionaryVariables
280
0
  1
2
  0
DICTIONARYVAR
  5
126
100
DictionaryVariables
280
0
  1
1
  0
DICTIONARY
  5
124
100
AcDbDictionary
281
1
  3
ColorSettings/BackgroundColor
350
127
  3
ColorSettings/ColorMode
350
128
  3
Grid/DisplayGrid00
350
129
  3
Grid/DisplayGrid01
350
12A
  3
Grid/DisplayGrid02
350
12B
  3
Grid/DisplayGrid03
350
12C
  3
Grid/GridSpacingX00
350
12D
  3
Grid/GridSpacingX01
350
12E
  3
Grid/GridSpacingX02
350
12F
  3
Grid/GridSpacingX03
350
130
  3
Grid/GridSpacingY00
350
131
  3
Grid/GridSpacingY01
350
132
  3
Grid/GridSpacingY02
350
133
  3
Grid/GridSpacingY03
350
134
  3
Grid/IsometricGrid00
350
135
  3
Grid/IsometricGrid01
350
136
  3
Grid/IsometricGrid02
350
137
  3
Grid/IsometricGrid03
350
138
  3
Grid/IsometricProjection00
350
139
  3
Grid/IsometricProjection01
350
13A
  3
Grid/IsometricProjection02
350
13B
  3
Grid/IsometricProjection03
350
13C
  3
Grid/MetaGridSpacingX00
350
13D
  3
Grid/MetaGridSpacingX01
350
13E
  3
Grid/MetaGridSpacingX02
350
13F
  3
Grid/MetaGridSpacingX03
350
140
  3
Grid/MetaGridSpacingY00
350
141
  3
Grid/MetaGridSpacingY01
350
142
  3
Grid/MetaGridSpacingY02
350
143
  3
Grid/MetaGridSpacingY03
350
144
  3
MultiPageSettings/Columns
350
145
  3
MultiPageSettings/GlueMarginsBottom
350
146
  3
MultiPageSettings/GlueMarginsLeft
350
147
  3
MultiPageSettings/GlueMarginsRight
350
148
  3
MultiPageSettings/GlueMarginsTop
350
149
  3
MultiPageSettings/PrintCropMarks
350
14A
  3
MultiPageSettings/Rows
350
14B
  3
PageSettings/OffsetX
350
14C
  3
PageSettings/OffsetY
350
14D
  3
PageSettings/PageOrientation
350
14E
  3
PageSettings/PaperHeight
350
14F
  3
PageSettings/PaperWidth
350
150
  3
PageSettings/Scale
350
151
  3
PageSettings/ShowPaperBorders
350
152
  3
QCADVersion
350
153
  3
UnitSettings/PaperUnit
350
154
  0
XRECORD
  5
127
330
124
100
AcDbXrecord
280
1
1000
Weiss
  0
XRECORD
  5
128
330
124
100
AcDbXrecord
280
1
1000
FullColor
  0
XRECORD
  5
129
330
124
100
AcDbXrecord
280
1
290
1
  0
XRECORD
  5
12A
330
124
100
AcDbXrecord
280
1
290
1
  0
XRECORD
  5
12B
330
124
100
AcDbXrecord
280
1
290
1
  0
XRECORD
  5
12C
330
124
100
AcDbXrecord
280
1
290
1
  0
XRECORD
  5
12D
330
124
100
AcDbXrecord
280
1
1000
auto
  0
XRECORD
  5
12E
330
124
100
AcDbXrecord
280
1
1000
auto
  0
XRECORD
  5
12F
330
124
100
AcDbXrecord
280
1
1000
auto
  0
XRECORD
  5
130
330
124
100
AcDbXrecord
280
1
1000
auto
  0
XRECORD
  5
131
330
124
100
AcDbXrecord
280
1
1000
auto
  0
XRECORD
  5
132
330
124
100
AcDbXrecord
280
1
1000
auto
  0
XRECORD
  5
133
330
124
100
AcDbXrecord
280
1
1000
auto
  0
XRECORD
  5
134
330
124
100
AcDbXrecord
280
1
1000
auto
  0
XRECORD
  5
135
330
124
100
AcDbXrecord
280
1
290
0
  0
XRECORD
  5
136
330
124
100
AcDbXrecord
280
1
290
0
  0
XRECORD
  5
137
330
124
100
AcDbXrecord
280
1
290
0
  0
XRECORD
  5
138
330
124
100
AcDbXrecord
280
1
290
0
  0
XRECORD
  5
139
330
124
100
AcDbXrecord
280
1
 90
0
  0
XRECORD
  5
13A
330
124
100
AcDbXrecord
280
1
 90
0
  0
XRECORD
  5
13B
330
124
100
AcDbXrecord
280
1
 90
0
  0
XRECORD
  5
13C
330
124
100
AcDbXrecord
280
1
 90
0
  0
XRECORD
  5
13D
330
124
100
AcDbXrecord
280
1
1000
auto
  0
XRECORD
  5
13E
330
124
100
AcDbXrecord
280
1
1000
auto
  0
XRECORD
  5
13F
330
124
100
AcDbXrecord
280
1
1000
auto
  0
XRECORD
  5
140
330
124
100
AcDbXrecord
280
1
1000
auto
  0
XRECORD
  5
141
330
124
100
AcDbXrecord
280
1
1000
auto
  0
XRECORD
  5
142
330
124
100
AcDbXrecord
280
1
1000
auto
  0
XRECORD
  5
143
330
124
100
AcDbXrecord
280
1
1000
auto
  0
XRECORD
  5
144
330
124
100
AcDbXrecord
280
1
1000
auto
  0
XRECORD
  5
145
330
124
100
AcDbXrecord
280
1
 90
1
  0
XRECORD
  5
146
330
124
100
AcDbXrecord
280
1
 40
10.0
  0
XRECORD
  5
147
330
124
100
AcDbXrecord
280
1
 40
10.0
  0
XRECORD
  5
148
330
124
100
AcDbXrecord
280
1
 40
10.0
  0
XRECORD
  5
149
330
124
100
AcDbXrecord
280
1
 40
10.0
  0
XRECORD
  5
14A
330
124
100
AcDbXrecord
280
1
290
0
  0
XRECORD
  5
14B
330
124
100
AcDbXrecord
280
1
 90
1
  0
XRECORD
  5
14C
330
124
100
AcDbXrecord
280
1
 40
0.0
  0
XRECORD
  5
14D
330
124
100
AcDbXrecord
280
1
 40
0.0
  0
XRECORD
  5
14E
330
124
100
AcDbXrecord
280
1
1000
Portrait
  0
XRECORD
  5
14F
330
124
100
AcDbXrecord
280
1
 40
297.0
  0
XRECORD
  5
150
330
124
100
AcDbXrecord
280
1
 40
210.0
  0
XRECORD
  5
151
330
124
100
AcDbXrecord
280
1
1000
1:1
  0
XRECORD
  5
152
330
124
100
AcDbXrecord
280
1
290
1
  0
XRECORD
  5
153
330
124
100
AcDbXrecord
280
1
1000
3.12.5
  0
XRECORD
  5
154
330
124
100
AcDbXrecord
280
1
 90
4
  0
ENDSEC
  0
EOF
