999
dxflib 3.12.2.0
  0
SECTION
  2
HEADER
  9
$ACADVER
  1
AC1015
  9
$HANDSEED
  5
FFFF
  9
$ANGBASE
 50
0.0
  9
$ANGDIR
 70
0
  9
$ATTMODE
 70
1
  9
$AUNITS
 70
0
  9
$AUPREC
 70
0
  9
$CECOLOR
 62
178
  9
$CELTSCALE
 40
1.0
  9
$CHAMFERA
 40
0.0
  9
$CHAMFERB
 40
0.0
  9
$CHAMFERC
 40
0.0
  9
$CHAMFERD
 40
0.0
  9
$CMLJUST
 70
0
  9
$CMLSCALE
 40
1.0
  9
$DIMADEC
 70
0
  9
$DIMALT
 70
0
  9
$DIMALTD
 70
2
  9
$DIMALTF
 40
25.399999999999999
  9
$DIMALTRND
 40
0.0
  9
$DIMALTTD
 70
2
  9
$DIMALTTZ
 70
0
  9
$DIMALTU
 70
2
  9
$DIMALTZ
 70
0
  9
$DIMAPOST
  1

  9
$DIMASZ
 40
2.5
  9
$DIMATFIT
 70
3
  9
$DIMAUNIT
 70
0
  9
$DIMAZIN
 70
2
  9
$DIMBLK
  1

  9
$DIMBLK1
  1

  9
$DIMBLK2
  1

  9
$DIMCEN
 40
0.09
  9
$DIMCLRD
 70
178
  9
$DIMCLRE
 70
178
  9
$DIMCLRT
 70
178
  9
$DIMDEC
 70
4
  9
$DIMDLE
 40
0.0
  9
$DIMDLI
 40
0.38
  9
$DIMDSEP
 70
46
  9
$DIMEXE
 40
1.25
  9
$DIMEXO
 40
0.625
  9
$DIMFRAC
 70
0
  9
$DIMGAP
 40
0.625
  9
$DIMJUST
 70
0
  9
$DIMLDRBLK
  1

  9
$DIMLFAC
 40
1.0
  9
$DIMLIM
 70
0
  9
$DIMLUNIT
 70
2
  9
$DIMLWD
 70
-2
  9
$DIMLWE
 70
-2
  9
$DIMPOST
  1

  9
$DIMRND
 40
0.0
  9
$DIMSAH
 70
0
  9
$DIMSCALE
 40
1.0
  9
$DIMSD1
 70
0
  9
$DIMSD2
 70
0
  9
$DIMSE1
 70
0
  9
$DIMSE2
 70
0
  9
$DIMSOXD
 70
0
  9
$DIMTAD
 70
0
  9
$DIMTDEC
 70
4
  9
$DIMTFAC
 40
1.0
  9
$DIMTIH
 70
1
  9
$DIMTIX
 70
0
  9
$DIMTM
 40
0.0
  9
$DIMTOFL
 70
0
  9
$DIMTOH
 70
1
  9
$DIMTOL
 70
0
  9
$DIMTOLJ
 70
1
  9
$DIMTP
 40
0.0
  9
$DIMTSZ
 40
0.0
  9
$DIMTVP
 40
0.0
  9
$DIMTXSTY
  7
Standard
  9
$DIMTXT
 40
2.5
  9
$DIMTZIN
 70
0
  9
$DIMUPT
 70
0
  9
$DIMZIN
 70
8
  9
$DISPSILH
 70
0
  9
$DWGCODEPAGE
  3
ANSI_1252
  9
$ELEVATION
 40
0.0
  9
$EXTMAX
 10
-100000000000000000000.0
 20
-100000000000000000000.0
 30
-100000000000000000000.0
  9
$EXTMIN
 10
100000000000000000000.0
 20
100000000000000000000.0
 30
100000000000000000000.0
  9
$FILLETRAD
 40
0.5
  9
$FILLMODE
 70
1
  9
$INSBASE
 10
0.0
 20
0.0
 30
0.0
  9
$INSUNITS
 70
4
  9
$LIMCHECK
 70
0
  9
$LIMMAX
 10
12.0
 20
9.0
  9
$LIMMIN
 10
0.0
 20
0.0
  9
$LTSCALE
 40
1.0
  9
$LUNITS
 70
2
  9
$LUPREC
 70
4
  9
$MAXACTVP
 70
2
  9
$MEASUREMENT
 70
1
  9
$MIRRTEXT
 70
1
  9
$ORTHOMODE
 70
0
  9
$PDMODE
 70
0
  9
$PDSIZE
 40
0
  9
$PELEVATION
 40
0.0
  9
$PEXTMAX
 10
-100000000000000000000.0
 20
-100000000000000000000.0
 30
-100000000000000000000.0
  9
$PEXTMIN
 10
100000000000000000000.0
 20
100000000000000000000.0
 30
100000000000000000000.0
  9
$PINSBASE
 10
0.0
 20
0.0
 30
0.0
  9
$PLIMCHECK
 70
0
  9
$PLIMMAX
 10
12.0
 20
9.0
  9
$PLIMMIN
 10
0.0
 20
0.0
  9
$PLINEGEN
 70
0
  9
$PLINEWID
 40
0.0
  9
$PROXYGRAPHICS
 70
1
  9
$PSLTSCALE
 70
1
  9
$PUCSNAME
  2

  9
$PUCSORG
 10
0.0
 20
0.0
 30
0.0
  9
$PUCSXDIR
 10
1.0
 20
0.0
 30
0.0
  9
$PUCSYDIR
 10
0.0
 20
1.0
 30
0.0
  9
$QTEXTMODE
 70
0
  9
$REGENMODE
 70
1
  9
$SHADEDGE
 70
3
  9
$SHADEDIF
 70
70
  9
$SKETCHINC
 40
0.1
  9
$SKPOLY
 70
0
  9
$SPLFRAME
 70
0
  9
$SPLINESEGS
 70
8
  9
$SPLINETYPE
 70
6
  9
$SURFTAB1
 70
6
  9
$SURFTAB2
 70
6
  9
$SURFTYPE
 70
6
  9
$SURFU
 70
6
  9
$SURFV
 70
6
  9
$TEXTSIZE
 40
2.5
  9
$TEXTSTYLE
  7
Standard
  9
$THICKNESS
 40
0.0
  9
$TILEMODE
 70
1
  9
$TRACEWID
 40
0.05
  9
$TREEDEPTH
 70
3020
  9
$UCSNAME
  2

  9
$UCSORG
 10
0.0
 20
0.0
 30
0.0
  9
$UCSXDIR
 10
1.0
 20
0.0
 30
0.0
  9
$UCSYDIR
 10
0.0
 20
1.0
 30
0.0
  9
$UNITMODE
 70
0
  9
$USERI1
 70
0
  9
$USERI2
 70
0
  9
$USERI3
 70
0
  9
$USERI4
 70
0
  9
$USERI5
 70
0
  9
$USERR1
 40
0.0
  9
$USERR2
 40
0.0
  9
$USERR3
 40
0.0
  9
$USERR4
 40
0.0
  9
$USERR5
 40
0.0
  9
$USRTIMER
 70
1
  9
$VISRETAIN
 70
1
  0
ENDSEC
  0
SECTION
  2
TABLES
  0
TABLE
  2
VPORT
  5
8
100
AcDbSymbolTable
 70
1
  0
VPORT
  5
30
100
AcDbSymbolTableRecord
100
AcDbViewportTableRecord
  2
*Active
 70
0
 10
0.0
 20
0.0
 11
1.0
 21
1.0
 12
286.30555555555549
 22
148.5
 13
0.0
 23
0.0
 14
10.0
 24
10.0
 15
10.0
 25
10.0
 16
0.0
 26
0.0
 36
1.0
 17
0.0
 27
0.0
 37
0.0
 40
297.0
 41
1.92798353909465
 42
50.0
 43
0.0
 44
0.0
 50
0.0
 51
0.0
 71
0
 72
100
 73
1
 74
3
 75
1
 76
1
 77
0
 78
0
281
0
 65
1
110
0.0
120
0.0
130
0.0
111
1.0
121
0.0
131
0.0
112
0.0
122
1.0
132
0.0
 79
0
146
0.0
  0
ENDTAB
  0
TABLE
  2
LTYPE
  5
5
100
AcDbSymbolTable
 70
50
  0
LTYPE
  5
16
100
AcDbSymbolTableRecord
100
AcDbLinetypeTableRecord
  2
Continuous
 70
0
  3
Solid line
 72
65
 73
0
 40
0.0
  0
LTYPE
  5
31
100
AcDbSymbolTableRecord
100
AcDbLinetypeTableRecord
  2
ACAD_ISO03W100
 70
0
  3
ISO dash space __    __    __    __    __    __
 72
65
 73
2
 40
30.0
 49
12.0
 74
0
 49
-18.0
 74
0
  0
LTYPE
  5
32
100
AcDbSymbolTableRecord
100
AcDbLinetypeTableRecord
  2
CENTER2
 70
0
  3
Center (.5x) ___ _ ___ _ ___ _ ___ _ ___ _ ___
 72
65
 73
4
 40
28.575000000000003
 49
19.050000000000001
 74
0
 49
-3.1749999999999998
 74
0
 49
3.1749999999999998
 74
0
 49
-3.1749999999999998
 74
0
  0
LTYPE
  5
33
100
AcDbSymbolTableRecord
100
AcDbLinetypeTableRecord
  2
DIVIDE2
 70
0
  3
Divide (.5x) __..__..__..__..__..__..__..__.._
 72
65
 73
6
 40
15.874999999999998
 49
6.3499999999999996
 74
0
 49
-3.125
 74
0
 49
0.1
 74
0
 49
-3.0750000000000002
 74
0
 49
0.1
 74
0
 49
-3.125
 74
0
  0
LTYPE
  5
14
100
AcDbSymbolTableRecord
100
AcDbLinetypeTableRecord
  2
ByBlock
 70
0
  3

 72
65
 73
0
 40
0.0
  0
LTYPE
  5
34
100
AcDbSymbolTableRecord
100
AcDbLinetypeTableRecord
  2
FENCELINE1
 70
0
  3
Fenceline circle ----0-----0----0-----0----0-----0--
 72
65
 73
2
 40
8.8900000000000006
 49
6.3499999999999996
 74
0
 49
-2.54
 74
0
  0
LTYPE
  5
35
100
AcDbSymbolTableRecord
100
AcDbLinetypeTableRecord
  2
ACAD_ISO15W100
 70
0
  3
ISO double-dash triple-dot __ __ . . . __ __ . .
 72
65
 73
10
 40
39.000000000000007
 49
12.0
 74
0
 49
-3.0
 74
0
 49
12.0
 74
0
 49
-2.9500000000000002
 74
0
 49
0.1
 74
0
 49
-2.8999999999999999
 74
0
 49
0.1
 74
0
 49
-2.8999999999999999
 74
0
 49
0.1
 74
0
 49
-2.9500000000000002
 74
0
  0
LTYPE
  5
36
100
AcDbSymbolTableRecord
100
AcDbLinetypeTableRecord
  2
CENTERX2
 70
0
  3
Center (2x) ________  __  ________  __  _____
 72
65
 73
4
 40
101.60000000000001
 49
63.5
 74
0
 49
-12.699999999999999
 74
0
 49
12.699999999999999
 74
0
 49
-12.699999999999999
 74
0
  0
LTYPE
  5
37
100
AcDbSymbolTableRecord
100
AcDbLinetypeTableRecord
  2
DRAINAGE
 70
0
  3
Drainage ---->---->---->----
 72
65
 73
1
 40
5.0800000000000001
 49
5.0800000000000001
 74
0
  0
LTYPE
  5
38
100
AcDbSymbolTableRecord
100
AcDbLinetypeTableRecord
  2
HOT_WATER_SUPPLY
 70
0
  3
Hot water supply ---- HW ---- HW ---- HW ----
 72
65
 73
2
 40
17.780000000000001
 49
12.699999999999999
 74
0
 49
-5.0800000000000001
 74
0
  0
LTYPE
  5
39
100
AcDbSymbolTableRecord
100
AcDbLinetypeTableRecord
  2
DIVIDE
 70
0
  3
Divide ____ . . ____ . . ____ . . ____ . . ____
 72
65
 73
6
 40
31.750000000000004
 49
12.699999999999999
 74
0
 49
-6.2999999999999998
 74
0
 49
0.1
 74
0
 49
-6.25
 74
0
 49
0.1
 74
0
 49
-6.2999999999999998
 74
0
  0
LTYPE
  5
3A
100
AcDbSymbolTableRecord
100
AcDbLinetypeTableRecord
  2
DOT
 70
0
  3
Dot . . . . . . . . . . . . . . . . . . . . . . . .
 72
65
 73
2
 40
6.3499999999999996
 49
0.1
 74
0
 49
-6.25
 74
0
  0
LTYPE
  5
3B
100
AcDbSymbolTableRecord
100
AcDbLinetypeTableRecord
  2
HIDDENX2
 70
0
  3
Hidden (2x) ____ ____ ____ ____ ____ ____ ____ 
 72
65
 73
2
 40
19.049999999999997
 49
12.699999999999999
 74
0
 49
-6.3499999999999996
 74
0
  0
LTYPE
  5
3C
100
AcDbSymbolTableRecord
100
AcDbLinetypeTableRecord
  2
DASHDOT2
 70
0
  3
Dash dot (.5x) _._._._._._._._._._._._._._._.
 72
65
 73
4
 40
12.699999999999999
 49
6.3499999999999996
 74
0
 49
-3.125
 74
0
 49
0.1
 74
0
 49
-3.125
 74
0
  0
LTYPE
  5
3D
100
AcDbSymbolTableRecord
100
AcDbLinetypeTableRecord
  2
ACAD_ISO13W100
 70
0
  3
ISO double-dash double-dot __ __ . . __ __ . . _
 72
65
 73
8
 40
36.000000000000007
 49
12.0
 74
0
 49
-3.0
 74
0
 49
12.0
 74
0
 49
-2.9500000000000002
 74
0
 49
0.1
 74
0
 49
-2.8999999999999999
 74
0
 49
0.1
 74
0
 49
-2.9500000000000002
 74
0
  0
LTYPE
  5
3E
100
AcDbSymbolTableRecord
100
AcDbLinetypeTableRecord
  2
DIVIDEX2
 70
0
  3
Divide (2x) ________  .  .  ________  .  .  _
 72
65
 73
6
 40
63.5
 49
25.399999999999999
 74
0
 49
-12.65
 74
0
 49
0.1
 74
0
 49
-12.6
 74
0
 49
0.1
 74
0
 49
-12.65
 74
0
  0
LTYPE
  5
15
100
AcDbSymbolTableRecord
100
AcDbLinetypeTableRecord
  2
ByLayer
 70
0
  3

 72
65
 73
0
 40
0.0
  0
LTYPE
  5
3F
100
AcDbSymbolTableRecord
100
AcDbLinetypeTableRecord
  2
ZIGZAG
 70
0
  3
Zig zag /\/\/\/\/\/\/\/\/\/\/\/\/\/\/\/\/\/\/\/\/\/\/\/
 72
65
 73
2
 40
5.0825399999999998
 49
0.00254
 74
0
 49
-5.0800000000000001
 74
0
  0
LTYPE
  5
40
100
AcDbSymbolTableRecord
100
AcDbLinetypeTableRecord
  2
ACAD_ISO12W100
 70
0
  3
ISO dash double-dot __ . . __ . . __ . . __ . . 
 72
65
 73
6
 40
21.0
 49
12.0
 74
0
 49
-2.9500000000000002
 74
0
 49
0.1
 74
0
 49
-2.8999999999999999
 74
0
 49
0.1
 74
0
 49
-2.9500000000000002
 74
0
  0
LTYPE
  5
41
100
AcDbSymbolTableRecord
100
AcDbLinetypeTableRecord
  2
ACAD_ISO04W100
 70
0
  3
ISO long-dash dot ____ . ____ . ____ . ____ . _
 72
65
 73
4
 40
30.0
 49
24.0
 74
0
 49
-2.9500000000000002
 74
0
 49
0.1
 74
0
 49
-2.9500000000000002
 74
0
  0
LTYPE
  5
42
100
AcDbSymbolTableRecord
100
AcDbLinetypeTableRecord
  2
BORDER
 70
0
  3
Border __ __ . __ __ . __ __ . __ __ . __ __ .
 72
65
 73
6
 40
44.449999999999996
 49
12.699999999999999
 74
0
 49
-6.3499999999999996
 74
0
 49
12.699999999999999
 74
0
 49
-6.2999999999999998
 74
0
 49
0.1
 74
0
 49
-6.2999999999999998
 74
0
  0
LTYPE
  5
43
100
AcDbSymbolTableRecord
100
AcDbLinetypeTableRecord
  2
HIDDEN2
 70
0
  3
Hidden (.5x) _ _ _ _ _ _ _ _ _ _ _ _ _ _ _ _ _ 
 72
65
 73
2
 40
4.7624999999999993
 49
3.1749999999999998
 74
0
 49
-1.5874999999999999
 74
0
  0
LTYPE
  5
44
100
AcDbSymbolTableRecord
100
AcDbLinetypeTableRecord
  2
CENTER
 70
0
  3
Center ____ _ ____ _ ____ _ ____ _ ____ _ ____
 72
65
 73
4
 40
50.800000000000004
 49
31.75
 74
0
 49
-6.3499999999999996
 74
0
 49
6.3499999999999996
 74
0
 49
-6.3499999999999996
 74
0
  0
LTYPE
  5
45
100
AcDbSymbolTableRecord
100
AcDbLinetypeTableRecord
  2
BATTING
 70
0
  3
Batting SSSSSSSSSSSSSSSSSSSSSSSSSSSSSSSSSSSSSSSSSSSSSSS
 72
65
 73
2
 40
2.5425400000000002
 49
0.00254
 74
0
 49
-2.54
 74
0
  0
LTYPE
  5
46
100
AcDbSymbolTableRecord
100
AcDbLinetypeTableRecord
  2
ACAD_ISO02W100
 70
0
  3
ISO dash __ __ __ __ __ __ __ __ __ __ __ __ __
 72
65
 73
2
 40
15.0
 49
12.0
 74
0
 49
-3.0
 74
0
  0
LTYPE
  5
47
100
AcDbSymbolTableRecord
100
AcDbLinetypeTableRecord
  2
ACAD_ISO08W100
 70
0
  3
ISO long-dash short-dash ____ __ ____ __ ____ _
 72
65
 73
4
 40
36.0
 49
24.0
 74
0
 49
-3.0
 74
0
 49
6.0
 74
0
 49
-3.0
 74
0
  0
LTYPE
  5
48
100
AcDbSymbolTableRecord
100
AcDbLinetypeTableRecord
  2
DASHED2
 70
0
  3
Dashed (.5x) _ _ _ _ _ _ _ _ _ _ _ _ _ _ _ _ _ 
 72
65
 73
2
 40
9.5249999999999986
 49
6.3499999999999996
 74
0
 49
-3.1749999999999998
 74
0
  0
LTYPE
  5
49
100
AcDbSymbolTableRecord
100
AcDbLinetypeTableRecord
  2
ACAD_ISO06W100
 70
0
  3
ISO long-dash triple-dot ____ ... ____ ... ____
 72
65
 73
8
 40
36.000000000000007
 49
24.0
 74
0
 49
-2.9500000000000002
 74
0
 49
0.1
 74
0
 49
-2.8999999999999999
 74
0
 49
0.1
 74
0
 49
-2.8999999999999999
 74
0
 49
0.1
 74
0
 49
-2.9500000000000002
 74
0
  0
LTYPE
  5
4A
100
AcDbSymbolTableRecord
100
AcDbLinetypeTableRecord
  2
BORDERX2
 70
0
  3
Border (2x) ____  ____  .  ____  ____  .  ___
 72
65
 73
6
 40
88.899999999999991
 49
25.399999999999999
 74
0
 49
-12.699999999999999
 74
0
 49
25.399999999999999
 74
0
 49
-12.65
 74
0
 49
0.1
 74
0
 49
-12.65
 74
0
  0
LTYPE
  5
4B
100
AcDbSymbolTableRecord
100
AcDbLinetypeTableRecord
  2
ACAD_ISO10W100
 70
0
  3
ISO dash dot __ . __ . __ . __ . __ . __ . __ . 
 72
65
 73
4
 40
18.0
 49
12.0
 74
0
 49
-2.9500000000000002
 74
0
 49
0.1
 74
0
 49
-2.9500000000000002
 74
0
  0
LTYPE
  5
4C
100
AcDbSymbolTableRecord
100
AcDbLinetypeTableRecord
  2
DASHED
 70
0
  3
Dashed __ __ __ __ __ __ __ __ __ __ __ __ __ _
 72
65
 73
2
 40
19.049999999999997
 49
12.699999999999999
 74
0
 49
-6.3499999999999996
 74
0
  0
LTYPE
  5
4D
100
AcDbSymbolTableRecord
100
AcDbLinetypeTableRecord
  2
GAS_LINE
 70
0
  3
Gas line ----GAS----GAS----GAS----GAS----GAS----GAS--
 72
65
 73
2
 40
17.780000000000001
 49
12.699999999999999
 74
0
 49
-5.0800000000000001
 74
0
  0
LTYPE
  5
4E
100
AcDbSymbolTableRecord
100
AcDbLinetypeTableRecord
  2
DASHEDX2
 70
0
  3
Dashed (2x) ____  ____  ____  ____  ____  ___
 72
65
 73
2
 40
38.099999999999994
 49
25.399999999999999
 74
0
 49
-12.699999999999999
 74
0
  0
LTYPE
  5
4F
100
AcDbSymbolTableRecord
100
AcDbLinetypeTableRecord
  2
ACAD_ISO11W100
 70
0
  3
ISO double-dash dot __ __ . __ __ . __ __ . __ _
 72
65
 73
6
 40
33.0
 49
12.0
 74
0
 49
-3.0
 74
0
 49
12.0
 74
0
 49
-2.9500000000000002
 74
0
 49
0.1
 74
0
 49
-2.9500000000000002
 74
0
  0
LTYPE
  5
50
100
AcDbSymbolTableRecord
100
AcDbLinetypeTableRecord
  2
DOTX2
 70
0
  3
Dot (2x) .  .  .  .  .  .  .  .  .  .  .  .  .  .
 72
65
 73
2
 40
12.699999999999999
 49
0.1
 74
0
 49
-12.6
 74
0
  0
LTYPE
  5
51
100
AcDbSymbolTableRecord
100
AcDbLinetypeTableRecord
  2
PHANTOM
 70
0
  3
Phantom ______  __  __  ______  __  __  ______ 
 72
65
 73
6
 40
63.500000000000007
 49
31.75
 74
0
 49
-6.3499999999999996
 74
0
 49
6.3499999999999996
 74
0
 49
-6.3499999999999996
 74
0
 49
6.3499999999999996
 74
0
 49
-6.3499999999999996
 74
0
  0
LTYPE
  5
52
100
AcDbSymbolTableRecord
100
AcDbLinetypeTableRecord
  2
ACAD_ISO09W100
 70
0
  3
ISO long-dash double-short-dash ____ __ __ ____
 72
65
 73
6
 40
45.0
 49
24.0
 74
0
 49
-3.0
 74
0
 49
6.0
 74
0
 49
-3.0
 74
0
 49
6.0
 74
0
 49
-3.0
 74
0
  0
LTYPE
  5
53
100
AcDbSymbolTableRecord
100
AcDbLinetypeTableRecord
  2
DASHDOTX2
 70
0
  3
Dash dot (2x) ____  .  ____  .  ____  .  ___
 72
65
 73
4
 40
50.799999999999997
 49
25.399999999999999
 74
0
 49
-12.65
 74
0
 49
0.1
 74
0
 49
-12.65
 74
0
  0
LTYPE
  5
54
100
AcDbSymbolTableRecord
100
AcDbLinetypeTableRecord
  2
DASHDOT
 70
0
  3
Dash dot __ . __ . __ . __ . __ . __ . __ . __
 72
65
 73
4
 40
25.400000000000002
 49
12.699999999999999
 74
0
 49
-6.2999999999999998
 74
0
 49
0.1
 74
0
 49
-6.2999999999999998
 74
0
  0
LTYPE
  5
55
100
AcDbSymbolTableRecord
100
AcDbLinetypeTableRecord
  2
TRACKS
 70
0
  3
Tracks -|-|-|-|-|-|-|-|-|-|-|-|-|-|-|-|-|-|-|-|-|-|-|-|-
 72
65
 73
1
 40
3.8100000000000001
 49
3.8100000000000001
 74
0
  0
LTYPE
  5
56
100
AcDbSymbolTableRecord
100
AcDbLinetypeTableRecord
  2
BORDER2
 70
0
  3
Border (.5x) __.__.__.__.__.__.__.__.__.__.__.
 72
65
 73
6
 40
22.225000000000001
 49
6.3499999999999996
 74
0
 49
-3.1749999999999998
 74
0
 49
6.3499999999999996
 74
0
 49
-3.125
 74
0
 49
0.1
 74
0
 49
-3.125
 74
0
  0
LTYPE
  5
57
100
AcDbSymbolTableRecord
100
AcDbLinetypeTableRecord
  2
DRAINAGE2
 70
0
  3
Drainage reversed----<----<----<----
 72
65
 73
1
 40
5.0800000000000001
 49
5.0800000000000001
 74
0
  0
LTYPE
  5
58
100
AcDbSymbolTableRecord
100
AcDbLinetypeTableRecord
  2
ACAD_ISO07W100
 70
0
  3
ISO dot . . . . . . . . . . . . . . . . . . . . 
 72
65
 73
2
 40
3.0
 49
0.1
 74
0
 49
-2.8999999999999999
 74
0
  0
LTYPE
  5
59
100
AcDbSymbolTableRecord
100
AcDbLinetypeTableRecord
  2
PHANTOMX2
 70
0
  3
Phantom (2x) ____________    ____    ____   _
 72
65
 73
6
 40
127.00000000000001
 49
63.5
 74
0
 49
-12.699999999999999
 74
0
 49
12.699999999999999
 74
0
 49
-12.699999999999999
 74
0
 49
12.699999999999999
 74
0
 49
-12.699999999999999
 74
0
  0
LTYPE
  5
5A
100
AcDbSymbolTableRecord
100
AcDbLinetypeTableRecord
  2
DOT2
 70
0
  3
Dot (.5x) ........................................
 72
65
 73
2
 40
3.1750000000000003
 49
0.1
 74
0
 49
-3.0750000000000002
 74
0
  0
LTYPE
  5
5B
100
AcDbSymbolTableRecord
100
AcDbLinetypeTableRecord
  2
FENCELINE2
 70
0
  3
Fenceline square ----[]-----[]----[]-----[]----[]---
 72
65
 73
2
 40
8.8900000000000006
 49
6.3499999999999996
 74
0
 49
-2.54
 74
0
  0
LTYPE
  5
5C
100
AcDbSymbolTableRecord
100
AcDbLinetypeTableRecord
  2
ACAD_ISO05W100
 70
0
  3
ISO long-dash double-dot ____ .. ____ .. ____ . 
 72
65
 73
6
 40
33.0
 49
24.0
 74
0
 49
-2.9500000000000002
 74
0
 49
0.1
 74
0
 49
-2.8999999999999999
 74
0
 49
0.1
 74
0
 49
-2.9500000000000002
 74
0
  0
LTYPE
  5
5D
100
AcDbSymbolTableRecord
100
AcDbLinetypeTableRecord
  2
PHANTOM2
 70
0
  3
Phantom (.5x) ___ _ _ ___ _ _ ___ _ _ ___ _ _
 72
65
 73
6
 40
31.750000000000004
 49
15.875
 74
0
 49
-3.1749999999999998
 74
0
 49
3.1749999999999998
 74
0
 49
-3.1749999999999998
 74
0
 49
3.1749999999999998
 74
0
 49
-3.1749999999999998
 74
0
  0
LTYPE
  5
5E
100
AcDbSymbolTableRecord
100
AcDbLinetypeTableRecord
  2
HIDDEN
 70
0
  3
Hidden __ __ __ __ __ __ __ __ __ __ __ __ __ __
 72
65
 73
2
 40
9.5249999999999986
 49
6.3499999999999996
 74
0
 49
-3.1749999999999998
 74
0
  0
LTYPE
  5
5F
100
AcDbSymbolTableRecord
100
AcDbLinetypeTableRecord
  2
ACAD_ISO14W100
 70
0
  3
ISO dash triple-dot __ . . . __ . . . __ . . . _
 72
65
 73
8
 40
24.0
 49
12.0
 74
0
 49
-2.9500000000000002
 74
0
 49
0.1
 74
0
 49
-2.8999999999999999
 74
0
 49
0.1
 74
0
 49
-2.8999999999999999
 74
0
 49
0.1
 74
0
 49
-2.9500000000000002
 74
0
  0
ENDTAB
  0
TABLE
  2
LAYER
  5
2
100
AcDbSymbolTable
 70
4
  0
LAYER
  5
60
100
AcDbSymbolTableRecord
100
AcDbLayerTableRecord
  2
DIMENSIONS
 70
0
 62
1
420
16711680
  6
Continuous
370
0
390
F
  0
LAYER
  5
61
100
AcDbSymbolTableRecord
100
AcDbLayerTableRecord
  2
CONTINUOUS
 70
0
 62
7
420
16777215
  6
Continuous
370
0
390
F
  0
LAYER
  5
10
100
AcDbSymbolTableRecord
100
AcDbLayerTableRecord
  2
0
 70
0
 62
7
420
16777215
  6
Continuous
370
25
390
F
  0
LAYER
  5
62
100
AcDbSymbolTableRecord
100
AcDbLayerTableRecord
  2
VISIBLE
 70
0
 62
7
420
16777215
  6
Continuous
370
0
390
F
  0
ENDTAB
  0
TABLE
  2
STYLE
  5
3
100
AcDbSymbolTable
 70
32
  0
STYLE
  5
63
100
AcDbSymbolTableRecord
100
AcDbTextStyleTableRecord
  2
Standard
 70
0
 40
0.0
 41
1.0
 50
0.0
 71
0
 42
2.5
  3

  4

1001
ACAD
1000
txt
1071
0
  0
STYLE
  5
64
100
AcDbSymbolTableRecord
100
AcDbTextStyleTableRecord
  2
textstyle0
 70
0
 40
0.0
 41
1.0
 50
0.0
 71
0
 42
1.944097664543524
  3

  4

1001
ACAD
1000
standard
1071
0
  0
STYLE
  5
65
100
AcDbSymbolTableRecord
100
AcDbTextStyleTableRecord
  2
textstyle1
 70
0
 40
0.0
 41
1.0
 50
0.0
 71
0
 42
2.4995541401273882
  3

  4

1001
ACAD
1000
standard
1071
0
  0
STYLE
  5
66
100
AcDbSymbolTableRecord
100
AcDbTextStyleTableRecord
  2
textstyle2
 70
0
 40
0.0
 41
1.0
 50
0.0
 71
0
 42
1.944097664543524
  3

  4

1001
ACAD
1000
standard
1071
0
  0
STYLE
  5
67
100
AcDbSymbolTableRecord
100
AcDbTextStyleTableRecord
  2
textstyle3
 70
0
 40
0.0
 41
1.0
 50
0.0
 71
0
 42
1.944097664543524
  3

  4

1001
ACAD
1000
standard
1071
0
  0
STYLE
  5
68
100
AcDbSymbolTableRecord
100
AcDbTextStyleTableRecord
  2
textstyle4
 70
0
 40
0.0
 41
1.0
 50
0.0
 71
0
 42
1.944097664543524
  3

  4

1001
ACAD
1000
standard
1071
0
  0
STYLE
  5
69
100
AcDbSymbolTableRecord
100
AcDbTextStyleTableRecord
  2
textstyle5
 70
0
 40
0.0
 41
1.0
 50
0.0
 71
0
 42
1.944097664543524
  3

  4

1001
ACAD
1000
standard
1071
0
  0
STYLE
  5
6A
100
AcDbSymbolTableRecord
100
AcDbTextStyleTableRecord
  2
textstyle6
 70
0
 40
0.0
 41
1.0
 50
0.0
 71
0
 42
1.944097664543524
  3

  4

1001
ACAD
1000
standard
1071
0
  0
STYLE
  5
6B
100
AcDbSymbolTableRecord
100
AcDbTextStyleTableRecord
  2
textstyle7
 70
0
 40
0.0
 41
1.0
 50
0.0
 71
0
 42
1.944097664543524
  3

  4

1001
ACAD
1000
standard
1071
0
  0
STYLE
  5
6C
100
AcDbSymbolTableRecord
100
AcDbTextStyleTableRecord
  2
textstyle8
 70
0
 40
0.0
 41
1.0
 50
0.0
 71
0
 42
1.944097664543524
  3

  4

1001
ACAD
1000
standard
1071
0
  0
STYLE
  5
6D
100
AcDbSymbolTableRecord
100
AcDbTextStyleTableRecord
  2
textstyle9
 70
0
 40
0.0
 41
1.0
 50
0.0
 71
0
 42
1.944097664543524
  3

  4

1001
ACAD
1000
standard
1071
0
  0
STYLE
  5
6E
100
AcDbSymbolTableRecord
100
AcDbTextStyleTableRecord
  2
textstyle10
 70
0
 40
0.0
 41
1.0
 50
0.0
 71
0
 42
1.944097664543524
  3

  4

1001
ACAD
1000
standard
1071
0
  0
STYLE
  5
6F
100
AcDbSymbolTableRecord
100
AcDbTextStyleTableRecord
  2
textstyle11
 70
0
 40
0.0
 41
1.0
 50
0.0
 71
0
 42
1.944097664543524
  3

  4

1001
ACAD
1000
standard
1071
0
  0
STYLE
  5
70
100
AcDbSymbolTableRecord
100
AcDbTextStyleTableRecord
  2
textstyle12
 70
0
 40
0.0
 41
1.0
 50
0.0
 71
0
 42
1.944097664543524
  3

  4

1001
ACAD
1000
standard
1071
0
  0
STYLE
  5
71
100
AcDbSymbolTableRecord
100
AcDbTextStyleTableRecord
  2
textstyle13
 70
0
 40
0.0
 41
1.0
 50
0.0
 71
0
 42
1.944097664543524
  3

  4

1001
ACAD
1000
standard
1071
0
  0
STYLE
  5
72
100
AcDbSymbolTableRecord
100
AcDbTextStyleTableRecord
  2
textstyle14
 70
0
 40
0.0
 41
1.0
 50
0.0
 71
0
 42
1.944097664543524
  3

  4

1001
ACAD
1000
standard
1071
0
  0
STYLE
  5
73
100
AcDbSymbolTableRecord
100
AcDbTextStyleTableRecord
  2
textstyle15
 70
0
 40
0.0
 41
1.0
 50
0.0
 71
0
 42
1.944097664543524
  3

  4

1001
ACAD
1000
standard
1071
0
  0
STYLE
  5
74
100
AcDbSymbolTableRecord
100
AcDbTextStyleTableRecord
  2
textstyle16
 70
0
 40
0.0
 41
1.0
 50
0.0
 71
0
 42
1.944097664543524
  3

  4

1001
ACAD
1000
standard
1071
0
  0
STYLE
  5
75
100
AcDbSymbolTableRecord
100
AcDbTextStyleTableRecord
  2
textstyle17
 70
0
 40
0.0
 41
1.0
 50
0.0
 71
0
 42
2.4995541401273882
  3

  4

1001
ACAD
1000
standard
1071
0
  0
STYLE
  5
76
100
AcDbSymbolTableRecord
100
AcDbTextStyleTableRecord
  2
textstyle18
 70
0
 40
0.0
 41
1.0
 50
0.0
 71
0
 42
4.7213800424628447
  3

  4

1001
ACAD
1000
standard
1071
0
  0
STYLE
  5
77
100
AcDbSymbolTableRecord
100
AcDbTextStyleTableRecord
  2
textstyle19
 70
0
 40
0.0
 41
1.0
 50
0.0
 71
0
 42
1.944097664543524
  3

  4

1001
ACAD
1000
standard
1071
0
  0
STYLE
  5
78
100
AcDbSymbolTableRecord
100
AcDbTextStyleTableRecord
  2
textstyle20
 70
0
 40
0.0
 41
1.0
 50
0.0
 71
0
 42
27.338405284265139
  3

  4

1001
ACAD
1000
standard
1071
0
  0
STYLE
  5
79
100
AcDbSymbolTableRecord
100
AcDbTextStyleTableRecord
  2
textstyle21
 70
0
 40
0.0
 41
1.0
 50
0.0
 71
0
 42
1.944097664543524
  3

  4

1001
ACAD
1000
standard
1071
0
  0
STYLE
  5
7A
100
AcDbSymbolTableRecord
100
AcDbTextStyleTableRecord
  2
textstyle22
 70
0
 40
0.0
 41
1.0
 50
0.0
 71
0
 42
1.944097664543524
  3

  4

1001
ACAD
1000
standard
1071
0
  0
STYLE
  5
7B
100
AcDbSymbolTableRecord
100
AcDbTextStyleTableRecord
  2
textstyle23
 70
0
 40
0.0
 41
1.0
 50
0.0
 71
0
 42
3.3327388535031832
  3

  4

1001
ACAD
1000
standard
1071
0
  0
STYLE
  5
7C
100
AcDbSymbolTableRecord
100
AcDbTextStyleTableRecord
  2
textstyle24
 70
0
 40
0.0
 41
1.0
 50
0.0
 71
0
 42
4.7213800424628447
  3

  4

1001
ACAD
1000
standard
1071
0
  0
STYLE
  5
7D
100
AcDbSymbolTableRecord
100
AcDbTextStyleTableRecord
  2
textstyle25
 70
0
 40
0.0
 41
1.0
 50
0.0
 71
0
 42
1.944097664543524
  3

  4

1001
ACAD
1000
standard
1071
0
  0
STYLE
  5
7E
100
AcDbSymbolTableRecord
100
AcDbTextStyleTableRecord
  2
textstyle26
 70
0
 40
0.0
 41
1.0
 50
0.0
 71
0
 42
1.944097664543524
  3

  4

1001
ACAD
1000
standard
1071
0
  0
STYLE
  5
7F
100
AcDbSymbolTableRecord
100
AcDbTextStyleTableRecord
  2
textstyle27
 70
0
 40
0.0
 41
1.0
 50
0.0
 71
0
 42
9.8418259023354562
  3

  4

1001
ACAD
1000
standard
1071
0
  0
STYLE
  5
80
100
AcDbSymbolTableRecord
100
AcDbTextStyleTableRecord
  2
textstyle28
 70
0
 40
0.0
 41
1.0
 50
0.0
 71
0
 42
1.944097664543524
  3

  4

1001
ACAD
1000
standard
1071
0
  0
STYLE
  5
81
100
AcDbSymbolTableRecord
100
AcDbTextStyleTableRecord
  2
textstyle29
 70
0
 40
0.0
 41
1.0
 50
0.0
 71
0
 42
1.944097664543524
  3

  4

1001
ACAD
1000
standard
1071
0
  0
STYLE
  5
82
100
AcDbSymbolTableRecord
100
AcDbTextStyleTableRecord
  2
textstyle30
 70
0
 40
0.0
 41
1.0
 50
0.0
 71
0
 42
1.944097664543524
  3

  4

1001
ACAD
1000
standard
1071
0
  0
ENDTAB
  0
TABLE
  2
VIEW
  5
6
100
AcDbSymbolTable
 70
0
  0
ENDTAB
  0
TABLE
  2
UCS
  5
7
100
AcDbSymbolTable
 70
0
  0
ENDTAB
  0
TABLE
  2
APPID
  5
9
100
AcDbSymbolTable
 70
1
  0
APPID
  5
12
100
AcDbSymbolTableRecord
100
AcDbRegAppTableRecord
  2
ACAD
 70
0
  0
APPID
  5
83
100
AcDbSymbolTableRecord
100
AcDbRegAppTableRecord
  2
QCAD
 70
0
  0
ENDTAB
  0
TABLE
  2
DIMSTYLE
  5
A
100
AcDbSymbolTable
 70
1
100
AcDbDimStyleTable
 71
0
  0
DIMSTYLE
105
27
100
AcDbSymbolTableRecord
100
AcDbDimStyleTableRecord
  2
Standard
 41
2.5
 42
0.625
 43
3.75
 44
1.25
 70
0
 73
0
 74
0
 77
1
 78
8
140
2.5
141
2.5
143
0.03937007874016
147
0.625
171
3
172
1
271
2
272
2
274
3
278
44
283
0
284
8
340
63
  0
ENDTAB
  0
TABLE
  2
BLOCK_RECORD
  5
1
100
AcDbSymbolTable
 70
1
  0
BLOCK_RECORD
  5
1F
100
AcDbSymbolTableRecord
100
AcDbBlockTableRecord
  2
*Model_Space
340
22
  0
BLOCK_RECORD
  5
1B
100
AcDbSymbolTableRecord
100
AcDbBlockTableRecord
  2
*Paper_Space
340
1E
  0
BLOCK_RECORD
  5
23
100
AcDbSymbolTableRecord
100
AcDbBlockTableRecord
  2
*Paper_Space0
340
26
  0
BLOCK_RECORD
  5
84
100
AcDbSymbolTableRecord
100
AcDbBlockTableRecord
  2
BLOCK4
340
0
  0
ENDTAB
  0
ENDSEC
  0
SECTION
  2
BLOCKS
  0
BLOCK
  5
20
100
AcDbEntity
  8
0
100
AcDbBlockBegin
  2
*Model_Space
 70
0
 10
0.0
 20
0.0
 30
0.0
  3
*Model_Space
  1

  0
ENDBLK
  5
21
100
AcDbEntity
  8
0
100
AcDbBlockEnd
  0
BLOCK
  5
1C
100
AcDbEntity
 67
1
  8
0
100
AcDbBlockBegin
  2
*Paper_Space
 70
0
 10
0.0
 20
0.0
 30
0.0
  3
*Paper_Space
  1

  0
ENDBLK
  5
1D
100
AcDbEntity
 67
1
  8
0
100
AcDbBlockEnd
  0
BLOCK
  5
24
100
AcDbEntity
  8
0
100
AcDbBlockBegin
  2
*Paper_Space0
 70
0
 10
0.0
 20
0.0
 30
0.0
  3
*Paper_Space0
  1

  0
ENDBLK
  5
25
100
AcDbEntity
  8
0
100
AcDbBlockEnd
  0
BLOCK
  5
85
100
AcDbEntity
  8
0
100
AcDbBlockBegin
  2
BLOCK4
 70
0
 10
0.0
 20
0.0
 30
0.0
  3
BLOCK4
  1

  0
LINE
  5
86
100
AcDbEntity
100
AcDbLine
  8
CONTINUOUS
 62
256
370
-1
 48
1.0
  6
ByLayer
 10
0.0
 20
0.0
 30
0.0
 11
825.5
 21
0.0
 31
0.0
  0
LINE
  5
87
100
AcDbEntity
100
AcDbLine
  8
CONTINUOUS
 62
256
370
-1
 48
1.0
  6
ByLayer
 10
825.5
 20
533.39999999999998
 30
0.0
 11
0.0
 21
533.39999999999998
 31
0.0
  0
LINE
  5
88
100
AcDbEntity
100
AcDbLine
  8
CONTINUOUS
 62
256
370
-1
 48
1.0
  6
ByLayer
 10
0.0
 20
533.39999999999998
 30
0.0
 11
0.0
 21
0.0
 31
0.0
  0
LINE
  5
89
100
AcDbEntity
100
AcDbLine
  8
CONTINUOUS
 62
256
370
-1
 48
1.0
  6
ByLayer
 10
825.5
 20
0.0
 30
0.0
 11
825.5
 21
533.39999999999998
 31
0.0
  0
LINE
  5
8A
100
AcDbEntity
100
AcDbLine
  8
CONTINUOUS
 62
256
370
-1
 48
1.0
  6
ByLayer
 10
825.5
 20
3.1749999999999998
 30
0.0
 11
825.5
 21
12.699999999999999
 31
0.0
  0
LINE
  5
8B
100
AcDbEntity
100
AcDbLine
  8
CONTINUOUS
 62
256
370
-1
 48
1.0
  6
ByLayer
 10
825.5
 20
520.69999999999993
 30
0.0
 11
825.5
 21
530.22500000000002
 31
0.0
  0
LINE
  5
8C
100
AcDbEntity
100
AcDbLine
  8
CONTINUOUS
 62
256
370
-1
 48
1.0
  6
ByLayer
 10
666.75
 20
44.450000000000003
 30
0.0
 11
825.5
 21
44.450000000000003
 31
0.0
  0
LINE
  5
8D
100
AcDbEntity
100
AcDbLine
  8
CONTINUOUS
 62
256
370
-1
 48
1.0
  6
ByLayer
 10
717.54999999999995
 20
6.3499999999999996
 30
0.0
 11
825.5
 21
6.3499999999999996
 31
0.0
  0
LINE
  5
8E
100
AcDbEntity
100
AcDbLine
  8
CONTINUOUS
 62
256
370
-1
 48
1.0
  6
ByLayer
 10
666.75
 20
0.0
 30
0.0
 11
666.75
 21
44.450000000000003
 31
0.0
  0
LINE
  5
8F
100
AcDbEntity
100
AcDbLine
  8
CONTINUOUS
 62
256
370
-1
 48
1.0
  6
ByLayer
 10
717.54999999999995
 20
0.0
 30
0.0
 11
717.54999999999995
 21
44.450000000000003
 31
0.0
  0
LINE
  5
90
100
AcDbEntity
100
AcDbLine
  8
CONTINUOUS
 62
256
370
-1
 48
1.0
  6
ByLayer
 10
727.20199999999988
 20
6.3499999999999996
 30
0.0
 11
727.20199999999988
 21
16.001999999999999
 31
0.0
  0
LINE
  5
91
100
AcDbEntity
100
AcDbLine
  8
CONTINUOUS
 62
256
370
-1
 48
1.0
  6
ByLayer
 10
742.94999999999993
 20
0.0
 30
0.0
 11
742.94999999999993
 21
6.3499999999999996
 31
0.0
  0
LINE
  5
92
100
AcDbEntity
100
AcDbLine
  8
CONTINUOUS
 62
256
370
-1
 48
1.0
  6
ByLayer
 10
755.64999999999998
 20
6.3499999999999996
 30
0.0
 11
755.64999999999998
 21
16.001999999999999
 31
0.0
  0
LINE
  5
93
100
AcDbEntity
100
AcDbLine
  8
CONTINUOUS
 62
256
370
-1
 48
1.0
  6
ByLayer
 10
781.04999999999995
 20
0.0
 30
0.0
 11
781.04999999999995
 21
6.3499999999999996
 31
0.0
  0
LINE
  5
94
100
AcDbEntity
100
AcDbLine
  8
CONTINUOUS
 62
256
370
-1
 48
1.0
  6
ByLayer
 10
815.84799999999984
 20
6.3499999999999996
 30
0.0
 11
815.84799999999984
 21
16.001999999999999
 31
0.0
  0
LINE
  5
95
100
AcDbEntity
100
AcDbLine
  8
CONTINUOUS
 62
256
370
-1
 48
1.0
  6
ByLayer
 10
666.75
 20
26.1978141784668
 30
0.0
 11
717.54999999999995
 21
26.1978141784668
 31
0.0
  0
LINE
  5
96
100
AcDbEntity
100
AcDbLine
  8
CONTINUOUS
 62
256
370
-1
 48
1.0
  6
ByLayer
 10
666.75
 20
17.150531005859399
 30
0.0
 11
717.54999999999995
 21
17.150531005859399
 31
0.0
  0
LINE
  5
97
100
AcDbEntity
100
AcDbLine
  8
CONTINUOUS
 62
256
370
-1
 48
1.0
  6
ByLayer
 10
666.75
 20
8.734456253051798
 30
0.0
 11
717.54999999999995
 21
8.734456253051798
 31
0.0
  0
LINE
  5
98
100
AcDbEntity
100
AcDbLine
  8
CONTINUOUS
 62
256
370
-1
 48
1.0
  6
ByLayer
 10
717.54999999999995
 20
16.001999999999999
 30
0.0
 11
825.5
 21
16.001999999999999
 31
0.0
  0
LINE
  5
99
100
AcDbEntity
100
AcDbLine
  8
CONTINUOUS
 62
256
370
-1
 48
1.0
  6
ByLayer
 10
666.75
 20
35.245093536376999
 30
0.0
 11
717.54999999999995
 21
35.245093536376999
 31
0.0
  0
LINE
  5
9A
100
AcDbEntity
100
AcDbLine
  8
CONTINUOUS
 62
256
370
-1
 48
1.0
  6
ByLayer
 10
692.05711059570297
 20
44.450000000000003
 30
0.0
 11
692.05711059570297
 21
0.0
 31
0.0
  0
LINE
  5
9B
100
AcDbEntity
100
AcDbLine
  8
CONTINUOUS
 62
256
370
-1
 48
1.0
  6
ByLayer
 10
825.5
 20
0.0
 30
0.0
 11
825.5
 21
44.450000000000003
 31
0.0
  0
MTEXT
  5
9C
100
AcDbEntity
100
AcDbMText
  8
CONTINUOUS
 62
256
370
-1
 48
1.0
  6
ByLayer
 10
729.02870499999995
 20
14.3529440000036
 30
0.0
 40
1.944097664543524
 41
0.0
 71
4
 72
1
  1
{\fArial|b0|i0|c0|p0;\C7;FSCM NO.}{\fArial|b0|i0|c0|p0;\C7;}
  7
textstyle28
 50
0.0
 73
1
 44
1.0
  0
MTEXT
  5
9D
100
AcDbEntity
100
AcDbMText
  8
CONTINUOUS
 62
256
370
-1
 48
1.0
  6
ByLayer
 10
719.85930499999995
 20
14.352944000002321
 30
0.0
 40
1.944097664543524
 41
0.0
 71
4
 72
1
  1
{\fArial|b0|i0|c0|p0;\C7;SIZE}{\fArial|b0|i0|c0|p0;\C7;}
  7
textstyle29
 50
0.0
 73
1
 44
1.0
  0
MTEXT
  5
9E
100
AcDbEntity
100
AcDbMText
  8
CONTINUOUS
 62
256
370
-1
 48
1.0
  6
ByLayer
 10
782.46776499999999
 20
3.5985839999858329
 30
0.0
 40
1.944097664543524
 41
0.0
 71
4
 72
1
  1
{\fArial|b0|i0|c0|p0;\C7;SHEET}{\fArial|b0|i0|c0|p0;\C7;}
  7
textstyle30
 50
0.0
 73
1
 44
1.0
  0
MTEXT
  5
9F
100
AcDbEntity
100
AcDbMText
  8
CONTINUOUS
 62
256
370
-1
 48
1.0
  6
ByLayer
 10
720.2830627441399
 20
10.382547760009951
 30
0.0
 40
4.7213800424628447
 41
0.0
 71
4
 72
1
  1
{\fArial|b0|i0|c0|p0;\C7;C}{\fArial|b0|i0|c0|p0;\C7;}
  7
textstyle24
 50
0.0
 73
1
 44
1.0
  0
MTEXT
  5
A0
100
AcDbEntity
100
AcDbMText
  8
CONTINUOUS
 62
256
370
-1
 48
1.0
  6
ByLayer
 10
668.48939208984416
 20
24.495897674560869
 30
0.0
 40
1.944097664543524
 41
0.0
 71
4
 72
1
  1
{\fArial|b0|i0|c0|p0;\C7;QA}{\fArial|b0|i0|c0|p0;\C7;}
  7
textstyle25
 50
0.0
 73
1
 44
1.0
  0
MTEXT
  5
A1
100
AcDbEntity
100
AcDbMText
  8
CONTINUOUS
 62
256
370
-1
 48
1.0
  6
ByLayer
 10
782.46776499999999
 20
3.5985839999858329
 30
0.0
 40
1.944097664543524
 41
0.0
 71
4
 72
1
  1
{\fArial|b0|i0|c0|p0;\C7;SHEET}{\fArial|b0|i0|c0|p0;\C7;}
  7
textstyle26
 50
0.0
 73
1
 44
1.0
  0
MTEXT
  5
A2
100
AcDbEntity
100
AcDbMText
  8
CONTINUOUS
 62
256
370
-1
 48
1.0
  6
ByLayer
 10
728.00481567382792
 20
30.096348953245329
 30
0.0
 40
9.8418259023354562
 41
0.0
 71
4
 72
1
  1
{\fTimes New Roman|b0|i0|c0|p0;\C7;M}{\fTimes New Roman|b0|i0|c0|p0;\C7;\H0.5555556x;edia}{\fMS Shell Dlg|b0|i0|c0|p0;\C7;\H0.25x;}
  7
textstyle27
 50
0.0
 73
1
 44
1.0
  0
MTEXT
  5
A3
100
AcDbEntity
100
AcDbMText
  8
CONTINUOUS
 62
256
370
-1
 48
1.0
  6
ByLayer
 10
721.21997070312489
 20
30.990205001830979
 30
0.0
 40
27.338405284265139
 41
0.0
 71
4
 72
1
  1
{\fTimes New Roman|b0|i0|c0|p0;\C7;C}{\fTimes New Roman|b0|i0|c0|p0;\C7;\H0.36x;onversions}{\fMS Shell Dlg|b0|i0|c0|p0;\C7;\H0.09x;}
  7
textstyle20
 50
0.0
 73
1
 44
1.0
  0
MTEXT
  5
A4
100
AcDbEntity
100
AcDbMText
  8
CONTINUOUS
 62
256
370
-1
 48
1.0
  6
ByLayer
 10
817.96934500000009
 20
14.35294400000142
 30
0.0
 40
1.944097664543524
 41
0.0
 71
4
 72
1
  1
{\fArial|b0|i0|c0|p0;\C7;REV}{\fArial|b0|i0|c0|p0;\C7;}
  7
textstyle21
 50
0.0
 73
1
 44
1.0
  0
MTEXT
  5
A5
100
AcDbEntity
100
AcDbMText
  8
CONTINUOUS
 62
256
370
-1
 48
1.0
  6
ByLayer
 10
668.45350341796905
 20
33.428884887695659
 30
0.0
 40
1.944097664543524
 41
0.0
 71
4
 72
1
  1
{\fArial|b0|i0|c0|p0;\C7;CHECKED}{\fArial|b0|i0|c0|p0;\C7;}
  7
textstyle22
 50
0.0
 73
1
 44
1.0
  0
MTEXT
  5
A6
100
AcDbEntity
100
AcDbMText
  8
CONTINUOUS
 62
256
370
-1
 48
1.0
  6
ByLayer
 10
671.45593261718807
 20
48.733370971679953
 30
0.0
 40
3.3327388535031832
 41
0.0
 71
4
 72
1
  1
{\fArial|b0|i0|c0|p0;\C1;Copyright Media-Conversions - Released for non-commercial use ONLY!}{\fMS Shell Dlg|b0|i0|c0|p0;\C7;\H0.75x;}
  7
textstyle23
 50
0.0
 73
1
 44
1.0
  0
MTEXT
  5
A7
100
AcDbEntity
100
AcDbMText
  8
CONTINUOUS
 62
256
370
-1
 48
1.0
  6
ByLayer
 10
668.71082763671905
 20
6.7795242309578496
 30
0.0
 40
1.944097664543524
 41
0.0
 71
4
 72
1
  1
{\fArial|b0|i0|c0|p0;\C7;APPROVED}{\fArial|b0|i0|c0|p0;\C7;}
  7
textstyle16
 50
0.0
 73
1
 44
1.0
  0
MTEXT
  5
A8
100
AcDbEntity
100
AcDbMText
  8
CONTINUOUS
 62
256
370
-1
 48
1.0
  6
ByLayer
 10
694.05969238281295
 20
39.655097198486857
 30
0.0
 40
2.4995541401273882
 41
0.0
 71
4
 72
1
  1
{\fArial|b0|i0|c0|p0;\C7;05/06/2011}{\fArial|b0|i0|c0|p0;\C7;}
  7
textstyle17
 50
0.0
 73
1
 44
1.0
  0
MTEXT
  5
A9
100
AcDbEntity
100
AcDbMText
  8
CONTINUOUS
 62
256
370
-1
 48
1.0
  6
ByLayer
 10
720.2830627441399
 20
10.382547760009951
 30
0.0
 40
4.7213800424628447
 41
0.0
 71
4
 72
1
  1
{\fArial|b0|i0|c0|p0;\C7;C}{\fArial|b0|i0|c0|p0;\C7;}
  7
textstyle18
 50
0.0
 73
1
 44
1.0
  0
MTEXT
  5
AA
100
AcDbEntity
100
AcDbMText
  8
CONTINUOUS
 62
256
370
-1
 48
1.0
  6
ByLayer
 10
668.64921264648501
 20
15.256433868409429
 30
0.0
 40
1.944097664543524
 41
0.0
 71
4
 72
1
  1
{\fArial|b0|i0|c0|p0;\C7;MFG}{\fArial|b0|i0|c0|p0;\C7;}
  7
textstyle19
 50
0.0
 73
1
 44
1.0
  0
MTEXT
  5
AB
100
AcDbEntity
100
AcDbMText
  8
CONTINUOUS
 62
256
370
-1
 48
1.0
  6
ByLayer
 10
693.66892700195285
 20
42.574793243408237
 30
0.0
 40
1.944097664543524
 41
0.0
 71
4
 72
1
  1
{\fArial|b0|i0|c0|p0;\C7;DATE}{\fArial|b0|i0|c0|p0;\C7;}
  7
textstyle12
 50
0.0
 73
1
 44
1.0
  0
MTEXT
  5
AC
100
AcDbEntity
100
AcDbMText
  8
CONTINUOUS
 62
256
370
-1
 48
1.0
  6
ByLayer
 10
668.45350341796905
 20
33.428884887695659
 30
0.0
 40
1.944097664543524
 41
0.0
 71
4
 72
1
  1
{\fArial|b0|i0|c0|p0;\C7;CHECKED}{\fArial|b0|i0|c0|p0;\C7;}
  7
textstyle13
 50
0.0
 73
1
 44
1.0
  0
MTEXT
  5
AD
100
AcDbEntity
100
AcDbMText
  8
CONTINUOUS
 62
256
370
-1
 48
1.0
  6
ByLayer
 10
718.95506499999999
 20
3.5985840000087621
 30
0.0
 40
1.944097664543524
 41
0.0
 71
4
 72
1
  1
{\fArial|b0|i0|c0|p0;\C7;SCALE}{\fArial|b0|i0|c0|p0;\C7;}
  7
textstyle14
 50
0.0
 73
1
 44
1.0
  0
MTEXT
  5
AE
100
AcDbEntity
100
AcDbMText
  8
CONTINUOUS
 62
256
370
-1
 48
1.0
  6
ByLayer
 10
718.95506499999999
 20
3.5985840000087621
 30
0.0
 40
1.944097664543524
 41
0.0
 71
4
 72
1
  1
{\fArial|b0|i0|c0|p0;\C7;SCALE}{\fArial|b0|i0|c0|p0;\C7;}
  7
textstyle15
 50
0.0
 73
1
 44
1.0
  0
MTEXT
  5
AF
100
AcDbEntity
100
AcDbMText
  8
CONTINUOUS
 62
256
370
-1
 48
1.0
  6
ByLayer
 10
757.53004499999997
 20
14.35294400000021
 30
0.0
 40
1.944097664543524
 41
0.0
 71
4
 72
1
  1
{\fArial|b0|i0|c0|p0;\C7;DWG NO.}{\fArial|b0|i0|c0|p0;\C7;}
  7
textstyle8
 50
0.0
 73
1
 44
1.0
  0
MTEXT
  5
B0
100
AcDbEntity
100
AcDbMText
  8
CONTINUOUS
 62
256
370
-1
 48
1.0
  6
ByLayer
 10
817.96934500000009
 20
14.35294400000142
 30
0.0
 40
1.944097664543524
 41
0.0
 71
4
 72
1
  1
{\fArial|b0|i0|c0|p0;\C7;REV}{\fArial|b0|i0|c0|p0;\C7;}
  7
textstyle9
 50
0.0
 73
1
 44
1.0
  0
MTEXT
  5
B1
100
AcDbEntity
100
AcDbMText
  8
CONTINUOUS
 62
256
370
-1
 48
1.0
  6
ByLayer
 10
668.30939941406314
 20
42.730375671386689
 30
0.0
 40
1.944097664543524
 41
0.0
 71
4
 72
1
  1
{\fArial|b0|i0|c0|p0;\C7;DRAWN}{\fArial|b0|i0|c0|p0;\C7;}
  7
textstyle10
 50
0.0
 73
1
 44
1.0
  0
MTEXT
  5
B2
100
AcDbEntity
100
AcDbMText
  8
CONTINUOUS
 62
256
370
-1
 48
1.0
  6
ByLayer
 10
729.02870499999995
 20
14.3529440000036
 30
0.0
 40
1.944097664543524
 41
0.0
 71
4
 72
1
  1
{\fArial|b0|i0|c0|p0;\C7;FSCM NO.}{\fArial|b0|i0|c0|p0;\C7;}
  7
textstyle11
 50
0.0
 73
1
 44
1.0
  0
MTEXT
  5
B3
100
AcDbEntity
100
AcDbMText
  8
CONTINUOUS
 62
256
370
-1
 48
1.0
  6
ByLayer
 10
668.64921264648501
 20
15.256433868409429
 30
0.0
 40
1.944097664543524
 41
0.0
 71
4
 72
1
  1
{\fArial|b0|i0|c0|p0;\C7;MFG}{\fArial|b0|i0|c0|p0;\C7;}
  7
textstyle4
 50
0.0
 73
1
 44
1.0
  0
MTEXT
  5
B4
100
AcDbEntity
100
AcDbMText
  8
CONTINUOUS
 62
256
370
-1
 48
1.0
  6
ByLayer
 10
668.48939208984416
 20
24.495897674560869
 30
0.0
 40
1.944097664543524
 41
0.0
 71
4
 72
1
  1
{\fArial|b0|i0|c0|p0;\C7;QA}{\fArial|b0|i0|c0|p0;\C7;}
  7
textstyle5
 50
0.0
 73
1
 44
1.0
  0
MTEXT
  5
B5
100
AcDbEntity
100
AcDbMText
  8
CONTINUOUS
 62
256
370
-1
 48
1.0
  6
ByLayer
 10
668.71082763671905
 20
6.7795242309578496
 30
0.0
 40
1.944097664543524
 41
0.0
 71
4
 72
1
  1
{\fArial|b0|i0|c0|p0;\C7;APPROVED}{\fArial|b0|i0|c0|p0;\C7;}
  7
textstyle6
 50
0.0
 73
1
 44
1.0
  0
MTEXT
  5
B6
100
AcDbEntity
100
AcDbMText
  8
CONTINUOUS
 62
256
370
-1
 48
1.0
  6
ByLayer
 10
668.30939941406314
 20
42.730375671386689
 30
0.0
 40
1.944097664543524
 41
0.0
 71
4
 72
1
  1
{\fArial|b0|i0|c0|p0;\C7;DRAWN}{\fArial|b0|i0|c0|p0;\C7;}
  7
textstyle7
 50
0.0
 73
1
 44
1.0
  0
MTEXT
  5
B7
100
AcDbEntity
100
AcDbMText
  8
CONTINUOUS
 62
256
370
-1
 48
1.0
  6
ByLayer
 10
757.53004499999997
 20
14.35294400000021
 30
0.0
 40
1.944097664543524
 41
0.0
 71
4
 72
1
  1
{\fArial|b0|i0|c0|p0;\C7;DWG NO.}{\fArial|b0|i0|c0|p0;\C7;}
  7
textstyle0
 50
0.0
 73
1
 44
1.0
  0
MTEXT
  5
B8
100
AcDbEntity
100
AcDbMText
  8
CONTINUOUS
 62
256
370
-1
 48
1.0
  6
ByLayer
 10
759.11944580078102
 20
10.406324577332709
 30
0.0
 40
2.4995541401273882
 41
0.0
 71
4
 72
1
  1
{\fArial|b0|i0|c0|p0;\C7;ring 2, rib c, rib c-left}{\fArial|b0|i0|c0|p0;\C7;}
  7
textstyle1
 50
0.0
 73
1
 44
1.0
  0
MTEXT
  5
B9
100
AcDbEntity
100
AcDbMText
  8
CONTINUOUS
 62
256
370
-1
 48
1.0
  6
ByLayer
 10
719.85930499999995
 20
14.352944000002321
 30
0.0
 40
1.944097664543524
 41
0.0
 71
4
 72
1
  1
{\fArial|b0|i0|c0|p0;\C7;SIZE}{\fArial|b0|i0|c0|p0;\C7;}
  7
textstyle2
 50
0.0
 73
1
 44
1.0
  0
MTEXT
  5
BA
100
AcDbEntity
100
AcDbMText
  8
CONTINUOUS
 62
256
370
-1
 48
1.0
  6
ByLayer
 10
693.66892700195285
 20
42.574793243408237
 30
0.0
 40
1.944097664543524
 41
0.0
 71
4
 72
1
  1
{\fArial|b0|i0|c0|p0;\C7;DATE}{\fArial|b0|i0|c0|p0;\C7;}
  7
textstyle3
 50
0.0
 73
1
 44
1.0
  0
ENDBLK
  5
BB
100
AcDbEntity
  8
0
100
AcDbBlockEnd
  0
ENDSEC
  0
SECTION
  2
ENTITIES
  0
CIRCLE
  5
BC
100
AcDbEntity
100
AcDbCircle
  8
VISIBLE
 62
256
370
-1
 48
1.0
  6
ByLayer
 10
122.6124578054211
 20
264.08614035018832
 30
0.0
 40
1.5874999999999999
  0
ARC
  5
BD
100
AcDbEntity
  8
VISIBLE
 62
256
370
-1
 48
1.0
  6
ByLayer
100
AcDbCircle
 10
190.77953197353409
 20
38.716489356993918
 30
0.0
 40
1.5
100
AcDbArc
 50
347.26235978672258
 51
167.25999998512671
  0
CIRCLE
  5
BE
100
AcDbEntity
100
AcDbCircle
  8
VISIBLE
 62
256
370
-1
 48
1.0
  6
ByLayer
 10
342.61245780542117
 20
264.08614035018832
 30
0.0
 40
1.5874999999999999
  0
ARC
  5
BF
100
AcDbEntity
  8
VISIBLE
 62
256
370
-1
 48
1.0
  6
ByLayer
100
AcDbCircle
 10
105.2273102348002
 20
384.28765432485687
 30
0.0
 40
1.5
100
AcDbArc
 50
220.5453332238979
 51
40.549999995538258
  0
ARC
  5
C0
100
AcDbEntity
  8
VISIBLE
 62
256
370
-1
 48
1.0
  6
ByLayer
100
AcDbCircle
 10
364.1682853011348
 20
384.28765432485687
 30
0.0
 40
1.5
100
AcDbArc
 50
139.45000002118621
 51
319.44513345841239
  0
ARC
  5
C1
100
AcDbEntity
  8
VISIBLE
 62
256
370
-1
 48
1.0
  6
ByLayer
100
AcDbCircle
 10
425.03493856385398
 20
174.37307368301779
 30
0.0
 40
1.5
100
AcDbArc
 50
72.885505420173885
 51
252.89000001216542
  0
ARC
  5
C2
100
AcDbEntity
  8
VISIBLE
 62
256
370
-1
 48
1.0
  6
ByLayer
100
AcDbCircle
 10
121.0249578054212
 20
296.01114035018838
 30
0.0
 40
1.5874999999999999
100
AcDbArc
 50
180.0
 51
0.0
  0
ARC
  5
C3
100
AcDbEntity
  8
VISIBLE
 62
256
370
-1
 48
1.0
  6
ByLayer
100
AcDbCircle
 10
278.61606356240111
 20
38.716489356993918
 30
0.0
 40
1.5
100
AcDbArc
 50
12.73999999340502
 51
192.7382421509142
  0
ARC
  5
C4
100
AcDbEntity
  8
VISIBLE
 62
256
370
-1
 48
1.0
  6
ByLayer
100
AcDbCircle
 10
341.0249578054212
 20
296.01114035018838
 30
0.0
 40
1.5874999999999999
100
AcDbArc
 50
180.0
 51
0.0
  0
ARC
  5
C5
100
AcDbEntity
  8
VISIBLE
 62
256
370
-1
 48
1.0
  6
ByLayer
100
AcDbCircle
 10
366.5031344585031
 20
83.671221492996523
 30
0.0
 40
1.5
100
AcDbArc
 50
41.440546842667679
 51
221.44000000334299
  0
ARC
  5
C6
100
AcDbEntity
  8
VISIBLE
 62
256
370
-1
 48
1.0
  6
ByLayer
100
AcDbCircle
 10
44.360656972081017
 20
291.55650642305199
 30
0.0
 40
1.5
100
AcDbArc
 50
252.88517524913806
 51
72.889999985092359
  0
ARC
  5
C7
100
AcDbEntity
  8
VISIBLE
 62
256
370
-1
 48
1.0
  6
ByLayer
100
AcDbCircle
 10
53.176404249930023
 20
314.88670463493162
 30
0.0
 40
1.5
100
AcDbArc
 50
245.70885582902494
 51
65.710000000036146
  0
LINE
  5
C8
100
AcDbEntity
100
AcDbLine
  8
VISIBLE
 62
256
370
-1
 48
1.0
  6
ByLayer
 10
152.20345780542121
 20
166.91844035018801
 30
0.0
 11
122.6124578054211
 21
166.91844035018801
 31
0.0
  0
ARC
  5
C9
100
AcDbEntity
  8
VISIBLE
 62
256
370
-1
 48
1.0
  6
ByLayer
100
AcDbCircle
 10
234.69779776749431
 20
232.964790410793
 30
0.0
 40
228.80065999999991
100
AcDbArc
 50
336.08562945239851
 51
342.51437038248832
  0
LINE
  5
CA
100
AcDbEntity
100
AcDbLine
  8
VISIBLE
 62
256
370
-1
 48
1.0
  6
ByLayer
 10
372.20345780542118
 20
166.91844035018801
 30
0.0
 11
342.61245780542117
 21
166.91844035018801
 31
0.0
  0
ARC
  5
CB
100
AcDbEntity
  8
VISIBLE
 62
256
370
-1
 48
1.0
  6
ByLayer
100
AcDbCircle
 10
274.64056406875739
 20
428.06935641112398
 30
0.0
 40
1.5
100
AcDbArc
 50
168.43000001428041
 51
348.42871626763502
  0
ARC
  5
CC
100
AcDbEntity
  8
VISIBLE
 62
256
370
-1
 48
1.0
  6
ByLayer
100
AcDbCircle
 10
102.892461077432
 20
83.671221492996523
 30
0.0
 40
1.5
100
AcDbArc
 50
318.56125493371832
 51
138.55999998015676
  0
ARC
  5
CD
100
AcDbEntity
  8
VISIBLE
 62
256
370
-1
 48
1.0
  6
ByLayer
100
AcDbCircle
 10
416.21919128600518
 20
314.88670463493162
 30
0.0
 40
1.5
100
AcDbArc
 50
114.2899999999659
 51
294.28846626857302
  0
LINE
  5
CE
100
AcDbEntity
100
AcDbLine
  8
VISIBLE
 62
256
370
-1
 48
1.0
  6
ByLayer
 10
152.20345780542121
 20
299.01114035018838
 30
0.0
 11
152.20345780542121
 21
166.91844035018829
 31
0.0
  0
ARC
  5
CF
100
AcDbEntity
  8
VISIBLE
 62
256
370
-1
 48
1.0
  6
ByLayer
100
AcDbCircle
 10
53.176404249930023
 20
151.0428754711381
 30
0.0
 40
1.5
100
AcDbArc
 50
294.29153589610303
 51
114.28999999996371
  0
LINE
  5
D0
100
AcDbEntity
100
AcDbLine
  8
VISIBLE
 62
256
370
-1
 48
1.0
  6
ByLayer
 10
372.20345780542118
 20
299.01114035018838
 30
0.0
 11
372.20345780542118
 21
166.91844035018829
 31
0.0
  0
ARC
  5
D1
100
AcDbEntity
  8
VISIBLE
 62
256
370
-1
 48
1.0
  6
ByLayer
100
AcDbCircle
 10
234.69779776749431
 20
232.964790410793
 30
0.0
 40
228.80065999999999
100
AcDbArc
 50
49.825629478163101
 51
78.054370451448236
  0
ARC
  5
D2
100
AcDbEntity
  8
VISIBLE
 62
256
370
-1
 48
1.0
  6
ByLayer
100
AcDbCircle
 10
416.21919128600518
 20
151.0428754711381
 30
0.0
 40
1.5
100
AcDbArc
 50
65.710000000038022
 51
245.70884717300729
  0
ARC
  5
D3
100
AcDbEntity
  8
VISIBLE
 62
256
370
-1
 48
1.0
  6
ByLayer
100
AcDbCircle
 10
44.360656972081017
 20
174.37307368301779
 30
0.0
 40
1.5
100
AcDbArc
 50
287.1099999813585
 51
107.11440798724469
  0
LINE
  5
D4
100
AcDbEntity
100
AcDbLine
  8
VISIBLE
 62
256
370
-1
 48
1.0
  6
ByLayer
 10
119.4374578054211
 20
172.91844035018801
 30
0.0
 11
97.192137805420856
 21
172.91844035018801
 31
0.0
  0
ARC
  5
D5
100
AcDbEntity
  8
VISIBLE
 62
256
370
-1
 48
1.0
  6
ByLayer
100
AcDbCircle
 10
234.69779776749431
 20
232.964790410793
 30
0.0
 40
228.80065999999991
100
AcDbArc
 50
24.66562945342195
 51
49.074370413378098
  0
LINE
  5
D6
100
AcDbEntity
100
AcDbLine
  8
VISIBLE
 62
256
370
-1
 48
1.0
  6
ByLayer
 10
339.4374578054211
 20
172.91844035018801
 30
0.0
 11
317.19213780542088
 21
172.91844035018801
 31
0.0
  0
ARC
  5
D7
100
AcDbEntity
  8
VISIBLE
 62
256
370
-1
 48
1.0
  6
ByLayer
100
AcDbCircle
 10
234.69779776749431
 20
232.964790410793
 30
0.0
 40
228.80065999999999
100
AcDbArc
 50
156.085629612498
 51
162.51437054998479
  0
ARC
  5
D8
100
AcDbEntity
  8
VISIBLE
 62
256
370
-1
 48
1.0
  6
ByLayer
100
AcDbCircle
 10
194.75503146717779
 20
428.06935641112398
 30
0.0
 40
1.5
100
AcDbArc
 50
191.57000000728351
 51
11.569081346152119
  0
ARC
  5
D9
100
AcDbEntity
  8
VISIBLE
 62
256
370
-1
 48
1.0
  6
ByLayer
100
AcDbCircle
 10
425.03493856385398
 20
291.55650642305199
 30
0.0
 40
1.5
100
AcDbArc
 50
107.11000002138249
 51
287.10509740698541
  0
CIRCLE
  5
DA
100
AcDbEntity
100
AcDbCircle
  8
VISIBLE
 62
256
370
-1
 48
1.0
  6
ByLayer
 10
122.6124578054211
 20
245.0361403501883
 30
0.0
 40
1.5874999999999999
  0
ARC
  5
DB
100
AcDbEntity
  8
VISIBLE
 62
256
370
-1
 48
1.0
  6
ByLayer
100
AcDbCircle
 10
17.122797767366592
 20
245.66479041066052
 30
0.0
 40
1.5
100
AcDbArc
 50
0.000000001859683
 51
179.99999999814031
  0
CIRCLE
  5
DC
100
AcDbEntity
100
AcDbCircle
  8
VISIBLE
 62
256
370
-1
 48
1.0
  6
ByLayer
 10
342.61245780542117
 20
245.0361403501883
 30
0.0
 40
1.5874999999999999
  0
ARC
  5
DD
100
AcDbEntity
  8
VISIBLE
 62
256
370
-1
 48
1.0
  6
ByLayer
100
AcDbCircle
 10
234.69779776749431
 20
232.964790410793
 30
0.0
 40
228.80065999999999
100
AcDbArc
 50
130.92562958871841
 51
155.33437054771298
  0
LINE
  5
DE
100
AcDbEntity
100
AcDbLine
  8
VISIBLE
 62
256
370
-1
 48
1.0
  6
ByLayer
 10
196.22455688984451
 20
428.370180333284
 30
0.0
 11
190.27890256725149
 21
457.41234278244502
 31
0.0
  0
LINE
  5
DF
100
AcDbEntity
100
AcDbLine
  8
VISIBLE
 62
256
370
-1
 48
1.0
  6
ByLayer
 10
193.28551086782491
 20
427.76850892709177
 30
0.0
 11
187.33986136904019
 21
456.81064781386289
 31
0.0
  0
LINE
  5
E0
100
AcDbEntity
100
AcDbLine
  8
VISIBLE
 62
256
370
-1
 48
1.0
  6
ByLayer
 10
122.6124578054211
 20
296.01114035018838
 30
0.0
 11
122.6124578054211
 21
299.01114035018838
 31
0.0
  0
LINE
  5
E1
100
AcDbEntity
100
AcDbLine
  8
VISIBLE
 62
256
370
-1
 48
1.0
  6
ByLayer
 10
273.17104346911123
 20
428.37020389463993
 30
0.0
 11
279.11669295714859
 21
457.41234278454039
 31
0.0
  0
LINE
  5
E2
100
AcDbEntity
100
AcDbLine
  8
VISIBLE
 62
256
370
-1
 48
1.0
  6
ByLayer
 10
342.61245780542117
 20
296.01114035018838
 30
0.0
 11
342.61245780542117
 21
299.01114035018838
 31
0.0
  0
ARC
  5
E3
100
AcDbEntity
  8
VISIBLE
 62
256
370
-1
 48
1.0
  6
ByLayer
100
AcDbCircle
 10
452.2727977675487
 20
245.66479041066049
 30
0.0
 40
1.5
100
AcDbArc
 50
0.000000001859683
 51
179.99999999814031
  0
LINE
  5
E4
100
AcDbEntity
100
AcDbLine
  8
VISIBLE
 62
256
370
-1
 48
1.0
  6
ByLayer
 10
276.11007792700042
 20
427.76847600225898
 30
0.0
 11
282.05573415538828
 21
456.81064781609717
 31
0.0
  0
ARC
  5
E5
100
AcDbEntity
  8
VISIBLE
 62
256
370
-1
 48
1.0
  6
ByLayer
100
AcDbCircle
 10
234.69779776749431
 20
232.964790410793
 30
0.0
 40
228.80065999999999
100
AcDbArc
 50
78.805629516233225
 51
101.19437048646979
  0
LINE
  5
E6
100
AcDbEntity
100
AcDbLine
  8
VISIBLE
 62
256
370
-1
 48
1.0
  6
ByLayer
 10
122.6124578054211
 20
299.01114035018838
 30
0.0
 11
152.20345780542121
 21
299.01114035018838
 31
0.0
  0
LINE
  5
E7
100
AcDbEntity
100
AcDbLine
  8
VISIBLE
 62
256
370
-1
 48
1.0
  6
ByLayer
 10
365.30796085777541
 20
383.31239045000689
 30
0.0
 11
384.580272620073
 21
405.83753478798411
 31
0.0
  0
LINE
  5
E8
100
AcDbEntity
100
AcDbLine
  8
VISIBLE
 62
256
370
-1
 48
1.0
  6
ByLayer
 10
342.61245780542117
 20
299.01114035018838
 30
0.0
 11
372.20345780542118
 21
299.01114035018838
 31
0.0
  0
LINE
  5
E9
100
AcDbEntity
100
AcDbLine
  8
VISIBLE
 62
256
370
-1
 48
1.0
  6
ByLayer
 10
363.02852690797181
 20
385.26282139846802
 30
0.0
 11
382.30075584454102
 21
407.78786893116802
 31
0.0
  0
LINE
  5
EA
100
AcDbEntity
100
AcDbLine
  8
VISIBLE
 62
256
370
-1
 48
1.0
  6
ByLayer
 10
415.60215836160859
 20
316.25391726353803
 30
0.0
 11
442.62238440474522
 21
328.44834024092808
 31
0.0
  0
CIRCLE
  5
EB
100
AcDbEntity
100
AcDbCircle
  8
VISIBLE
 62
256
370
-1
 48
1.0
  6
ByLayer
 10
234.69779776745699
 20
35.939530410734932
 30
0.0
 40
1.5874999999999999
  0
LINE
  5
EC
100
AcDbEntity
100
AcDbLine
  8
VISIBLE
 62
256
370
-1
 48
1.0
  6
ByLayer
 10
122.6124578054211
 20
166.91844035018801
 30
0.0
 11
122.6124578054211
 21
172.91844035018801
 31
0.0
  0
LINE
  5
ED
100
AcDbEntity
100
AcDbLine
  8
VISIBLE
 62
256
370
-1
 48
1.0
  6
ByLayer
 10
416.83618761101741
 20
313.51947548993672
 30
0.0
 11
443.85645024835128
 21
325.71391498255213
 31
0.0
  0
LINE
  5
EE
100
AcDbEntity
100
AcDbLine
  8
VISIBLE
 62
256
370
-1
 48
1.0
  6
ByLayer
 10
342.61245780542117
 20
166.91844035018801
 30
0.0
 11
342.61245780542117
 21
172.91844035018801
 31
0.0
  0
ARC
  5
EF
100
AcDbEntity
  8
VISIBLE
 62
256
370
-1
 48
1.0
  6
ByLayer
100
AcDbCircle
 10
234.69779776749431
 20
232.964790410793
 30
0.0
 40
228.80065999999991
100
AcDbArc
 50
101.9456295512548
 51
130.17437052393342
  0
LINE
  5
F0
100
AcDbEntity
100
AcDbLine
  8
VISIBLE
 62
256
370
-1
 48
1.0
  6
ByLayer
 10
425.47612660034679
 20
290.12285614614967
 30
0.0
 11
453.80873648291163
 21
298.8445183374036
 31
0.0
  0
LINE
  5
F1
100
AcDbEntity
100
AcDbLine
  8
VISIBLE
 62
256
370
-1
 48
1.0
  6
ByLayer
 10
424.59362785454852
 20
292.99011894891788
 30
0.0
 11
452.92611507268208
 21
301.71174338022888
 31
0.0
  0
LINE
  5
F2
100
AcDbEntity
100
AcDbLine
  8
VISIBLE
 62
256
370
-1
 48
1.0
  6
ByLayer
 10
97.192137805420856
 20
172.91844035018801
 30
0.0
 11
97.192137805420856
 21
296.01114035018838
 31
0.0
  0
LINE
  5
F3
100
AcDbEntity
100
AcDbLine
  8
VISIBLE
 62
256
370
-1
 48
1.0
  6
ByLayer
 10
424.59362785564639
 20
172.93946115773289
 30
0.0
 11
452.92611487268368
 21
164.2178368064877
 31
0.0
  0
LINE
  5
F4
100
AcDbEntity
100
AcDbLine
  8
VISIBLE
 62
256
370
-1
 48
1.0
  6
ByLayer
 10
317.19213780542088
 20
172.91844035018801
 30
0.0
 11
317.19213780542088
 21
296.01114035018838
 31
0.0
  0
ARC
  5
F5
100
AcDbEntity
  8
VISIBLE
 62
256
370
-1
 48
1.0
  6
ByLayer
100
AcDbCircle
 10
234.69779776749431
 20
232.964790410793
 30
0.0
 40
228.80065999999999
100
AcDbArc
 50
17.485629450826977
 51
23.914370388636961
  0
LINE
  5
F6
100
AcDbEntity
100
AcDbLine
  8
VISIBLE
 62
256
370
-1
 48
1.0
  6
ByLayer
 10
425.47636172969749
 20
175.80665158068149
 30
0.0
 11
453.80873629125438
 21
167.08506184674519
 31
0.0
  0
ARC
  5
F7
100
AcDbEntity
  8
VISIBLE
 62
256
370
-1
 48
1.0
  6
ByLayer
100
AcDbCircle
 10
234.69779776749431
 20
232.964790410793
 30
0.0
 40
228.80065999999991
100
AcDbArc
 50
283.11562951208538
 51
311.06437040883668
  0
LINE
  5
F8
100
AcDbEntity
100
AcDbLine
  8
VISIBLE
 62
256
370
-1
 48
1.0
  6
ByLayer
 10
97.192137805420856
 20
296.01114035018838
 30
0.0
 11
119.4374578054211
 21
296.01114035018838
 31
0.0
  0
LINE
  5
F9
100
AcDbEntity
100
AcDbLine
  8
VISIBLE
 62
256
370
-1
 48
1.0
  6
ByLayer
 10
415.6021308532666
 20
149.67567525816389
 30
0.0
 11
442.6223841398305
 21
137.4812400037805
 31
0.0
  0
LINE
  5
FA
100
AcDbEntity
100
AcDbLine
  8
VISIBLE
 62
256
370
-1
 48
1.0
  6
ByLayer
 10
317.19213780542088
 20
296.01114035018838
 30
0.0
 11
339.4374578054211
 21
296.01114035018838
 31
0.0
  0
LINE
  5
FB
100
AcDbEntity
100
AcDbLine
  8
VISIBLE
 62
256
370
-1
 48
1.0
  6
ByLayer
 10
416.83622420954129
 20
152.410088099874
 30
0.0
 11
443.85644999102311
 21
140.2156652587328
 31
0.0
  0
LINE
  5
FC
100
AcDbEntity
100
AcDbLine
  8
VISIBLE
 62
256
370
-1
 48
1.0
  6
ByLayer
 10
365.37866065237131
 20
82.678468422226331
 30
0.0
 11
384.99844139810972
 21
60.455490543631207
 31
0.0
  0
LINE
  5
FD
100
AcDbEntity
100
AcDbLine
  8
VISIBLE
 62
256
370
-1
 48
1.0
  6
ByLayer
 10
367.62759878955399
 20
84.66398529582122
 30
0.0
 11
387.2473890124258
 21
62.440996682645142
 31
0.0
  0
LINE
  5
FE
100
AcDbEntity
100
AcDbLine
  8
VISIBLE
 62
256
370
-1
 48
1.0
  6
ByLayer
 10
280.07913480006061
 20
39.047280160450207
 30
0.0
 11
286.61655403102071
 21
10.13260071530914
 31
0.0
  0
ARC
  5
FF
100
AcDbEntity
  8
VISIBLE
 62
256
370
-1
 48
1.0
  6
ByLayer
100
AcDbCircle
 10
341.0249578054212
 20
172.91844035018801
 30
0.0
 40
1.5874999999999999
100
AcDbArc
 50
0.0
 51
180.0
  0
ARC
  5
100
100
AcDbEntity
  8
VISIBLE
 62
256
370
-1
 48
1.0
  6
ByLayer
100
AcDbCircle
 10
121.0249578054212
 20
172.91844035018801
 30
0.0
 40
1.5874999999999999
100
AcDbArc
 50
0.0
 51
180.0
  0
LINE
  5
101
100
AcDbEntity
100
AcDbLine
  8
VISIBLE
 62
256
370
-1
 48
1.0
  6
ByLayer
 10
277.15298217741082
 20
38.38574344107812
 30
0.0
 11
283.69041155692042
 21
9.4710191094081324
 31
0.0
  0
LINE
  5
102
100
AcDbEntity
100
AcDbLine
  8
VISIBLE
 62
256
370
-1
 48
1.0
  6
ByLayer
 10
192.24261683319611
 20
38.385758811926621
 30
0.0
 11
185.705183967571
 21
9.4710191117092108
 31
0.0
  0
LINE
  5
103
100
AcDbEntity
100
AcDbLine
  8
VISIBLE
 62
256
370
-1
 48
1.0
  6
ByLayer
 10
189.31646073545031
 20
39.04728016112233
 30
0.0
 11
182.77904149350189
 21
10.132600717747639
 31
0.0
  0
LINE
  5
104
100
AcDbEntity
100
AcDbLine
  8
VISIBLE
 62
256
370
-1
 48
1.0
  6
ByLayer
 10
104.0169566272959
 20
82.678493051618631
 30
0.0
 11
84.397154130651614
 21
60.455490549056833
 31
0.0
  0
CIRCLE
  5
105
100
AcDbEntity
100
AcDbCircle
  8
VISIBLE
 62
256
370
-1
 48
1.0
  6
ByLayer
 10
342.61245780542117
 20
251.3861403501883
 30
0.0
 40
1.5874999999999999
  0
CIRCLE
  5
106
100
AcDbEntity
100
AcDbCircle
  8
VISIBLE
 62
256
370
-1
 48
1.0
  6
ByLayer
 10
122.6124578054211
 20
251.3861403501883
 30
0.0
 40
1.5874999999999999
  0
LINE
  5
107
100
AcDbEntity
100
AcDbLine
  8
VISIBLE
 62
256
370
-1
 48
1.0
  6
ByLayer
 10
101.7679872713624
 20
84.663974564288026
 30
0.0
 11
82.148206516407214
 21
62.440996688152012
 31
0.0
  0
LINE
  5
108
100
AcDbEntity
100
AcDbLine
  8
VISIBLE
 62
256
370
-1
 48
1.0
  6
ByLayer
 10
52.559371326512412
 20
152.41008810018761
 30
0.0
 11
25.539145542128409
 21
140.21566526287589
 31
0.0
  0
LINE
  5
109
100
AcDbEntity
100
AcDbLine
  8
VISIBLE
 62
256
370
-1
 48
1.0
  6
ByLayer
 10
53.793473823504911
 20
149.67567938374921
 30
0.0
 11
26.77321139326671
 21
137.4812400078992
 31
0.0
  0
LINE
  5
10A
100
AcDbEntity
100
AcDbLine
  8
VISIBLE
 62
256
370
-1
 48
1.0
  6
ByLayer
 10
44.801967680076807
 20
172.93946115784499
 30
0.0
 11
16.469480661331001
 21
164.21783680957941
 31
0.0
  0
CIRCLE
  5
10B
100
AcDbEntity
100
AcDbCircle
  8
VISIBLE
 62
256
370
-1
 48
1.0
  6
ByLayer
 10
342.61245780542117
 20
257.73614035018829
 30
0.0
 40
1.5874999999999999
  0
CIRCLE
  5
10C
100
AcDbEntity
100
AcDbCircle
  8
VISIBLE
 62
256
370
-1
 48
1.0
  6
ByLayer
 10
122.6124578054211
 20
257.73614035018829
 30
0.0
 40
1.5874999999999999
  0
LINE
  5
10D
100
AcDbEntity
100
AcDbLine
  8
VISIBLE
 62
256
370
-1
 48
1.0
  6
ByLayer
 10
43.919235972843012
 20
175.80665224780779
 30
0.0
 11
15.586859242800809
 21
167.0850618498495
 31
0.0
  0
LINE
  5
10E
100
AcDbEntity
100
AcDbLine
  8
VISIBLE
 62
256
370
-1
 48
1.0
  6
ByLayer
 10
43.919225545151193
 20
290.12293106915018
 30
0.0
 11
15.586859051143589
 21
298.84451833429932
 31
0.0
  0
LINE
  5
10F
100
AcDbEntity
100
AcDbLine
  8
VISIBLE
 62
256
370
-1
 48
1.0
  6
ByLayer
 10
44.801967681174723
 20
292.99011894880567
 30
0.0
 11
16.469480461332491
 21
301.71174337713722
 31
0.0
  0
LINE
  5
110
100
AcDbEntity
100
AcDbLine
  8
VISIBLE
 62
256
370
-1
 48
1.0
  6
ByLayer
 10
52.559344023743897
 20
313.51950432873753
 30
0.0
 11
25.539145284800099
 21
325.71391497840898
 31
0.0
  0
ARC
  5
111
100
AcDbEntity
  8
VISIBLE
 62
256
370
-1
 48
1.0
  6
ByLayer
100
AcDbCircle
 10
234.69779776749431
 20
232.964790410793
 30
0.0
 40
228.80065999999999
100
AcDbArc
 50
257.63562955000839
 51
282.36437044730042
  0
LINE
  5
112
100
AcDbEntity
100
AcDbLine
  8
VISIBLE
 62
256
370
-1
 48
1.0
  6
ByLayer
 10
53.793437174013093
 20
316.25391726341951
 30
0.0
 11
26.77321112835202
 21
328.44834023680949
 31
0.0
  0
CIRCLE
  5
113
100
AcDbEntity
100
AcDbCircle
  8
VISIBLE
 62
256
370
-1
 48
1.0
  6
ByLayer
 10
234.69779776749431
 20
232.964790410793
 30
0.0
 40
169.49928
  0
LINE
  5
114
100
AcDbEntity
100
AcDbLine
  8
VISIBLE
 62
256
370
-1
 48
1.0
  6
ByLayer
 10
84.815322908590218
 20
405.83753478249997
 30
0.0
 11
104.0874724219409
 21
383.31258009159268
 31
0.0
  0
LINE
  5
115
100
AcDbEntity
100
AcDbLine
  8
VISIBLE
 62
256
370
-1
 48
1.0
  6
ByLayer
 10
87.094839684050896
 20
407.78786892576721
 30
0.0
 11
106.367068627346
 21
385.26282139851611
 31
0.0
  0
ARC
  5
116
100
AcDbEntity
  8
VISIBLE
 62
256
370
-1
 48
1.0
  6
ByLayer
100
AcDbCircle
 10
234.69779776749431
 20
232.964790410793
 30
0.0
 40
228.80065999999999
100
AcDbArc
 50
163.26562961476978
 51
196.73437055191491
  0
LINE
  5
117
100
AcDbEntity
100
AcDbLine
  8
VISIBLE
 62
256
370
-1
 48
1.0
  6
ByLayer
 10
15.62279776736659
 20
220.2647904107348
 30
0.0
 11
15.62279776736659
 21
245.6647904107092
 31
0.0
  0
LINE
  5
118
100
AcDbEntity
100
AcDbLine
  8
VISIBLE
 62
256
370
-1
 48
1.0
  6
ByLayer
 10
453.7727977675487
 20
245.6647904107092
 30
0.0
 11
453.7727977675487
 21
220.2647904107348
 31
0.0
  0
ARC
  5
119
100
AcDbEntity
  8
VISIBLE
 62
256
370
-1
 48
1.0
  6
ByLayer
100
AcDbCircle
 10
452.2727977675487
 20
220.2647904107092
 30
0.0
 40
1.5
100
AcDbArc
 50
180.0
 51
0.000000000465735
  0
ARC
  5
11A
100
AcDbEntity
  8
VISIBLE
 62
256
370
-1
 48
1.0
  6
ByLayer
100
AcDbCircle
 10
234.69779776749431
 20
232.964790410793
 30
0.0
 40
228.80065999999999
100
AcDbArc
 50
311.81562947362181
 51
335.33437038761338
  0
ARC
  5
11B
100
AcDbEntity
  8
VISIBLE
 62
256
370
-1
 48
1.0
  6
ByLayer
100
AcDbCircle
 10
234.69779776749431
 20
232.964790410793
 30
0.0
 40
228.80065999999991
100
AcDbArc
 50
343.26562944727323
 51
16.734370386041999
  0
ARC
  5
11C
100
AcDbEntity
  8
VISIBLE
 62
256
370
-1
 48
1.0
  6
ByLayer
100
AcDbCircle
 10
234.69779776749431
 20
232.964790410793
 30
0.0
 40
228.80065999999999
100
AcDbArc
 50
197.48562961670009
 51
203.9143705464665
  0
ARC
  5
11D
100
AcDbEntity
  8
VISIBLE
 62
256
370
-1
 48
1.0
  6
ByLayer
100
AcDbCircle
 10
17.122797767366588
 20
220.2647904107348
 30
0.0
 40
1.5
100
AcDbArc
 50
180.0
 51
0.0
  0
ARC
  5
11E
100
AcDbEntity
  8
VISIBLE
 62
256
370
-1
 48
1.0
  6
ByLayer
100
AcDbCircle
 10
234.69779776749431
 20
232.964790410793
 30
0.0
 40
228.80065999999999
100
AcDbArc
 50
204.66562961125149
 51
228.18437052430991
  0
ARC
  5
11F
100
AcDbEntity
  8
VISIBLE
 62
256
370
-1
 48
1.0
  6
ByLayer
100
AcDbCircle
 10
234.69779776749431
 20
232.964790410793
 30
0.0
 40
228.80065999999991
100
AcDbArc
 50
228.9356295890949
 51
256.88437048522349
  0
LINE
  5
120
100
AcDbEntity
100
AcDbLine
  8
VISIBLE
 62
256
370
-1
 48
1.0
  6
ByLayer
 10
18.622797767366588
 20
245.6647904107092
 30
0.0
 11
18.622797767366588
 21
220.2647904107092
 31
0.0
  0
LINE
  5
121
100
AcDbEntity
100
AcDbLine
  8
VISIBLE
 62
256
370
-1
 48
1.0
  6
ByLayer
 10
450.7727977675487
 20
220.2647904107092
 30
0.0
 11
450.7727977675487
 21
245.6647904107092
 31
0.0
  0
LINE
  5
122
100
AcDbEntity
100
AcDbLine
  8
VISIBLE
 62
256
370
-1
 48
1.0
  6
ByLayer
 10
221.99779780542099
 20
92.918439692258033
 30
0.0
 11
221.99779780542099
 21
86.918440350188263
 31
0.0
  0
LINE
  5
123
100
AcDbEntity
100
AcDbLine
  8
VISIBLE
 62
256
370
-1
 48
1.0
  6
ByLayer
 10
221.99779780542099
 20
242.918439692258
 30
0.0
 11
221.99779780542099
 21
236.91844035018829
 31
0.0
  0
LINE
  5
124
100
AcDbEntity
100
AcDbLine
  8
VISIBLE
 62
256
370
-1
 48
1.0
  6
ByLayer
 10
247.39779780542091
 20
219.01114035018821
 30
0.0
 11
247.39779780542091
 21
216.01114008469631
 31
0.0
  0
LINE
  5
125
100
AcDbEntity
100
AcDbLine
  8
VISIBLE
 62
256
370
-1
 48
1.0
  6
ByLayer
 10
247.39779780542091
 20
369.01114035018833
 30
0.0
 11
247.39779780542091
 21
366.01114008469631
 31
0.0
  0
LINE
  5
126
100
AcDbEntity
100
AcDbLine
  8
VISIBLE
 62
256
370
-1
 48
1.0
  6
ByLayer
 10
298.98519780542108
 20
216.01114035018821
 30
0.0
 11
298.98519780542108
 21
92.918440350188149
 31
0.0
  0
LINE
  5
127
100
AcDbEntity
100
AcDbLine
  8
VISIBLE
 62
256
370
-1
 48
1.0
  6
ByLayer
 10
298.98519780542108
 20
366.01114035018833
 30
0.0
 11
298.98519780542108
 21
242.91844035018809
 31
0.0
  0
ARC
  5
128
100
AcDbEntity
  8
VISIBLE
 62
256
370
-1
 48
1.0
  6
ByLayer
100
AcDbCircle
 10
245.81029780542079
 20
92.918440350188149
 30
0.0
 40
1.5874999999999999
100
AcDbArc
 50
0.0
 51
180.0
  0
ARC
  5
129
100
AcDbEntity
  8
VISIBLE
 62
256
370
-1
 48
1.0
  6
ByLayer
100
AcDbCircle
 10
245.81029780542079
 20
242.91844035018809
 30
0.0
 40
1.5874999999999999
100
AcDbArc
 50
0.0
 51
180.0
  0
LINE
  5
12A
100
AcDbEntity
100
AcDbLine
  8
VISIBLE
 62
256
370
-1
 48
1.0
  6
ByLayer
 10
272.79779780542088
 20
86.918440350188263
 30
0.0
 11
247.39779780542091
 21
86.918440350188263
 31
0.0
  0
LINE
  5
12B
100
AcDbEntity
100
AcDbLine
  8
VISIBLE
 62
256
370
-1
 48
1.0
  6
ByLayer
 10
272.79779780542088
 20
236.91844035018829
 30
0.0
 11
247.39779780542091
 21
236.91844035018829
 31
0.0
  0
LINE
  5
12C
100
AcDbEntity
100
AcDbLine
  8
VISIBLE
 62
256
370
-1
 48
1.0
  6
ByLayer
 10
247.39779780542091
 20
86.918440350188263
 30
0.0
 11
247.39779780542091
 21
92.918440350188149
 31
0.0
  0
LINE
  5
12D
100
AcDbEntity
100
AcDbLine
  8
VISIBLE
 62
256
370
-1
 48
1.0
  6
ByLayer
 10
247.39779780542091
 20
236.91844035018829
 30
0.0
 11
247.39779780542091
 21
242.91844035018809
 31
0.0
  0
LINE
  5
12E
100
AcDbEntity
100
AcDbLine
  8
VISIBLE
 62
256
370
-1
 48
1.0
  6
ByLayer
 10
221.99779780542099
 20
219.01114035018821
 30
0.0
 11
247.39779780542091
 21
219.01114035018821
 31
0.0
  0
LINE
  5
12F
100
AcDbEntity
100
AcDbLine
  8
VISIBLE
 62
256
370
-1
 48
1.0
  6
ByLayer
 10
221.99779780542099
 20
369.01114035018833
 30
0.0
 11
247.39779780542091
 21
369.01114035018833
 31
0.0
  0
ARC
  5
130
100
AcDbEntity
  8
VISIBLE
 62
256
370
-1
 48
1.0
  6
ByLayer
100
AcDbCircle
 10
272.79779780542088
 20
188.5932403501883
 30
0.0
 40
1.5
100
AcDbArc
 50
270.0
 51
90.0
  0
ARC
  5
131
100
AcDbEntity
  8
VISIBLE
 62
256
370
-1
 48
1.0
  6
ByLayer
100
AcDbCircle
 10
272.79779780542088
 20
338.59324035018818
 30
0.0
 40
1.5
100
AcDbArc
 50
270.0
 51
90.0
  0
ARC
  5
132
100
AcDbEntity
  8
VISIBLE
 62
256
370
-1
 48
1.0
  6
ByLayer
100
AcDbCircle
 10
274.38529780542092
 20
92.918440350188149
 30
0.0
 40
1.5875000000000909
100
AcDbArc
 50
0.0
 51
180.0
  0
ARC
  5
133
100
AcDbEntity
  8
VISIBLE
 62
256
370
-1
 48
1.0
  6
ByLayer
100
AcDbCircle
 10
274.38529780542092
 20
242.91844035018809
 30
0.0
 40
1.5875000000000909
100
AcDbArc
 50
0.0
 51
180.0
  0
ARC
  5
134
100
AcDbEntity
  8
VISIBLE
 62
256
370
-1
 48
1.0
  6
ByLayer
100
AcDbCircle
 10
221.99779780542099
 20
188.5932403501883
 30
0.0
 40
1.5
100
AcDbArc
 50
270.0
 51
90.0
  0
ARC
  5
135
100
AcDbEntity
  8
VISIBLE
 62
256
370
-1
 48
1.0
  6
ByLayer
100
AcDbCircle
 10
221.99779780542099
 20
338.59324035018818
 30
0.0
 40
1.5
100
AcDbArc
 50
270.0
 51
90.0
  0
LINE
  5
136
100
AcDbEntity
100
AcDbLine
  8
VISIBLE
 62
256
370
-1
 48
1.0
  6
ByLayer
 10
221.99779780542099
 20
216.01114061814741
 30
0.0
 11
221.99779780542099
 21
219.01114035018821
 31
0.0
  0
LINE
  5
137
100
AcDbEntity
100
AcDbLine
  8
VISIBLE
 62
256
370
-1
 48
1.0
  6
ByLayer
 10
221.99779780542099
 20
366.01114061814752
 30
0.0
 11
221.99779780542099
 21
369.01114035018833
 31
0.0
  0
LINE
  5
138
100
AcDbEntity
100
AcDbLine
  8
VISIBLE
 62
256
370
-1
 48
1.0
  6
ByLayer
 10
221.99779780542099
 20
86.918440350188263
 30
0.0
 11
196.59779780542101
 21
86.918440350188263
 31
0.0
  0
LINE
  5
139
100
AcDbEntity
100
AcDbLine
  8
VISIBLE
 62
256
370
-1
 48
1.0
  6
ByLayer
 10
221.99779780542099
 20
236.91844035018829
 30
0.0
 11
196.59779780542101
 21
236.91844035018829
 31
0.0
  0
LINE
  5
13A
100
AcDbEntity
100
AcDbLine
  8
VISIBLE
 62
256
370
-1
 48
1.0
  6
ByLayer
 10
272.79779780542088
 20
190.0932403501883
 30
0.0
 11
247.39779780542091
 21
190.0932403501883
 31
0.0
  0
LINE
  5
13B
100
AcDbEntity
100
AcDbLine
  8
VISIBLE
 62
256
370
-1
 48
1.0
  6
ByLayer
 10
272.79779780542088
 20
340.09324035018818
 30
0.0
 11
247.39779780542091
 21
340.09324035018818
 31
0.0
  0
ARC
  5
13C
100
AcDbEntity
  8
VISIBLE
 62
256
370
-1
 48
1.0
  6
ByLayer
100
AcDbCircle
 10
248.98529780542091
 20
216.01114035018821
 30
0.0
 40
1.5874999999999999
100
AcDbArc
 50
180.0
 51
0.0
  0
ARC
  5
13D
100
AcDbEntity
  8
VISIBLE
 62
256
370
-1
 48
1.0
  6
ByLayer
100
AcDbCircle
 10
248.98529780542091
 20
366.01114035018833
 30
0.0
 40
1.5874999999999999
100
AcDbArc
 50
180.0
 51
0.0
  0
LINE
  5
13E
100
AcDbEntity
100
AcDbLine
  8
VISIBLE
 62
256
370
-1
 48
1.0
  6
ByLayer
 10
196.59779780542101
 20
86.918440350188263
 30
0.0
 11
196.59779780542101
 21
92.918440350188149
 31
0.0
  0
LINE
  5
13F
100
AcDbEntity
100
AcDbLine
  8
VISIBLE
 62
256
370
-1
 48
1.0
  6
ByLayer
 10
196.59779780542101
 20
236.91844035018829
 30
0.0
 11
196.59779780542101
 21
242.91844035018809
 31
0.0
  0
LINE
  5
140
100
AcDbEntity
100
AcDbLine
  8
VISIBLE
 62
256
370
-1
 48
1.0
  6
ByLayer
 10
221.99779780542099
 20
190.0932403501883
 30
0.0
 11
196.59779780542101
 21
190.0932403501883
 31
0.0
  0
LINE
  5
141
100
AcDbEntity
100
AcDbLine
  8
VISIBLE
 62
256
370
-1
 48
1.0
  6
ByLayer
 10
221.99779780542099
 20
340.09324035018818
 30
0.0
 11
196.59779780542101
 21
340.09324035018818
 31
0.0
  0
ARC
  5
142
100
AcDbEntity
  8
VISIBLE
 62
256
370
-1
 48
1.0
  6
ByLayer
100
AcDbCircle
 10
195.01029780542089
 20
92.918440350188149
 30
0.0
 40
1.5874999999999999
100
AcDbArc
 50
0.0
 51
180.0
  0
ARC
  5
143
100
AcDbEntity
  8
VISIBLE
 62
256
370
-1
 48
1.0
  6
ByLayer
100
AcDbCircle
 10
195.01029780542089
 20
242.91844035018809
 30
0.0
 40
1.5874999999999999
100
AcDbArc
 50
0.0
 51
180.0
  0
ARC
  5
144
100
AcDbEntity
  8
VISIBLE
 62
256
370
-1
 48
1.0
  6
ByLayer
100
AcDbCircle
 10
220.41029780542101
 20
216.01114035018821
 30
0.0
 40
1.5874999999999999
100
AcDbArc
 50
180.0
 51
0.0
  0
ARC
  5
145
100
AcDbEntity
  8
VISIBLE
 62
256
370
-1
 48
1.0
  6
ByLayer
100
AcDbCircle
 10
220.41029780542101
 20
366.01114035018833
 30
0.0
 40
1.5874999999999999
100
AcDbArc
 50
180.0
 51
0.0
  0
LINE
  5
146
100
AcDbEntity
100
AcDbLine
  8
VISIBLE
 62
256
370
-1
 48
1.0
  6
ByLayer
 10
170.41039780542101
 20
92.918440350188149
 30
0.0
 11
170.41039780542101
 21
216.01114035018821
 31
0.0
  0
LINE
  5
147
100
AcDbEntity
100
AcDbLine
  8
VISIBLE
 62
256
370
-1
 48
1.0
  6
ByLayer
 10
170.41039780542101
 20
242.91844035018809
 30
0.0
 11
170.41039780542101
 21
366.01114035018833
 31
0.0
  0
ARC
  5
148
100
AcDbEntity
  8
VISIBLE
 62
256
370
-1
 48
1.0
  6
ByLayer
100
AcDbCircle
 10
196.59779780542101
 20
188.5932403501883
 30
0.0
 40
1.5
100
AcDbArc
 50
90.0
 51
270.0
  0
ARC
  5
149
100
AcDbEntity
  8
VISIBLE
 62
256
370
-1
 48
1.0
  6
ByLayer
100
AcDbCircle
 10
196.59779780542101
 20
338.59324035018818
 30
0.0
 40
1.5
100
AcDbArc
 50
90.0
 51
270.0
  0
LINE
  5
14A
100
AcDbEntity
100
AcDbLine
  8
VISIBLE
 62
256
370
-1
 48
1.0
  6
ByLayer
 10
272.79779780542088
 20
92.918439748678935
 30
0.0
 11
272.79779780542088
 21
86.918440350188263
 31
0.0
  0
LINE
  5
14B
100
AcDbEntity
100
AcDbLine
  8
VISIBLE
 62
256
370
-1
 48
1.0
  6
ByLayer
 10
272.79779780542088
 20
242.91843974867891
 30
0.0
 11
272.79779780542088
 21
236.91844035018829
 31
0.0
  0
ARC
  5
14C
100
AcDbEntity
  8
VISIBLE
 62
256
370
-1
 48
1.0
  6
ByLayer
100
AcDbCircle
 10
247.39779780542091
 20
188.5932403501883
 30
0.0
 40
1.5
100
AcDbArc
 50
90.0
 51
270.0
  0
ARC
  5
14D
100
AcDbEntity
  8
VISIBLE
 62
256
370
-1
 48
1.0
  6
ByLayer
100
AcDbCircle
 10
247.39779780542091
 20
338.59324035018818
 30
0.0
 40
1.5
100
AcDbArc
 50
90.0
 51
270.0
  0
ARC
  5
14E
100
AcDbEntity
  8
VISIBLE
 62
256
370
-1
 48
1.0
  6
ByLayer
100
AcDbCircle
 10
223.58529780542079
 20
92.918440350188149
 30
0.0
 40
1.5874999999999999
100
AcDbArc
 50
0.0
 51
180.0
  0
ARC
  5
14F
100
AcDbEntity
  8
VISIBLE
 62
256
370
-1
 48
1.0
  6
ByLayer
100
AcDbCircle
 10
223.58529780542079
 20
242.91844035018809
 30
0.0
 40
1.5874999999999999
100
AcDbArc
 50
0.0
 51
180.0
  0
LINE
  5
150
100
AcDbEntity
100
AcDbLine
  8
VISIBLE
 62
256
370
-1
 48
1.0
  6
ByLayer
 10
193.42279780542091
 20
92.918440350188149
 30
0.0
 11
170.41039780542101
 21
92.918440350188149
 31
0.0
  0
LINE
  5
151
100
AcDbEntity
100
AcDbLine
  8
VISIBLE
 62
256
370
-1
 48
1.0
  6
ByLayer
 10
193.42279780542091
 20
242.91844035018809
 30
0.0
 11
170.41039780542101
 21
242.91844035018809
 31
0.0
  0
LINE
  5
152
100
AcDbEntity
100
AcDbLine
  8
VISIBLE
 62
256
370
-1
 48
1.0
  6
ByLayer
 10
244.22279780542101
 20
92.918440350188149
 30
0.0
 11
225.17279780542091
 21
92.918440350188149
 31
0.0
  0
LINE
  5
153
100
AcDbEntity
100
AcDbLine
  8
VISIBLE
 62
256
370
-1
 48
1.0
  6
ByLayer
 10
244.22279780542101
 20
242.91844035018809
 30
0.0
 11
225.17279780542091
 21
242.91844035018809
 31
0.0
  0
LINE
  5
154
100
AcDbEntity
100
AcDbLine
  8
VISIBLE
 62
256
370
-1
 48
1.0
  6
ByLayer
 10
298.98519780542108
 20
92.918440350188149
 30
0.0
 11
275.97279780542101
 21
92.918440350188149
 31
0.0
  0
LINE
  5
155
100
AcDbEntity
100
AcDbLine
  8
VISIBLE
 62
256
370
-1
 48
1.0
  6
ByLayer
 10
298.98519780542108
 20
242.91844035018809
 30
0.0
 11
275.97279780542101
 21
242.91844035018809
 31
0.0
  0
LINE
  5
156
100
AcDbEntity
100
AcDbLine
  8
VISIBLE
 62
256
370
-1
 48
1.0
  6
ByLayer
 10
170.41039780542101
 20
216.01114035018821
 30
0.0
 11
218.822797805421
 21
216.01114035018821
 31
0.0
  0
LINE
  5
157
100
AcDbEntity
100
AcDbLine
  8
VISIBLE
 62
256
370
-1
 48
1.0
  6
ByLayer
 10
170.41039780542101
 20
366.01114035018833
 30
0.0
 11
218.822797805421
 21
366.01114035018833
 31
0.0
  0
LINE
  5
158
100
AcDbEntity
100
AcDbLine
  8
VISIBLE
 62
256
370
-1
 48
1.0
  6
ByLayer
 10
250.572797805421
 20
216.01114035018821
 30
0.0
 11
298.98519780542108
 21
216.01114035018821
 31
0.0
  0
LINE
  5
159
100
AcDbEntity
100
AcDbLine
  8
VISIBLE
 62
256
370
-1
 48
1.0
  6
ByLayer
 10
250.572797805421
 20
366.01114035018833
 30
0.0
 11
298.98519780542108
 21
366.01114035018833
 31
0.0
  0
LINE
  5
15A
100
AcDbEntity
100
AcDbLine
  8
VISIBLE
 62
256
370
-1
 48
1.0
  6
ByLayer
 10
247.39779780542091
 20
187.0932403501883
 30
0.0
 11
272.79779780542088
 21
187.0932403501883
 31
0.0
  0
LINE
  5
15B
100
AcDbEntity
100
AcDbLine
  8
VISIBLE
 62
256
370
-1
 48
1.0
  6
ByLayer
 10
247.39779780542091
 20
337.09324035018818
 30
0.0
 11
272.79779780542088
 21
337.09324035018818
 31
0.0
  0
LINE
  5
15C
100
AcDbEntity
100
AcDbLine
  8
VISIBLE
 62
256
370
-1
 48
1.0
  6
ByLayer
 10
196.59779780542101
 20
187.0932403501883
 30
0.0
 11
221.99779780542099
 21
187.0932403501883
 31
0.0
  0
LINE
  5
15D
100
AcDbEntity
100
AcDbLine
  8
VISIBLE
 62
256
370
-1
 48
1.0
  6
ByLayer
 10
196.59779780542101
 20
337.09324035018818
 30
0.0
 11
221.99779780542099
 21
337.09324035018818
 31
0.0
  0
ENDSEC
  0
SECTION
  2
OBJECTS
  0
DICTIONARY
  5
C
100
AcDbDictionary
280
0
281
1
  3
ACAD_GROUP
350
D
  3
ACAD_LAYOUT
350
1A
  3
ACAD_MLINESTYLE
350
17
  3
ACAD_PLOTSETTINGS
350
19
  3
ACAD_PLOTSTYLENAME
350
E
  3
AcDbVariableDictionary
350
15E
  3
QCAD_OBJECTS
350
15F
  0
DICTIONARY
  5
D
100
AcDbDictionary
280
0
281
1
  0
ACDBDICTIONARYWDFLT
  5
E
100
AcDbDictionary
281
1
  3
Normal
350
F
100
AcDbDictionaryWithDefault
340
F
  0
ACDBPLACEHOLDER
  5
F
  0
DICTIONARY
  5
17
100
AcDbDictionary
280
0
281
1
  3
Standard
350
18
  0
MLINESTYLE
  5
18
100
AcDbMlineStyle
  2
STANDARD
 70
0
  3

 62
256
 51
90.0
 52
90.0
 71
2
 49
0.5
 62
256
  6
BYLAYER
 49
-0.5
 62
256
  6
BYLAYER
  0
DICTIONARY
  5
19
100
AcDbDictionary
280
0
281
1
  0
DICTIONARY
  5
1A
100
AcDbDictionary
281
1
  3
Layout1
350
1E
  3
Layout2
350
26
  3
Model
350
22
  0
LAYOUT
  5
1E
100
AcDbPlotSettings
  1

  2
none_device
  4

  6

 40
0.0
 41
0.0
 42
0.0
 43
0.0
 44
0.0
 45
0.0
 46
0.0
 47
0.0
 48
0.0
 49
0.0
140
0.0
141
0.0
142
1.0
143
1.0
 70
688
 72
0
 73
0
 74
5
  7

 75
16
147
1.0
148
0.0
149
0.0
100
AcDbLayout
  1
Layout1
 70
1
 71
1
 10
0.0
 20
0.0
 11
420.0
 21
297.0
 12
0.0
 22
0.0
 32
0.0
 14
100000000000000000000.0
 24
100000000000000000000.0
 34
100000000000000000000.0
 15
-100000000000000000000.0
 25
-100000000000000000000.0
 35
-100000000000000000000.0
146
0.0
 13
0.0
 23
0.0
 33
0.0
 16
1.0
 26
0.0
 36
0.0
 17
0.0
 27
1.0
 37
0.0
 76
0
330
1B
  0
LAYOUT
  5
22
100
AcDbPlotSettings
  1

  2
none_device
  4

  6

 40
0.0
 41
0.0
 42
0.0
 43
0.0
 44
0.0
 45
0.0
 46
0.0
 47
0.0
 48
0.0
 49
0.0
140
0.0
141
0.0
142
1.0
143
1.0
 70
1712
 72
0
 73
0
 74
0
  7

 75
0
147
1.0
148
0.0
149
0.0
100
AcDbLayout
  1
Model
 70
1
 71
0
 10
0.0
 20
0.0
 11
12.0
 21
9.0
 12
0.0
 22
0.0
 32
0.0
 14
0.0
 24
0.0
 34
0.0
 15
0.0
 25
0.0
 35
0.0
146
0.0
 13
0.0
 23
0.0
 33
0.0
 16
1.0
 26
0.0
 36
0.0
 17
0.0
 27
1.0
 37
0.0
 76
0
330
1F
  0
LAYOUT
  5
26
100
AcDbPlotSettings
  1

  2
none_device
  4

  6

 40
0.0
 41
0.0
 42
0.0
 43
0.0
 44
0.0
 45
0.0
 46
0.0
 47
0.0
 48
0.0
 49
0.0
140
0.0
141
0.0
142
1.0
143
1.0
 70
688
 72
0
 73
0
 74
5
  7

 75
16
147
1.0
148
0.0
149
0.0
100
AcDbLayout
  1
Layout2
 70
1
 71
2
 10
0.0
 20
0.0
 11
12.0
 21
9.0
 12
0.0
 22
0.0
 32
0.0
 14
0.0
 24
0.0
 34
0.0
 15
0.0
 25
0.0
 35
0.0
146
0.0
 13
0.0
 23
0.0
 33
0.0
 16
1.0
 26
0.0
 36
0.0
 17
0.0
 27
1.0
 37
0.0
 76
0
330
23
  0
DICTIONARY
  5
15E
100
AcDbDictionary
281
1
  3
DIMASSOC
350
161
  3
HIDETEXT
350
160
  0
DICTIONARYVAR
  5
160
100
DictionaryVariables
280
0
  1
2
  0
DICTIONARYVAR
  5
161
100
DictionaryVariables
280
0
  1
1
  0
DICTIONARY
  5
15F
100
AcDbDictionary
281
1
  3
ColorSettings/BackgroundColor
350
162
  3
ColorSettings/ColorMode
350
163
  3
Grid/DisplayGrid00
350
164
  3
Grid/DisplayGrid01
350
165
  3
Grid/DisplayGrid02
350
166
  3
Grid/DisplayGrid03
350
167
  3
Grid/GridSpacingX00
350
168
  3
Grid/GridSpacingX01
350
169
  3
Grid/GridSpacingX02
350
16A
  3
Grid/GridSpacingX03
350
16B
  3
Grid/GridSpacingY00
350
16C
  3
Grid/GridSpacingY01
350
16D
  3
Grid/GridSpacingY02
350
16E
  3
Grid/GridSpacingY03
350
16F
  3
Grid/IsometricGrid00
350
170
  3
Grid/IsometricGrid01
350
171
  3
Grid/IsometricGrid02
350
172
  3
Grid/IsometricGrid03
350
173
  3
Grid/IsometricProjection00
350
174
  3
Grid/IsometricProjection01
350
175
  3
Grid/IsometricProjection02
350
176
  3
Grid/IsometricProjection03
350
177
  3
Grid/MetaGridSpacingX00
350
178
  3
Grid/MetaGridSpacingX01
350
179
  3
Grid/MetaGridSpacingX02
350
17A
  3
Grid/MetaGridSpacingX03
350
17B
  3
Grid/MetaGridSpacingY00
350
17C
  3
Grid/MetaGridSpacingY01
350
17D
  3
Grid/MetaGridSpacingY02
350
17E
  3
Grid/MetaGridSpacingY03
350
17F
  3
MultiPageSettings/Columns
350
180
  3
MultiPageSettings/GlueMarginsBottom
350
181
  3
MultiPageSettings/GlueMarginsLeft
350
182
  3
MultiPageSettings/GlueMarginsRight
350
183
  3
MultiPageSettings/GlueMarginsTop
350
184
  3
MultiPageSettings/PrintCropMarks
350
185
  3
MultiPageSettings/Rows
350
186
  3
PageSettings/OffsetX
350
187
  3
PageSettings/OffsetY
350
188
  3
PageSettings/PageOrientation
350
189
  3
PageSettings/PaperHeight
350
18A
  3
PageSettings/PaperWidth
350
18B
  3
PageSettings/Scale
350
18C
  3
PageSettings/ShowPaperBorders
350
18D
  3
QCADVersion
350
18E
  3
UnitSettings/PaperUnit
350
18F
  0
XRECORD
  5
162
330
15F
100
AcDbXrecord
280
1
1000
#ffffff
  0
XRECORD
  5
163
330
15F
100
AcDbXrecord
280
1
1000
FullColor
  0
XRECORD
  5
164
330
15F
100
AcDbXrecord
280
1
290
1
  0
XRECORD
  5
165
330
15F
100
AcDbXrecord
280
1
290
1
  0
XRECORD
  5
166
330
15F
100
AcDbXrecord
280
1
290
1
  0
XRECORD
  5
167
330
15F
100
AcDbXrecord
280
1
290
1
  0
XRECORD
  5
168
330
15F
100
AcDbXrecord
280
1
1000
auto
  0
XRECORD
  5
169
330
15F
100
AcDbXrecord
280
1
1000
auto
  0
XRECORD
  5
16A
330
15F
100
AcDbXrecord
280
1
1000
auto
  0
XRECORD
  5
16B
330
15F
100
AcDbXrecord
280
1
1000
auto
  0
XRECORD
  5
16C
330
15F
100
AcDbXrecord
280
1
1000
auto
  0
XRECORD
  5
16D
330
15F
100
AcDbXrecord
280
1
1000
auto
  0
XRECORD
  5
16E
330
15F
100
AcDbXrecord
280
1
1000
auto
  0
XRECORD
  5
16F
330
15F
100
AcDbXrecord
280
1
1000
auto
  0
XRECORD
  5
170
330
15F
100
AcDbXrecord
280
1
290
0
  0
XRECORD
  5
171
330
15F
100
AcDbXrecord
280
1
290
0
  0
XRECORD
  5
172
330
15F
100
AcDbXrecord
280
1
290
0
  0
XRECORD
  5
173
330
15F
100
AcDbXrecord
280
1
290
0
  0
XRECORD
  5
174
330
15F
100
AcDbXrecord
280
1
 90
0
  0
XRECORD
  5
175
330
15F
100
AcDbXrecord
280
1
 90
0
  0
XRECORD
  5
176
330
15F
100
AcDbXrecord
280
1
 90
0
  0
XRECORD
  5
177
330
15F
100
AcDbXrecord
280
1
 90
0
  0
XRECORD
  5
178
330
15F
100
AcDbXrecord
280
1
1000
auto
  0
XRECORD
  5
179
330
15F
100
AcDbXrecord
280
1
1000
auto
  0
XRECORD
  5
17A
330
15F
100
AcDbXrecord
280
1
1000
auto
  0
XRECORD
  5
17B
330
15F
100
AcDbXrecord
280
1
1000
auto
  0
XRECORD
  5
17C
330
15F
100
AcDbXrecord
280
1
1000
auto
  0
XRECORD
  5
17D
330
15F
100
AcDbXrecord
280
1
1000
auto
  0
XRECORD
  5
17E
330
15F
100
AcDbXrecord
280
1
1000
auto
  0
XRECORD
  5
17F
330
15F
100
AcDbXrecord
280
1
1000
auto
  0
XRECORD
  5
180
330
15F
100
AcDbXrecord
280
1
 90
1
  0
XRECORD
  5
181
330
15F
100
AcDbXrecord
280
1
 40
10.0
  0
XRECORD
  5
182
330
15F
100
AcDbXrecord
280
1
 40
10.0
  0
XRECORD
  5
183
330
15F
100
AcDbXrecord
280
1
 40
10.0
  0
XRECORD
  5
184
330
15F
100
AcDbXrecord
280
1
 40
10.0
  0
XRECORD
  5
185
330
15F
100
AcDbXrecord
280
1
290
0
  0
XRECORD
  5
186
330
15F
100
AcDbXrecord
280
1
 90
1
  0
XRECORD
  5
187
330
15F
100
AcDbXrecord
280
1
 40
0.0
  0
XRECORD
  5
188
330
15F
100
AcDbXrecord
280
1
 40
0.0
  0
XRECORD
  5
189
330
15F
100
AcDbXrecord
280
1
1000
Portrait
  0
XRECORD
  5
18A
330
15F
100
AcDbXrecord
280
1
 40
297.0
  0
XRECORD
  5
18B
330
15F
100
AcDbXrecord
280
1
 40
210.0
  0
XRECORD
  5
18C
330
15F
100
AcDbXrecord
280
1
1000
1:1
  0
XRECORD
  5
18D
330
15F
100
AcDbXrecord
280
1
290
1
  0
XRECORD
  5
18E
330
15F
100
AcDbXrecord
280
1
1000
3.12.8
  0
XRECORD
  5
18F
330
15F
100
AcDbXrecord
280
1
 90
4
  0
ENDSEC
  0
EOF
